<mxfile host="Electron" agent="Mozilla/5.0 (Windows NT 10.0; Win64; x64) AppleWebKit/537.36 (KHTML, like Gecko) draw.io/26.2.15 Chrome/134.0.6998.205 Electron/35.2.1 Safari/537.36" version="26.2.15">
  <diagram name="Страница — 1" id="oI3jOKfCc4rPU5QWJOUy">
    <mxGraphModel dx="6307" dy="3793" grid="0" gridSize="10" guides="1" tooltips="1" connect="1" arrows="1" fold="1" page="0" pageScale="1" pageWidth="1169" pageHeight="827" background="none" math="0" shadow="0">
      <root>
        <object label="" id="0">
          <mxCell />
        </object>
        <mxCell id="1" parent="0" />
        <mxCell id="QvxtqPu8qyB4Hp5iw3jF-208" value="" style="rounded=0;whiteSpace=wrap;html=1;strokeColor=#FF0000;strokeWidth=4;align=center;verticalAlign=middle;fontFamily=Times New Roman;fontSize=18;fontColor=default;fontStyle=1;resizable=0;fillColor=default;movable=0;rotatable=0;deletable=0;editable=0;locked=1;connectable=0;" vertex="1" parent="1">
          <mxGeometry x="-1358" y="-646" width="1087" height="1480" as="geometry" />
        </mxCell>
        <mxCell id="pf5fv10O7jcKK1ilcvL3-1" value="Схема работы системы" style="text;html=1;align=center;verticalAlign=middle;resizable=0;points=[];autosize=1;strokeColor=none;fillColor=none;fontFamily=Verdana;rounded=0;fontSize=60;fontStyle=1;movable=0;rotatable=0;deletable=0;editable=0;locked=1;connectable=0;" parent="1" vertex="1">
          <mxGeometry x="40" y="-460" width="850" height="90" as="geometry" />
        </mxCell>
        <mxCell id="pf5fv10O7jcKK1ilcvL3-5" value="&lt;p&gt;Инициализация&lt;/p&gt;" style="rounded=0;whiteSpace=wrap;html=1;align=center;fontFamily=Times New Roman;fontSize=18;fontStyle=1;strokeWidth=2;" parent="1" vertex="1">
          <mxGeometry x="-110" y="-240" width="160" height="80" as="geometry" />
        </mxCell>
        <mxCell id="pf5fv10O7jcKK1ilcvL3-23" style="edgeStyle=orthogonalEdgeStyle;rounded=0;orthogonalLoop=1;jettySize=auto;html=1;entryX=1;entryY=0.5;entryDx=0;entryDy=0;fontFamily=Times New Roman;fontSize=18;fontStyle=1;strokeWidth=2;" parent="1" source="pf5fv10O7jcKK1ilcvL3-24" target="pf5fv10O7jcKK1ilcvL3-5" edge="1">
          <mxGeometry relative="1" as="geometry" />
        </mxCell>
        <mxCell id="pf5fv10O7jcKK1ilcvL3-24" value="&lt;span style=&quot;background-color: rgb(255, 255, 255); float: none; display: inline !important; color: rgb(0, 0, 0);&quot;&gt;Загрузка&lt;/span&gt;&lt;br style=&quot;background-color: rgb(255, 255, 255); color: rgb(0, 0, 0);&quot;&gt;&lt;span style=&quot;background-color: rgb(255, 255, 255); float: none; display: inline !important; color: rgb(0, 0, 0);&quot;&gt;настроек&lt;/span&gt;" style="strokeWidth=2;html=1;shape=mxgraph.flowchart.direct_data;whiteSpace=wrap;align=center;fontFamily=Times New Roman;rounded=0;fontSize=18;fontStyle=1" parent="1" vertex="1">
          <mxGeometry x="90" y="-240" width="160" height="80" as="geometry" />
        </mxCell>
        <mxCell id="9EqDKlL5Y5wbzRuT1DFT-77" style="edgeStyle=orthogonalEdgeStyle;rounded=0;orthogonalLoop=1;jettySize=auto;html=1;entryX=0.5;entryY=1;entryDx=0;entryDy=0;endArrow=none;startFill=0;fontFamily=Times New Roman;fontStyle=1;strokeWidth=2;" parent="1" source="pf5fv10O7jcKK1ilcvL3-26" target="9EqDKlL5Y5wbzRuT1DFT-75" edge="1">
          <mxGeometry relative="1" as="geometry" />
        </mxCell>
        <mxCell id="pf5fv10O7jcKK1ilcvL3-26" value="&lt;font&gt;Ввод пароля&lt;/font&gt;" style="shape=parallelogram;perimeter=parallelogramPerimeter;whiteSpace=wrap;html=1;fixedSize=1;strokeWidth=2;rounded=0;fontFamily=Times New Roman;fontSize=18;fontStyle=1" parent="1" vertex="1">
          <mxGeometry x="-110" y="120" width="160" height="80" as="geometry" />
        </mxCell>
        <mxCell id="pf5fv10O7jcKK1ilcvL3-43" style="edgeStyle=orthogonalEdgeStyle;rounded=0;orthogonalLoop=1;jettySize=auto;html=1;exitX=0.5;exitY=1;exitDx=0;exitDy=0;entryX=0.5;entryY=0;entryDx=0;entryDy=0;endArrow=none;endFill=0;align=center;fontFamily=Times New Roman;fontSize=18;fontStyle=1;strokeWidth=2;" parent="1" source="pf5fv10O7jcKK1ilcvL3-44" target="pf5fv10O7jcKK1ilcvL3-46" edge="1">
          <mxGeometry relative="1" as="geometry" />
        </mxCell>
        <mxCell id="9EqDKlL5Y5wbzRuT1DFT-115" style="edgeStyle=orthogonalEdgeStyle;rounded=0;orthogonalLoop=1;jettySize=auto;html=1;entryX=0.5;entryY=1;entryDx=0;entryDy=0;endArrow=none;startFill=0;strokeWidth=2;exitX=0.5;exitY=0;exitDx=0;exitDy=0;" parent="1" source="9EqDKlL5Y5wbzRuT1DFT-177" target="9EqDKlL5Y5wbzRuT1DFT-113" edge="1">
          <mxGeometry relative="1" as="geometry">
            <mxPoint x="810" y="-160.00000000000023" as="targetPoint" />
          </mxGeometry>
        </mxCell>
        <mxCell id="9EqDKlL5Y5wbzRuT1DFT-180" style="edgeStyle=orthogonalEdgeStyle;rounded=0;orthogonalLoop=1;jettySize=auto;html=1;entryX=0.5;entryY=1;entryDx=0;entryDy=0;strokeWidth=2;endArrow=none;startFill=0;" parent="1" source="pf5fv10O7jcKK1ilcvL3-44" target="9EqDKlL5Y5wbzRuT1DFT-177" edge="1">
          <mxGeometry relative="1" as="geometry" />
        </mxCell>
        <mxCell id="pf5fv10O7jcKK1ilcvL3-44" value="Выбор заказа" style="rounded=0;whiteSpace=wrap;html=1;align=center;fontFamily=Times New Roman;fontSize=18;fontStyle=1;strokeWidth=2;" parent="1" vertex="1">
          <mxGeometry x="730" y="-120" width="160" height="80" as="geometry" />
        </mxCell>
        <mxCell id="pf5fv10O7jcKK1ilcvL3-45" style="edgeStyle=orthogonalEdgeStyle;rounded=0;orthogonalLoop=1;jettySize=auto;html=1;exitX=0.5;exitY=1;exitDx=0;exitDy=0;endArrow=none;startFill=0;fontFamily=Times New Roman;fontSize=18;fontStyle=1;strokeWidth=2;" parent="1" source="pf5fv10O7jcKK1ilcvL3-46" target="pf5fv10O7jcKK1ilcvL3-52" edge="1">
          <mxGeometry relative="1" as="geometry" />
        </mxCell>
        <mxCell id="pf5fv10O7jcKK1ilcvL3-46" value="Изменение&lt;div&gt;статуса заказа&lt;/div&gt;" style="rounded=0;whiteSpace=wrap;html=1;align=center;fontFamily=Times New Roman;fontSize=18;fontStyle=1;strokeWidth=2;" parent="1" vertex="1">
          <mxGeometry x="730" width="160" height="80" as="geometry" />
        </mxCell>
        <mxCell id="pf5fv10O7jcKK1ilcvL3-49" style="edgeStyle=orthogonalEdgeStyle;rounded=0;orthogonalLoop=1;jettySize=auto;html=1;exitX=0;exitY=0.5;exitDx=0;exitDy=0;exitPerimeter=0;entryX=1;entryY=0.5;entryDx=0;entryDy=0;endArrow=classic;endFill=1;fontFamily=Times New Roman;fontSize=18;fontStyle=1;strokeWidth=2;" parent="1" source="pf5fv10O7jcKK1ilcvL3-50" target="pf5fv10O7jcKK1ilcvL3-44" edge="1">
          <mxGeometry relative="1" as="geometry" />
        </mxCell>
        <mxCell id="pf5fv10O7jcKK1ilcvL3-50" value="&amp;nbsp; &amp;nbsp; &amp;nbsp; &amp;nbsp;Отображение&amp;nbsp; &amp;nbsp; &amp;nbsp;информации о заказе" style="strokeWidth=2;html=1;shape=mxgraph.flowchart.display;whiteSpace=wrap;fontFamily=Times New Roman;rounded=0;fontSize=18;fontStyle=1" parent="1" vertex="1">
          <mxGeometry x="930" y="-120" width="160" height="80" as="geometry" />
        </mxCell>
        <mxCell id="pf5fv10O7jcKK1ilcvL3-51" style="edgeStyle=orthogonalEdgeStyle;rounded=0;orthogonalLoop=1;jettySize=auto;html=1;entryX=0.5;entryY=0;entryDx=0;entryDy=0;endArrow=none;startFill=0;fontFamily=Times New Roman;fontSize=18;fontStyle=1;strokeWidth=2;" parent="1" source="pf5fv10O7jcKK1ilcvL3-52" target="pf5fv10O7jcKK1ilcvL3-54" edge="1">
          <mxGeometry relative="1" as="geometry" />
        </mxCell>
        <mxCell id="pf5fv10O7jcKK1ilcvL3-52" value="Сохранение" style="shape=process;whiteSpace=wrap;html=1;backgroundOutline=1;align=center;fontFamily=Times New Roman;rounded=0;fontSize=18;fontStyle=1;strokeWidth=2;" parent="1" vertex="1">
          <mxGeometry x="730" y="120" width="160" height="80" as="geometry" />
        </mxCell>
        <mxCell id="pf5fv10O7jcKK1ilcvL3-53" style="edgeStyle=orthogonalEdgeStyle;rounded=0;orthogonalLoop=1;jettySize=auto;html=1;exitX=1;exitY=0.5;exitDx=0;exitDy=0;entryX=0;entryY=0.5;entryDx=0;entryDy=0;entryPerimeter=0;endArrow=none;endFill=0;fontFamily=Times New Roman;fontSize=18;fontStyle=1;strokeWidth=2;" parent="1" source="pf5fv10O7jcKK1ilcvL3-52" target="pf5fv10O7jcKK1ilcvL3-57" edge="1">
          <mxGeometry relative="1" as="geometry">
            <mxPoint x="930.5" y="455" as="targetPoint" />
          </mxGeometry>
        </mxCell>
        <mxCell id="pf5fv10O7jcKK1ilcvL3-54" value="Оповещение пользователя" style="shape=process;whiteSpace=wrap;html=1;backgroundOutline=1;align=center;fontFamily=Times New Roman;rounded=0;fontSize=18;fontStyle=1;strokeWidth=2;" parent="1" vertex="1">
          <mxGeometry x="730" y="240" width="160" height="80" as="geometry" />
        </mxCell>
        <mxCell id="pf5fv10O7jcKK1ilcvL3-57" value="&lt;div style=&quot;&quot;&gt;&lt;span style=&quot;background-color: transparent; color: light-dark(rgb(0, 0, 0), rgb(255, 255, 255));&quot;&gt;Сохранение&amp;nbsp; &amp;nbsp;&lt;/span&gt;&lt;/div&gt;&lt;div style=&quot;&quot;&gt;в БД&amp;nbsp; &amp;nbsp;&lt;/div&gt;" style="strokeWidth=2;html=1;shape=mxgraph.flowchart.direct_data;whiteSpace=wrap;align=center;fontFamily=Times New Roman;rounded=0;fontSize=18;fontStyle=1" parent="1" vertex="1">
          <mxGeometry x="930" y="120" width="160" height="80" as="geometry" />
        </mxCell>
        <mxCell id="pf5fv10O7jcKK1ilcvL3-59" value="1" style="ellipse;whiteSpace=wrap;html=1;aspect=fixed;rounded=0;fontFamily=Times New Roman;fontSize=18;fontStyle=1;strokeWidth=2;" parent="1" vertex="1">
          <mxGeometry x="-50" y="360" width="40" height="40" as="geometry" />
        </mxCell>
        <mxCell id="pf5fv10O7jcKK1ilcvL3-62" style="edgeStyle=orthogonalEdgeStyle;rounded=0;orthogonalLoop=1;jettySize=auto;html=1;exitX=0.5;exitY=1;exitDx=0;exitDy=0;entryX=0.5;entryY=0;entryDx=0;entryDy=0;endArrow=none;startFill=0;fontFamily=Times New Roman;fontSize=18;fontStyle=1;strokeWidth=2;" parent="1" source="pf5fv10O7jcKK1ilcvL3-54" target="9EqDKlL5Y5wbzRuT1DFT-74" edge="1">
          <mxGeometry relative="1" as="geometry">
            <mxPoint x="810" y="614" as="targetPoint" />
          </mxGeometry>
        </mxCell>
        <mxCell id="sZgTdZ2AV089rUdlqtD1-2" style="edgeStyle=orthogonalEdgeStyle;rounded=0;orthogonalLoop=1;jettySize=auto;html=1;endArrow=none;startFill=0;dashed=1;fontFamily=Times New Roman;fontSize=18;fontStyle=1;strokeWidth=2;" parent="1" source="sZgTdZ2AV089rUdlqtD1-1" target="pf5fv10O7jcKK1ilcvL3-54" edge="1">
          <mxGeometry relative="1" as="geometry" />
        </mxCell>
        <mxCell id="sZgTdZ2AV089rUdlqtD1-1" value="" style="strokeWidth=2;html=1;shape=mxgraph.flowchart.annotation_2;align=left;labelPosition=right;pointerEvents=1;rounded=0;fontFamily=Times New Roman;fontSize=18;fontStyle=1" parent="1" vertex="1">
          <mxGeometry x="930" y="248.75" width="50" height="62.5" as="geometry" />
        </mxCell>
        <mxCell id="sZgTdZ2AV089rUdlqtD1-3" value="&lt;font&gt;СМС-сообщение пользователю&lt;br&gt;об изменении статуса заказа&lt;/font&gt;" style="text;html=1;align=left;verticalAlign=middle;resizable=0;points=[];autosize=1;strokeColor=none;fillColor=none;rounded=0;fontFamily=Times New Roman;fontSize=18;fontStyle=1" parent="1" vertex="1">
          <mxGeometry x="970" y="250" width="260" height="60" as="geometry" />
        </mxCell>
        <mxCell id="_ACzCQE8blFFiLmsyVWc-3" style="edgeStyle=orthogonalEdgeStyle;rounded=0;orthogonalLoop=1;jettySize=auto;html=1;entryX=0.5;entryY=1;entryDx=0;entryDy=0;endArrow=none;startFill=0;strokeWidth=2;" parent="1" source="sZgTdZ2AV089rUdlqtD1-5" target="9EqDKlL5Y5wbzRuT1DFT-202" edge="1">
          <mxGeometry relative="1" as="geometry" />
        </mxCell>
        <mxCell id="sZgTdZ2AV089rUdlqtD1-5" value="Получение заказа" style="shape=process;whiteSpace=wrap;html=1;backgroundOutline=1;align=center;fontFamily=Times New Roman;rounded=0;movable=1;resizable=1;rotatable=1;deletable=1;editable=1;locked=0;connectable=1;fontSize=18;fontStyle=1;spacing=1;strokeWidth=2;" parent="1" vertex="1">
          <mxGeometry x="1320" y="-240" width="160" height="80" as="geometry" />
        </mxCell>
        <mxCell id="_ACzCQE8blFFiLmsyVWc-7" style="edgeStyle=orthogonalEdgeStyle;rounded=0;orthogonalLoop=1;jettySize=auto;html=1;entryX=0.5;entryY=1;entryDx=0;entryDy=0;strokeWidth=2;endArrow=none;startFill=0;" parent="1" source="sZgTdZ2AV089rUdlqtD1-8" target="_ACzCQE8blFFiLmsyVWc-5" edge="1">
          <mxGeometry relative="1" as="geometry" />
        </mxCell>
        <mxCell id="sZgTdZ2AV089rUdlqtD1-8" value="Статус = &#39;Новый&#39;" style="rounded=0;whiteSpace=wrap;html=1;align=center;fontFamily=Times New Roman;movable=1;resizable=1;rotatable=1;deletable=1;editable=1;locked=0;connectable=1;fontSize=18;fontStyle=1;strokeWidth=2;aspect=fixed;" parent="1" vertex="1">
          <mxGeometry x="1320" width="160" height="80" as="geometry" />
        </mxCell>
        <mxCell id="_ACzCQE8blFFiLmsyVWc-11" style="edgeStyle=orthogonalEdgeStyle;rounded=0;orthogonalLoop=1;jettySize=auto;html=1;entryX=0.5;entryY=1;entryDx=0;entryDy=0;strokeWidth=2;endArrow=none;startFill=0;" parent="1" source="sZgTdZ2AV089rUdlqtD1-25" target="sZgTdZ2AV089rUdlqtD1-21" edge="1">
          <mxGeometry relative="1" as="geometry" />
        </mxCell>
        <mxCell id="_ACzCQE8blFFiLmsyVWc-14" style="edgeStyle=orthogonalEdgeStyle;rounded=0;orthogonalLoop=1;jettySize=auto;html=1;entryX=0.5;entryY=0;entryDx=0;entryDy=0;strokeWidth=2;endArrow=none;startFill=0;" parent="1" source="sZgTdZ2AV089rUdlqtD1-25" edge="1">
          <mxGeometry relative="1" as="geometry">
            <mxPoint x="1400" y="360" as="targetPoint" />
          </mxGeometry>
        </mxCell>
        <mxCell id="sZgTdZ2AV089rUdlqtD1-25" value="Статус = &#39;Уточнение&#39;" style="rounded=0;whiteSpace=wrap;html=1;align=center;fontFamily=Times New Roman;movable=1;resizable=1;rotatable=1;deletable=1;editable=1;locked=0;connectable=1;fontSize=18;fontStyle=1;strokeWidth=2;" parent="1" vertex="1">
          <mxGeometry x="1320" y="240" width="160" height="80" as="geometry" />
        </mxCell>
        <mxCell id="sZgTdZ2AV089rUdlqtD1-28" value="Связь с клиентом" style="rounded=0;whiteSpace=wrap;html=1;align=center;fontFamily=Times New Roman;movable=1;resizable=1;rotatable=1;deletable=1;editable=1;locked=0;connectable=1;fontSize=18;fontStyle=1;strokeWidth=2;" parent="1" vertex="1">
          <mxGeometry x="1570" y="-120" width="160" height="80" as="geometry" />
        </mxCell>
        <mxCell id="sZgTdZ2AV089rUdlqtD1-29" value="" style="strokeWidth=2;html=1;shape=mxgraph.flowchart.annotation_2;align=left;labelPosition=right;pointerEvents=1;rounded=0;fontFamily=Verdana;movable=1;resizable=1;rotatable=1;deletable=1;editable=1;locked=0;connectable=1;" parent="1" vertex="1">
          <mxGeometry x="1770" y="-110" width="50" height="60" as="geometry" />
        </mxCell>
        <mxCell id="sZgTdZ2AV089rUdlqtD1-31" value="&lt;font&gt;Уточнение деталей&lt;br&gt;заказа у клиента&lt;/font&gt;" style="text;html=1;align=left;verticalAlign=middle;resizable=1;points=[];autosize=1;strokeColor=none;fillColor=none;fontFamily=Times New Roman;movable=1;rotatable=1;deletable=1;editable=1;locked=0;connectable=1;strokeWidth=2;fontSize=18;fontStyle=1" parent="1" vertex="1">
          <mxGeometry x="1810" y="-110" width="170" height="60" as="geometry" />
        </mxCell>
        <mxCell id="sZgTdZ2AV089rUdlqtD1-39" value="&lt;p&gt;&lt;font&gt;Алгоритм жизненного цикла заказа&lt;/font&gt;&lt;/p&gt;" style="text;whiteSpace=wrap;html=1;verticalAlign=middle;fontFamily=Verdana;fontSize=60;fontStyle=1;movable=1;resizable=1;rotatable=1;deletable=1;editable=1;locked=0;connectable=1;" parent="1" vertex="1">
          <mxGeometry x="1345" y="-455" width="1265" height="80" as="geometry" />
        </mxCell>
        <mxCell id="_ACzCQE8blFFiLmsyVWc-27" style="edgeStyle=orthogonalEdgeStyle;rounded=0;orthogonalLoop=1;jettySize=auto;html=1;exitX=1;exitY=0.5;exitDx=0;exitDy=0;entryX=0;entryY=0.5;entryDx=0;entryDy=0;strokeWidth=2;endArrow=none;startFill=0;" parent="1" source="sZgTdZ2AV089rUdlqtD1-41" target="_ACzCQE8blFFiLmsyVWc-25" edge="1">
          <mxGeometry relative="1" as="geometry">
            <mxPoint x="1770" y="79.49" as="targetPoint" />
            <mxPoint x="1730" y="49.489999999999775" as="sourcePoint" />
          </mxGeometry>
        </mxCell>
        <mxCell id="_ACzCQE8blFFiLmsyVWc-28" style="edgeStyle=orthogonalEdgeStyle;rounded=0;orthogonalLoop=1;jettySize=auto;html=1;entryX=0.5;entryY=1;entryDx=0;entryDy=0;strokeWidth=2;endArrow=none;startFill=0;" parent="1" source="sZgTdZ2AV089rUdlqtD1-41" target="sZgTdZ2AV089rUdlqtD1-28" edge="1">
          <mxGeometry relative="1" as="geometry" />
        </mxCell>
        <mxCell id="sZgTdZ2AV089rUdlqtD1-41" value="Заказ принят" style="rhombus;whiteSpace=wrap;html=1;strokeWidth=2;rounded=0;fontFamily=Times New Roman;movable=1;resizable=1;rotatable=1;deletable=1;editable=1;locked=0;connectable=1;fontSize=18;fontStyle=1" parent="1" vertex="1">
          <mxGeometry x="1570" width="160" height="80" as="geometry" />
        </mxCell>
        <mxCell id="sZgTdZ2AV089rUdlqtD1-52" value="1" style="ellipse;whiteSpace=wrap;html=1;aspect=fixed;rounded=0;fontFamily=Times New Roman;movable=1;resizable=1;rotatable=1;deletable=1;editable=1;locked=0;connectable=1;strokeWidth=2;fontSize=18;fontStyle=1" parent="1" vertex="1">
          <mxGeometry x="1380" y="360" width="40" height="40" as="geometry" />
        </mxCell>
        <mxCell id="sZgTdZ2AV089rUdlqtD1-94" style="edgeStyle=orthogonalEdgeStyle;rounded=0;orthogonalLoop=1;jettySize=auto;html=1;exitX=1;exitY=0.5;exitDx=0;exitDy=0;entryX=0.5;entryY=0;entryDx=0;entryDy=0;curved=0;endArrow=none;startFill=0;fontFamily=Verdana;movable=1;resizable=1;rotatable=1;deletable=1;editable=1;locked=0;connectable=1;strokeWidth=2;" parent="1" source="_ACzCQE8blFFiLmsyVWc-45" target="sZgTdZ2AV089rUdlqtD1-103" edge="1">
          <mxGeometry relative="1" as="geometry">
            <Array as="points">
              <mxPoint x="2270" y="160" />
            </Array>
            <mxPoint x="1819.999999999999" y="699.9999999999995" as="sourcePoint" />
          </mxGeometry>
        </mxCell>
        <mxCell id="sZgTdZ2AV089rUdlqtD1-101" value="Заказ отменен" style="rounded=0;whiteSpace=wrap;html=1;align=center;fontFamily=Times New Roman;movable=1;resizable=1;rotatable=1;deletable=1;editable=1;locked=0;connectable=1;fontSize=18;fontStyle=1;strokeWidth=2;" parent="1" vertex="1">
          <mxGeometry x="2370" y="241.25" width="160" height="80" as="geometry" />
        </mxCell>
        <mxCell id="_ACzCQE8blFFiLmsyVWc-32" style="edgeStyle=orthogonalEdgeStyle;rounded=0;orthogonalLoop=1;jettySize=auto;html=1;entryX=0.5;entryY=1;entryDx=0;entryDy=0;strokeWidth=2;endArrow=none;startFill=0;" parent="1" source="sZgTdZ2AV089rUdlqtD1-120" target="_ACzCQE8blFFiLmsyVWc-29" edge="1">
          <mxGeometry relative="1" as="geometry" />
        </mxCell>
        <mxCell id="sZgTdZ2AV089rUdlqtD1-120" value="Закрепление сотрудника" style="rounded=0;whiteSpace=wrap;html=1;align=center;fontFamily=Times New Roman;movable=1;resizable=1;rotatable=1;deletable=1;editable=1;locked=0;connectable=1;fontSize=18;fontStyle=1;strokeWidth=2;" parent="1" vertex="1">
          <mxGeometry x="1570" y="240" width="160" height="80" as="geometry" />
        </mxCell>
        <mxCell id="sZgTdZ2AV089rUdlqtD1-121" value="&lt;p&gt;&lt;font&gt;Алгоритм распределения заказов между сотрудниками&lt;/font&gt;&lt;/p&gt;" style="text;whiteSpace=wrap;html=1;verticalAlign=middle;fontFamily=Verdana;fontStyle=1;fontSize=60;movable=1;resizable=1;rotatable=1;deletable=1;editable=1;locked=0;connectable=1;align=center;" parent="1" vertex="1">
          <mxGeometry x="2710" y="-531" width="1492" height="161" as="geometry" />
        </mxCell>
        <mxCell id="sZgTdZ2AV089rUdlqtD1-128" style="edgeStyle=orthogonalEdgeStyle;rounded=1;orthogonalLoop=1;jettySize=auto;html=1;exitX=0.5;exitY=1;exitDx=0;exitDy=0;entryX=0.5;entryY=0;entryDx=0;entryDy=0;endArrow=none;startFill=0;fontFamily=Verdana;movable=1;resizable=1;rotatable=1;deletable=1;editable=1;locked=0;connectable=1;strokeWidth=2;" parent="1" source="_ACzCQE8blFFiLmsyVWc-79" target="sZgTdZ2AV089rUdlqtD1-127" edge="1">
          <mxGeometry relative="1" as="geometry">
            <mxPoint x="2977" y="-280" as="sourcePoint" />
          </mxGeometry>
        </mxCell>
        <mxCell id="sZgTdZ2AV089rUdlqtD1-129" style="edgeStyle=orthogonalEdgeStyle;rounded=1;orthogonalLoop=1;jettySize=auto;html=1;entryX=0.5;entryY=1;entryDx=0;entryDy=0;endArrow=none;startFill=0;fontFamily=Verdana;movable=1;resizable=1;rotatable=1;deletable=1;editable=1;locked=0;connectable=1;strokeWidth=2;" parent="1" source="sZgTdZ2AV089rUdlqtD1-123" target="sZgTdZ2AV089rUdlqtD1-127" edge="1">
          <mxGeometry relative="1" as="geometry" />
        </mxCell>
        <mxCell id="sZgTdZ2AV089rUdlqtD1-123" value="&lt;font style=&quot;font-size: 18px;&quot; face=&quot;Times New Roman&quot;&gt;&lt;b&gt;Получение списка сотрудников&lt;/b&gt;&lt;/font&gt;" style="shape=process;whiteSpace=wrap;html=1;backgroundOutline=1;align=center;fontFamily=Verdana;rounded=0;movable=1;resizable=1;rotatable=1;deletable=1;editable=1;locked=0;connectable=1;strokeWidth=2;" parent="1" vertex="1">
          <mxGeometry x="2887" y="-120" width="160" height="80" as="geometry" />
        </mxCell>
        <mxCell id="sZgTdZ2AV089rUdlqtD1-126" value="Получаем из БД список&lt;div&gt;сотрудников в филиале&lt;/div&gt;" style="text;html=1;align=left;verticalAlign=middle;resizable=1;points=[];autosize=1;strokeColor=none;fillColor=none;fontFamily=Times New Roman;movable=1;rotatable=1;deletable=1;editable=1;locked=0;connectable=1;fontSize=18;fontStyle=1" parent="1" vertex="1">
          <mxGeometry x="3130" y="-110" width="200" height="60" as="geometry" />
        </mxCell>
        <mxCell id="sZgTdZ2AV089rUdlqtD1-127" value="Получение&lt;div&gt;нового&lt;/div&gt;&lt;div&gt;заказа&lt;/div&gt;" style="shape=process;whiteSpace=wrap;html=1;backgroundOutline=1;align=center;fontFamily=Times New Roman;rounded=0;movable=1;resizable=1;rotatable=1;deletable=1;editable=1;locked=0;connectable=1;fontSize=18;fontStyle=1;strokeWidth=2;" parent="1" vertex="1">
          <mxGeometry x="2887" y="-240" width="160" height="80" as="geometry" />
        </mxCell>
        <mxCell id="_ACzCQE8blFFiLmsyVWc-83" style="edgeStyle=orthogonalEdgeStyle;rounded=0;orthogonalLoop=1;jettySize=auto;html=1;entryX=0.5;entryY=1;entryDx=0;entryDy=0;strokeWidth=2;endArrow=none;startFill=0;" parent="1" source="sZgTdZ2AV089rUdlqtD1-133" target="sZgTdZ2AV089rUdlqtD1-123" edge="1">
          <mxGeometry relative="1" as="geometry" />
        </mxCell>
        <mxCell id="sZgTdZ2AV089rUdlqtD1-133" value="&lt;font style=&quot;font-size: 18px;&quot; face=&quot;Times New Roman&quot;&gt;&lt;b&gt;Число&lt;br&gt;сотрудников в филиале&lt;/b&gt;&lt;/font&gt;" style="rounded=0;whiteSpace=wrap;html=1;fontFamily=Verdana;movable=1;resizable=1;rotatable=1;deletable=1;editable=1;locked=0;connectable=1;strokeWidth=2;" parent="1" vertex="1">
          <mxGeometry x="2887" width="160" height="80" as="geometry" />
        </mxCell>
        <mxCell id="_ACzCQE8blFFiLmsyVWc-95" style="edgeStyle=orthogonalEdgeStyle;rounded=0;orthogonalLoop=1;jettySize=auto;html=1;entryX=0.5;entryY=0;entryDx=0;entryDy=0;endArrow=none;startFill=0;strokeWidth=2;" parent="1" source="sZgTdZ2AV089rUdlqtD1-135" target="_ACzCQE8blFFiLmsyVWc-87" edge="1">
          <mxGeometry relative="1" as="geometry" />
        </mxCell>
        <mxCell id="sZgTdZ2AV089rUdlqtD1-135" value="Минимальное число заказов" style="rounded=0;whiteSpace=wrap;html=1;fontFamily=Times New Roman;movable=1;resizable=1;rotatable=1;deletable=1;editable=1;locked=0;connectable=1;fontSize=18;fontStyle=1;strokeWidth=2;" parent="1" vertex="1">
          <mxGeometry x="3410" y="-240" width="160" height="80" as="geometry" />
        </mxCell>
        <mxCell id="sZgTdZ2AV089rUdlqtD1-141" style="edgeStyle=orthogonalEdgeStyle;rounded=1;orthogonalLoop=1;jettySize=auto;html=1;exitX=0.5;exitY=1;exitDx=0;exitDy=0;entryX=0.5;entryY=0;entryDx=0;entryDy=0;endArrow=none;startFill=0;fontFamily=Verdana;movable=1;resizable=1;rotatable=1;deletable=1;editable=1;locked=0;connectable=1;strokeWidth=2;" parent="1" source="sZgTdZ2AV089rUdlqtD1-139" target="sZgTdZ2AV089rUdlqtD1-135" edge="1">
          <mxGeometry relative="1" as="geometry">
            <mxPoint x="3490" y="-260" as="targetPoint" />
          </mxGeometry>
        </mxCell>
        <mxCell id="sZgTdZ2AV089rUdlqtD1-139" value="1" style="ellipse;whiteSpace=wrap;html=1;aspect=fixed;rounded=0;fontFamily=Times New Roman;movable=1;resizable=1;rotatable=1;deletable=1;editable=1;locked=0;connectable=1;fontSize=18;fontStyle=1;strokeWidth=2;" parent="1" vertex="1">
          <mxGeometry x="3470" y="-320" width="40" height="40" as="geometry" />
        </mxCell>
        <mxCell id="CLZdvBLHJ7PR2_3X5Nru-18" style="edgeStyle=orthogonalEdgeStyle;rounded=0;orthogonalLoop=1;jettySize=auto;html=1;endArrow=classic;startFill=0;strokeWidth=2;endFill=1;" parent="1" source="sZgTdZ2AV089rUdlqtD1-142" edge="1">
          <mxGeometry relative="1" as="geometry">
            <mxPoint x="3380" y="-80" as="targetPoint" />
            <Array as="points">
              <mxPoint x="3490" y="240" />
              <mxPoint x="3380" y="240" />
              <mxPoint x="3380" y="40" />
            </Array>
          </mxGeometry>
        </mxCell>
        <mxCell id="sZgTdZ2AV089rUdlqtD1-142" value="Выбор&lt;br&gt;сотрудника" style="rounded=0;whiteSpace=wrap;html=1;fontFamily=Times New Roman;movable=1;resizable=1;rotatable=1;deletable=1;editable=1;locked=0;connectable=1;fontSize=18;fontStyle=1;strokeWidth=2;" parent="1" vertex="1">
          <mxGeometry x="3410" y="120" width="160" height="80" as="geometry" />
        </mxCell>
        <mxCell id="CLZdvBLHJ7PR2_3X5Nru-4" style="edgeStyle=orthogonalEdgeStyle;rounded=0;orthogonalLoop=1;jettySize=auto;html=1;entryX=1;entryY=0.5;entryDx=0;entryDy=0;strokeWidth=2;endArrow=none;startFill=1;endFill=1;startArrow=classic;" parent="1" target="sZgTdZ2AV089rUdlqtD1-137" edge="1">
          <mxGeometry relative="1" as="geometry">
            <mxPoint x="3490" y="220" as="sourcePoint" />
            <Array as="points">
              <mxPoint x="3620" y="40" />
            </Array>
          </mxGeometry>
        </mxCell>
        <mxCell id="sZgTdZ2AV089rUdlqtD1-164" style="edgeStyle=orthogonalEdgeStyle;rounded=1;orthogonalLoop=1;jettySize=auto;html=1;exitX=0.5;exitY=1;exitDx=0;exitDy=0;entryX=0.5;entryY=0;entryDx=0;entryDy=0;endArrow=none;startFill=0;fontFamily=Verdana;movable=1;resizable=1;rotatable=1;deletable=1;editable=1;locked=0;connectable=1;strokeWidth=2;" parent="1" source="sZgTdZ2AV089rUdlqtD1-166" target="sZgTdZ2AV089rUdlqtD1-156" edge="1">
          <mxGeometry relative="1" as="geometry" />
        </mxCell>
        <mxCell id="CLZdvBLHJ7PR2_3X5Nru-17" style="edgeStyle=orthogonalEdgeStyle;rounded=0;orthogonalLoop=1;jettySize=auto;html=1;entryX=0.5;entryY=0;entryDx=0;entryDy=0;strokeWidth=2;endArrow=none;startFill=0;" parent="1" source="sZgTdZ2AV089rUdlqtD1-156" target="_ACzCQE8blFFiLmsyVWc-80" edge="1">
          <mxGeometry relative="1" as="geometry" />
        </mxCell>
        <mxCell id="sZgTdZ2AV089rUdlqtD1-156" value="Вывод&lt;br&gt;сотрудника" style="shape=parallelogram;perimeter=parallelogramPerimeter;whiteSpace=wrap;html=1;fixedSize=1;rounded=0;fontFamily=Times New Roman;movable=1;resizable=1;rotatable=1;deletable=1;editable=1;locked=0;connectable=1;fontSize=18;fontStyle=1;strokeWidth=2;" parent="1" vertex="1">
          <mxGeometry x="3710" y="-120" width="160" height="80" as="geometry" />
        </mxCell>
        <mxCell id="sZgTdZ2AV089rUdlqtD1-161" style="edgeStyle=orthogonalEdgeStyle;rounded=1;orthogonalLoop=1;jettySize=auto;html=1;exitX=0;exitY=0.5;exitDx=0;exitDy=0;exitPerimeter=0;entryX=1;entryY=0.5;entryDx=0;entryDy=0;endArrow=none;startFill=0;dashed=1;fontFamily=Verdana;movable=1;resizable=1;rotatable=1;deletable=1;editable=1;locked=0;connectable=1;strokeWidth=2;" parent="1" source="sZgTdZ2AV089rUdlqtD1-160" target="sZgTdZ2AV089rUdlqtD1-133" edge="1">
          <mxGeometry relative="1" as="geometry" />
        </mxCell>
        <mxCell id="sZgTdZ2AV089rUdlqtD1-160" value="" style="strokeWidth=2;html=1;shape=mxgraph.flowchart.annotation_2;align=left;labelPosition=right;pointerEvents=1;rounded=1;fontFamily=Verdana;movable=1;resizable=1;rotatable=1;deletable=1;editable=1;locked=0;connectable=1;" parent="1" vertex="1">
          <mxGeometry x="3090" y="15" width="50" height="50" as="geometry" />
        </mxCell>
        <mxCell id="sZgTdZ2AV089rUdlqtD1-162" value="&lt;font style=&quot;font-size: 18px;&quot; face=&quot;Times New Roman&quot;&gt;&lt;b&gt;Число n&lt;/b&gt;&lt;/font&gt;" style="text;html=1;align=center;verticalAlign=middle;resizable=1;points=[];autosize=1;strokeColor=none;fillColor=none;fontFamily=Verdana;movable=1;rotatable=1;deletable=1;editable=1;locked=0;connectable=1;" parent="1" vertex="1">
          <mxGeometry x="3119" y="20" width="90" height="40" as="geometry" />
        </mxCell>
        <mxCell id="sZgTdZ2AV089rUdlqtD1-172" style="edgeStyle=orthogonalEdgeStyle;rounded=0;orthogonalLoop=1;jettySize=auto;html=1;curved=0;endArrow=none;startFill=0;fontFamily=Verdana;movable=1;resizable=1;rotatable=1;deletable=1;editable=1;locked=0;connectable=1;strokeWidth=2;" parent="1" source="sZgTdZ2AV089rUdlqtD1-166" target="sZgTdZ2AV089rUdlqtD1-170" edge="1">
          <mxGeometry relative="1" as="geometry" />
        </mxCell>
        <mxCell id="sZgTdZ2AV089rUdlqtD1-166" value="Выбран&lt;br&gt;сотрудник" style="rhombus;whiteSpace=wrap;html=1;rounded=0;fontStyle=1;fontFamily=Times New Roman;movable=1;resizable=1;rotatable=1;deletable=1;editable=1;locked=0;connectable=1;fontSize=18;strokeWidth=2;" parent="1" vertex="1">
          <mxGeometry x="3710" y="-240" width="160" height="80" as="geometry" />
        </mxCell>
        <mxCell id="sZgTdZ2AV089rUdlqtD1-170" value="&lt;font style=&quot;font-size: 17px;&quot;&gt;Сообщение&lt;/font&gt;&lt;div&gt;&lt;font style=&quot;font-size: 17px;&quot;&gt;&quot;Нет свободных сотрудников&quot;&lt;/font&gt;&lt;/div&gt;" style="shape=parallelogram;perimeter=parallelogramPerimeter;whiteSpace=wrap;html=1;fixedSize=1;rounded=0;fontFamily=Times New Roman;movable=1;resizable=1;rotatable=1;deletable=1;editable=1;locked=0;connectable=1;fontSize=18;fontStyle=1;strokeWidth=2;" parent="1" vertex="1">
          <mxGeometry x="3910" y="-120" width="160" height="80" as="geometry" />
        </mxCell>
        <mxCell id="sZgTdZ2AV089rUdlqtD1-171" style="edgeStyle=orthogonalEdgeStyle;rounded=0;orthogonalLoop=1;jettySize=auto;html=1;curved=0;endArrow=classic;startFill=0;fontFamily=Verdana;movable=1;resizable=1;rotatable=1;deletable=1;editable=1;locked=0;connectable=1;strokeWidth=2;endFill=1;" parent="1" source="sZgTdZ2AV089rUdlqtD1-170" edge="1">
          <mxGeometry relative="1" as="geometry">
            <Array as="points">
              <mxPoint x="3990" y="-20" />
            </Array>
            <mxPoint x="3790" y="-20" as="targetPoint" />
          </mxGeometry>
        </mxCell>
        <mxCell id="sZgTdZ2AV089rUdlqtD1-174" value="&lt;span data-start=&quot;257&quot; data-end=&quot;330&quot;&gt;Алгоритм управления запасами на складе&lt;/span&gt;" style="text;whiteSpace=wrap;html=1;fontFamily=Verdana;fontStyle=1;fontSize=60;align=center;movable=1;resizable=1;rotatable=1;deletable=1;editable=1;locked=0;connectable=1;verticalAlign=bottom;" parent="1" vertex="1">
          <mxGeometry x="4276" y="-463" width="1610" height="93" as="geometry" />
        </mxCell>
        <mxCell id="sZgTdZ2AV089rUdlqtD1-240" value="&lt;span data-start=&quot;180&quot; data-end=&quot;253&quot;&gt;Алгоритм формирования отчетов по заказам&amp;nbsp;&lt;/span&gt;" style="text;whiteSpace=wrap;html=1;fontFamily=Verdana;fontStyle=1;fontSize=60;align=center;movable=1;resizable=1;rotatable=1;deletable=1;editable=1;locked=0;connectable=1;verticalAlign=bottom;" parent="1" vertex="1">
          <mxGeometry x="6000" y="-450" width="1630" height="80" as="geometry" />
        </mxCell>
        <mxCell id="QvxtqPu8qyB4Hp5iw3jF-130" style="edgeStyle=orthogonalEdgeStyle;rounded=0;orthogonalLoop=1;jettySize=auto;html=1;entryX=0.5;entryY=1;entryDx=0;entryDy=0;fontFamily=Times New Roman;fontSize=18;fontColor=default;fontStyle=1;resizable=1;strokeWidth=2;endArrow=none;startFill=0;" edge="1" parent="1" source="sZgTdZ2AV089rUdlqtD1-242" target="QvxtqPu8qyB4Hp5iw3jF-127">
          <mxGeometry relative="1" as="geometry">
            <mxPoint x="6387" y="-281.2500000000002" as="targetPoint" />
          </mxGeometry>
        </mxCell>
        <mxCell id="sZgTdZ2AV089rUdlqtD1-242" value="Дата начала выборки" style="shape=parallelogram;perimeter=parallelogramPerimeter;whiteSpace=wrap;html=1;fixedSize=1;rounded=0;fontFamily=Times New Roman;movable=1;resizable=1;rotatable=1;deletable=1;editable=1;locked=0;connectable=1;fontSize=18;fontStyle=1;strokeWidth=2;" parent="1" vertex="1">
          <mxGeometry x="6307" y="-240" width="160" height="80" as="geometry" />
        </mxCell>
        <mxCell id="QvxtqPu8qyB4Hp5iw3jF-131" style="edgeStyle=orthogonalEdgeStyle;rounded=0;orthogonalLoop=1;jettySize=auto;html=1;entryX=0.5;entryY=1;entryDx=0;entryDy=0;fontFamily=Times New Roman;fontSize=18;fontColor=default;fontStyle=1;resizable=1;strokeWidth=2;endArrow=none;startFill=0;" edge="1" parent="1" source="sZgTdZ2AV089rUdlqtD1-243" target="sZgTdZ2AV089rUdlqtD1-242">
          <mxGeometry relative="1" as="geometry" />
        </mxCell>
        <mxCell id="QvxtqPu8qyB4Hp5iw3jF-135" style="edgeStyle=orthogonalEdgeStyle;rounded=0;orthogonalLoop=1;jettySize=auto;html=1;entryX=0.5;entryY=0;entryDx=0;entryDy=0;fontFamily=Times New Roman;fontSize=18;fontColor=default;fontStyle=1;resizable=1;strokeWidth=2;endArrow=none;startFill=0;" edge="1" parent="1" source="sZgTdZ2AV089rUdlqtD1-243" target="sZgTdZ2AV089rUdlqtD1-244">
          <mxGeometry relative="1" as="geometry" />
        </mxCell>
        <mxCell id="sZgTdZ2AV089rUdlqtD1-243" value="Дата конца&lt;br&gt;выборки" style="shape=parallelogram;perimeter=parallelogramPerimeter;whiteSpace=wrap;html=1;fixedSize=1;rounded=0;fontFamily=Times New Roman;movable=1;resizable=1;rotatable=1;deletable=1;editable=1;locked=0;connectable=1;fontSize=18;fontStyle=1;strokeWidth=2;" parent="1" vertex="1">
          <mxGeometry x="6307" y="-120" width="160" height="80" as="geometry" />
        </mxCell>
        <mxCell id="ucU8Fq2Tyw5uj5B-TA47-3" style="edgeStyle=orthogonalEdgeStyle;rounded=0;orthogonalLoop=1;jettySize=auto;html=1;entryX=0.5;entryY=0;entryDx=0;entryDy=0;endArrow=none;startFill=0;fontFamily=Verdana;movable=1;resizable=1;rotatable=1;deletable=1;editable=1;locked=0;connectable=1;strokeWidth=2;" parent="1" source="sZgTdZ2AV089rUdlqtD1-244" target="ucU8Fq2Tyw5uj5B-TA47-2" edge="1">
          <mxGeometry relative="1" as="geometry" />
        </mxCell>
        <mxCell id="ucU8Fq2Tyw5uj5B-TA47-10" style="edgeStyle=orthogonalEdgeStyle;rounded=0;orthogonalLoop=1;jettySize=auto;html=1;entryX=0.5;entryY=0;entryDx=0;entryDy=0;endArrow=none;startFill=0;fontFamily=Verdana;movable=1;resizable=1;rotatable=1;deletable=1;editable=1;locked=0;connectable=1;strokeWidth=2;" parent="1" source="ucU8Fq2Tyw5uj5B-TA47-2" target="QvxtqPu8qyB4Hp5iw3jF-197" edge="1">
          <mxGeometry relative="1" as="geometry">
            <mxPoint x="6387" y="240" as="targetPoint" />
          </mxGeometry>
        </mxCell>
        <mxCell id="ucU8Fq2Tyw5uj5B-TA47-2" value="Отправка запроса к БД" style="shape=process;whiteSpace=wrap;html=1;backgroundOutline=1;fontFamily=Times New Roman;movable=1;resizable=1;rotatable=1;deletable=1;editable=1;locked=0;connectable=1;strokeWidth=2;fontStyle=1;fontSize=18;" parent="1" vertex="1">
          <mxGeometry x="6307" y="121.25" width="160" height="80" as="geometry" />
        </mxCell>
        <mxCell id="ucU8Fq2Tyw5uj5B-TA47-8" value="Запрос к БД на вывод&lt;div&gt;данных из таблиц&amp;nbsp;&lt;span style=&quot;background-color: transparent; color: light-dark(rgb(0, 0, 0), rgb(255, 255, 255));&quot;&gt;заказов&lt;/span&gt;&lt;/div&gt;&lt;div&gt;&lt;span style=&quot;background-color: transparent; color: light-dark(rgb(0, 0, 0), rgb(255, 255, 255));&quot;&gt;из указанного диапазона дат&lt;/span&gt;&lt;/div&gt;" style="text;html=1;align=right;verticalAlign=middle;resizable=1;points=[];autosize=1;strokeColor=none;fillColor=none;fontFamily=Times New Roman;movable=1;rotatable=1;deletable=1;editable=1;locked=0;connectable=1;fontStyle=1;fontSize=18;" parent="1" vertex="1">
          <mxGeometry x="5980" y="120" width="240" height="80" as="geometry" />
        </mxCell>
        <mxCell id="ucU8Fq2Tyw5uj5B-TA47-17" style="edgeStyle=orthogonalEdgeStyle;rounded=0;orthogonalLoop=1;jettySize=auto;html=1;entryX=0.5;entryY=0;entryDx=0;entryDy=0;endArrow=none;startFill=0;fontFamily=Verdana;movable=1;resizable=1;rotatable=1;deletable=1;editable=1;locked=0;connectable=1;strokeWidth=2;" parent="1" source="ucU8Fq2Tyw5uj5B-TA47-18" target="ucU8Fq2Tyw5uj5B-TA47-20" edge="1">
          <mxGeometry relative="1" as="geometry" />
        </mxCell>
        <mxCell id="ucU8Fq2Tyw5uj5B-TA47-25" style="edgeStyle=orthogonalEdgeStyle;rounded=0;orthogonalLoop=1;jettySize=auto;html=1;exitX=1;exitY=0.5;exitDx=0;exitDy=0;entryX=0.5;entryY=0;entryDx=0;entryDy=0;fontFamily=Verdana;movable=1;resizable=1;rotatable=1;deletable=1;editable=1;locked=0;connectable=1;strokeWidth=2;endArrow=none;startFill=0;" parent="1" source="ucU8Fq2Tyw5uj5B-TA47-18" target="ucU8Fq2Tyw5uj5B-TA47-19" edge="1">
          <mxGeometry relative="1" as="geometry" />
        </mxCell>
        <mxCell id="ucU8Fq2Tyw5uj5B-TA47-18" value="Результат" style="rhombus;whiteSpace=wrap;html=1;fontFamily=Times New Roman;movable=1;resizable=1;rotatable=1;deletable=1;editable=1;locked=0;connectable=1;fontSize=18;fontStyle=1;strokeWidth=2;" parent="1" vertex="1">
          <mxGeometry x="6730.05" y="-141.25" width="160" height="80" as="geometry" />
        </mxCell>
        <mxCell id="QvxtqPu8qyB4Hp5iw3jF-182" style="edgeStyle=orthogonalEdgeStyle;rounded=0;orthogonalLoop=1;jettySize=auto;html=1;fontFamily=Times New Roman;fontSize=18;fontColor=default;fontStyle=1;resizable=1;strokeWidth=2;endArrow=none;startFill=0;" edge="1" parent="1" source="ucU8Fq2Tyw5uj5B-TA47-19" target="QvxtqPu8qyB4Hp5iw3jF-181">
          <mxGeometry relative="1" as="geometry" />
        </mxCell>
        <mxCell id="ucU8Fq2Tyw5uj5B-TA47-19" value="&lt;div&gt;Ошибка при выполнении&lt;/div&gt;" style="shape=parallelogram;perimeter=parallelogramPerimeter;whiteSpace=wrap;html=1;fixedSize=1;fontFamily=Times New Roman;movable=1;resizable=1;rotatable=1;deletable=1;editable=1;locked=0;connectable=1;fontSize=18;fontStyle=1;strokeWidth=2;" parent="1" vertex="1">
          <mxGeometry x="6930.05" y="-21.25" width="160" height="80" as="geometry" />
        </mxCell>
        <mxCell id="ucU8Fq2Tyw5uj5B-TA47-33" style="edgeStyle=orthogonalEdgeStyle;rounded=0;orthogonalLoop=1;jettySize=auto;html=1;entryX=0.5;entryY=0;entryDx=0;entryDy=0;fontFamily=Verdana;movable=1;resizable=1;rotatable=1;deletable=1;editable=1;locked=0;connectable=1;strokeWidth=2;endArrow=none;startFill=0;" parent="1" source="ucU8Fq2Tyw5uj5B-TA47-20" target="ucU8Fq2Tyw5uj5B-TA47-31" edge="1">
          <mxGeometry relative="1" as="geometry" />
        </mxCell>
        <mxCell id="ucU8Fq2Tyw5uj5B-TA47-20" value="Выполнен&lt;div&gt;успешно&lt;/div&gt;" style="rounded=0;whiteSpace=wrap;html=1;fontFamily=Times New Roman;movable=1;resizable=1;rotatable=1;deletable=1;editable=1;locked=0;connectable=1;fontSize=18;fontStyle=1;strokeWidth=2;" parent="1" vertex="1">
          <mxGeometry x="6730.05" y="-21.25" width="160" height="80" as="geometry" />
        </mxCell>
        <mxCell id="QvxtqPu8qyB4Hp5iw3jF-193" style="edgeStyle=orthogonalEdgeStyle;rounded=0;orthogonalLoop=1;jettySize=auto;html=1;fontFamily=Times New Roman;fontSize=18;fontColor=default;fontStyle=1;resizable=1;strokeWidth=2;endArrow=none;startFill=0;" edge="1" parent="1" source="ucU8Fq2Tyw5uj5B-TA47-30">
          <mxGeometry relative="1" as="geometry">
            <mxPoint x="7490" y="230" as="targetPoint" />
          </mxGeometry>
        </mxCell>
        <mxCell id="ucU8Fq2Tyw5uj5B-TA47-30" value="2" style="ellipse;whiteSpace=wrap;html=1;aspect=fixed;rounded=0;fontFamily=Times New Roman;movable=1;resizable=1;rotatable=1;deletable=1;editable=1;locked=0;connectable=1;strokeWidth=2;fontSize=18;fontStyle=1" parent="1" vertex="1">
          <mxGeometry x="7410" y="210" width="40" height="40" as="geometry" />
        </mxCell>
        <mxCell id="ucU8Fq2Tyw5uj5B-TA47-35" style="edgeStyle=orthogonalEdgeStyle;rounded=0;orthogonalLoop=1;jettySize=auto;html=1;entryX=0.5;entryY=0;entryDx=0;entryDy=0;endArrow=none;startFill=0;fontFamily=Verdana;movable=1;resizable=1;rotatable=1;deletable=1;editable=1;locked=0;connectable=1;strokeWidth=2;" parent="1" source="ucU8Fq2Tyw5uj5B-TA47-31" target="ucU8Fq2Tyw5uj5B-TA47-34" edge="1">
          <mxGeometry relative="1" as="geometry" />
        </mxCell>
        <mxCell id="QvxtqPu8qyB4Hp5iw3jF-161" style="edgeStyle=orthogonalEdgeStyle;rounded=0;orthogonalLoop=1;jettySize=auto;html=1;entryX=0;entryY=0.5;entryDx=0;entryDy=0;fontFamily=Times New Roman;fontSize=18;fontColor=default;fontStyle=1;resizable=1;strokeWidth=2;endArrow=none;startFill=0;" edge="1" parent="1" source="ucU8Fq2Tyw5uj5B-TA47-31" target="QvxtqPu8qyB4Hp5iw3jF-159">
          <mxGeometry relative="1" as="geometry" />
        </mxCell>
        <mxCell id="QvxtqPu8qyB4Hp5iw3jF-153" style="edgeStyle=orthogonalEdgeStyle;rounded=0;orthogonalLoop=1;jettySize=auto;html=1;entryX=0;entryY=0.5;entryDx=0;entryDy=0;fontFamily=Times New Roman;fontSize=18;fontColor=default;fontStyle=1;resizable=1;endArrow=none;startFill=0;strokeWidth=2;" edge="1" parent="1" source="ucU8Fq2Tyw5uj5B-TA47-34" target="ucU8Fq2Tyw5uj5B-TA47-31">
          <mxGeometry relative="1" as="geometry">
            <Array as="points">
              <mxPoint x="6810.05" y="338.75" />
              <mxPoint x="6700.05" y="338.75" />
              <mxPoint x="6700.05" y="138.75" />
            </Array>
          </mxGeometry>
        </mxCell>
        <mxCell id="ucU8Fq2Tyw5uj5B-TA47-34" value="&lt;div&gt;Вывод i-й&lt;/div&gt;&lt;div&gt;строки&amp;nbsp;&lt;span style=&quot;background-color: transparent; color: light-dark(rgb(0, 0, 0), rgb(255, 255, 255));&quot;&gt;из БД&lt;/span&gt;&lt;/div&gt;" style="shape=parallelogram;perimeter=parallelogramPerimeter;whiteSpace=wrap;html=1;fixedSize=1;fontFamily=Times New Roman;movable=1;resizable=1;rotatable=1;deletable=1;editable=1;locked=0;connectable=1;fontSize=18;fontStyle=1;strokeWidth=2;" parent="1" vertex="1">
          <mxGeometry x="6730.05" y="220" width="160" height="80" as="geometry" />
        </mxCell>
        <mxCell id="ucU8Fq2Tyw5uj5B-TA47-44" style="edgeStyle=orthogonalEdgeStyle;rounded=0;orthogonalLoop=1;jettySize=auto;html=1;entryX=0.5;entryY=1;entryDx=0;entryDy=0;endArrow=none;startFill=0;fontFamily=Verdana;movable=1;resizable=1;rotatable=1;deletable=1;editable=1;locked=0;connectable=1;exitX=0.5;exitY=0;exitDx=0;exitDy=0;strokeWidth=2;" parent="1" target="QvxtqPu8qyB4Hp5iw3jF-162" edge="1" source="ucU8Fq2Tyw5uj5B-TA47-46">
          <mxGeometry relative="1" as="geometry">
            <mxPoint x="7496.999999999999" y="-236.02" as="sourcePoint" />
            <mxPoint x="7500" y="-260.0000000000002" as="targetPoint" />
          </mxGeometry>
        </mxCell>
        <mxCell id="ucU8Fq2Tyw5uj5B-TA47-52" style="edgeStyle=orthogonalEdgeStyle;rounded=0;orthogonalLoop=1;jettySize=auto;html=1;exitX=0.5;exitY=1;exitDx=0;exitDy=0;entryX=0;entryY=0.5;entryDx=0;entryDy=0;endArrow=none;startFill=0;fontFamily=Times New Roman;movable=1;resizable=1;rotatable=1;deletable=1;editable=1;locked=0;connectable=1;strokeWidth=2;fontStyle=1;fontSize=18;" parent="1" source="ucU8Fq2Tyw5uj5B-TA47-46" target="ucU8Fq2Tyw5uj5B-TA47-48" edge="1">
          <mxGeometry relative="1" as="geometry" />
        </mxCell>
        <mxCell id="ucU8Fq2Tyw5uj5B-TA47-53" style="edgeStyle=orthogonalEdgeStyle;rounded=0;orthogonalLoop=1;jettySize=auto;html=1;exitX=0.5;exitY=1;exitDx=0;exitDy=0;entryX=0;entryY=0.5;entryDx=0;entryDy=0;endArrow=none;startFill=0;fontFamily=Times New Roman;movable=1;resizable=1;rotatable=1;deletable=1;editable=1;locked=0;connectable=1;strokeWidth=2;fontStyle=1;fontSize=18;" parent="1" source="ucU8Fq2Tyw5uj5B-TA47-46" target="ucU8Fq2Tyw5uj5B-TA47-49" edge="1">
          <mxGeometry relative="1" as="geometry" />
        </mxCell>
        <mxCell id="ucU8Fq2Tyw5uj5B-TA47-54" style="edgeStyle=orthogonalEdgeStyle;rounded=0;orthogonalLoop=1;jettySize=auto;html=1;exitX=0.5;exitY=1;exitDx=0;exitDy=0;entryX=0;entryY=0.5;entryDx=0;entryDy=0;endArrow=none;startFill=0;fontFamily=Times New Roman;movable=1;resizable=1;rotatable=1;deletable=1;editable=1;locked=0;connectable=1;strokeWidth=2;fontStyle=1;fontSize=18;" parent="1" source="ucU8Fq2Tyw5uj5B-TA47-46" target="ucU8Fq2Tyw5uj5B-TA47-50" edge="1">
          <mxGeometry relative="1" as="geometry" />
        </mxCell>
        <mxCell id="QvxtqPu8qyB4Hp5iw3jF-168" style="edgeStyle=orthogonalEdgeStyle;rounded=0;orthogonalLoop=1;jettySize=auto;html=1;entryX=0;entryY=0.5;entryDx=0;entryDy=0;fontFamily=Times New Roman;fontSize=18;fontColor=default;fontStyle=1;resizable=1;endArrow=none;startFill=0;strokeWidth=2;" edge="1" parent="1" source="ucU8Fq2Tyw5uj5B-TA47-46" target="QvxtqPu8qyB4Hp5iw3jF-167">
          <mxGeometry relative="1" as="geometry" />
        </mxCell>
        <mxCell id="ucU8Fq2Tyw5uj5B-TA47-46" value="Возможности" style="rhombus;whiteSpace=wrap;html=1;rounded=0;fontFamily=Times New Roman;movable=1;resizable=1;rotatable=1;deletable=1;editable=1;locked=0;connectable=1;strokeWidth=2;fontSize=18;fontStyle=1" parent="1" vertex="1">
          <mxGeometry x="7050" y="-241.25" width="160" height="80" as="geometry" />
        </mxCell>
        <mxCell id="QvxtqPu8qyB4Hp5iw3jF-180" style="edgeStyle=orthogonalEdgeStyle;rounded=0;orthogonalLoop=1;jettySize=auto;html=1;fontFamily=Times New Roman;fontSize=18;fontColor=default;fontStyle=1;resizable=1;strokeWidth=2;endArrow=none;startFill=0;" edge="1" parent="1" source="ucU8Fq2Tyw5uj5B-TA47-48">
          <mxGeometry relative="1" as="geometry">
            <mxPoint x="7370" y="-80" as="targetPoint" />
          </mxGeometry>
        </mxCell>
        <mxCell id="ucU8Fq2Tyw5uj5B-TA47-48" value="Сортировка" style="shape=process;whiteSpace=wrap;html=1;backgroundOutline=1;fontFamily=Times New Roman;movable=1;resizable=1;rotatable=1;deletable=1;editable=1;locked=0;connectable=1;strokeWidth=2;fontStyle=1;fontSize=18;" parent="1" vertex="1">
          <mxGeometry x="7170" y="-120" width="160" height="80" as="geometry" />
        </mxCell>
        <mxCell id="QvxtqPu8qyB4Hp5iw3jF-179" style="edgeStyle=orthogonalEdgeStyle;rounded=0;orthogonalLoop=1;jettySize=auto;html=1;fontFamily=Times New Roman;fontSize=18;fontColor=default;fontStyle=1;resizable=1;strokeWidth=2;endArrow=none;startFill=0;" edge="1" parent="1" source="ucU8Fq2Tyw5uj5B-TA47-49">
          <mxGeometry relative="1" as="geometry">
            <mxPoint x="7370" y="40" as="targetPoint" />
          </mxGeometry>
        </mxCell>
        <mxCell id="ucU8Fq2Tyw5uj5B-TA47-49" value="Фильтрация" style="shape=process;whiteSpace=wrap;html=1;backgroundOutline=1;fontFamily=Times New Roman;movable=1;resizable=1;rotatable=1;deletable=1;editable=1;locked=0;connectable=1;strokeWidth=2;fontStyle=1;fontSize=18;" parent="1" vertex="1">
          <mxGeometry x="7170" width="160" height="80" as="geometry" />
        </mxCell>
        <mxCell id="QvxtqPu8qyB4Hp5iw3jF-178" style="edgeStyle=orthogonalEdgeStyle;rounded=0;orthogonalLoop=1;jettySize=auto;html=1;fontFamily=Times New Roman;fontSize=18;fontColor=default;fontStyle=1;resizable=1;strokeWidth=2;endArrow=none;startFill=0;" edge="1" parent="1" source="ucU8Fq2Tyw5uj5B-TA47-50">
          <mxGeometry relative="1" as="geometry">
            <mxPoint x="7370" y="160" as="targetPoint" />
          </mxGeometry>
        </mxCell>
        <mxCell id="ucU8Fq2Tyw5uj5B-TA47-50" value="Скачиваниие" style="shape=process;whiteSpace=wrap;html=1;backgroundOutline=1;fontFamily=Times New Roman;movable=1;resizable=1;rotatable=1;deletable=1;editable=1;locked=0;connectable=1;strokeWidth=2;fontStyle=1;fontSize=18;" parent="1" vertex="1">
          <mxGeometry x="7170" y="120" width="160" height="80" as="geometry" />
        </mxCell>
        <mxCell id="ucU8Fq2Tyw5uj5B-TA47-75" style="edgeStyle=orthogonalEdgeStyle;rounded=0;orthogonalLoop=1;jettySize=auto;html=1;exitX=0.5;exitY=1;exitDx=0;exitDy=0;entryX=0.5;entryY=0;entryDx=0;entryDy=0;endArrow=none;startFill=0;fontFamily=Verdana;movable=1;resizable=1;rotatable=1;deletable=1;editable=1;locked=0;connectable=1;strokeWidth=2;" parent="1" source="ucU8Fq2Tyw5uj5B-TA47-61" target="ucU8Fq2Tyw5uj5B-TA47-62" edge="1">
          <mxGeometry relative="1" as="geometry" />
        </mxCell>
        <mxCell id="ucU8Fq2Tyw5uj5B-TA47-61" value="4" style="ellipse;whiteSpace=wrap;html=1;aspect=fixed;rounded=0;fontFamily=Times New Roman;movable=1;resizable=1;rotatable=1;deletable=1;editable=1;locked=0;connectable=1;fontSize=18;fontStyle=1;strokeWidth=2;" parent="1" vertex="1">
          <mxGeometry x="7470" y="-320" width="40" height="40" as="geometry" />
        </mxCell>
        <mxCell id="ucU8Fq2Tyw5uj5B-TA47-63" style="edgeStyle=orthogonalEdgeStyle;rounded=0;orthogonalLoop=1;jettySize=auto;html=1;exitX=1;exitY=0.5;exitDx=0;exitDy=0;endArrow=none;startFill=0;fontFamily=Verdana;movable=1;resizable=1;rotatable=1;deletable=1;editable=1;locked=0;connectable=1;strokeWidth=2;entryX=0.5;entryY=0;entryDx=0;entryDy=0;" parent="1" source="ucU8Fq2Tyw5uj5B-TA47-62" target="QvxtqPu8qyB4Hp5iw3jF-190" edge="1">
          <mxGeometry relative="1" as="geometry">
            <Array as="points">
              <mxPoint x="7750" y="-210" />
              <mxPoint x="7750" y="230" />
              <mxPoint x="7490" y="230" />
            </Array>
            <mxPoint x="7490" y="160" as="targetPoint" />
          </mxGeometry>
        </mxCell>
        <mxCell id="ucU8Fq2Tyw5uj5B-TA47-67" style="edgeStyle=orthogonalEdgeStyle;rounded=0;orthogonalLoop=1;jettySize=auto;html=1;exitX=0.5;exitY=1;exitDx=0;exitDy=0;entryX=0.5;entryY=0;entryDx=0;entryDy=0;endArrow=none;startFill=0;fontFamily=Verdana;movable=1;resizable=1;rotatable=1;deletable=1;editable=1;locked=0;connectable=1;strokeWidth=2;" parent="1" source="ucU8Fq2Tyw5uj5B-TA47-62" target="ucU8Fq2Tyw5uj5B-TA47-66" edge="1">
          <mxGeometry relative="1" as="geometry" />
        </mxCell>
        <mxCell id="ucU8Fq2Tyw5uj5B-TA47-62" value="Печать" style="rhombus;whiteSpace=wrap;html=1;rounded=0;fontFamily=Times New Roman;movable=1;resizable=1;rotatable=1;deletable=1;editable=1;locked=0;connectable=1;strokeWidth=2;fontStyle=1;fontSize=18;" parent="1" vertex="1">
          <mxGeometry x="7410" y="-250" width="160" height="80" as="geometry" />
        </mxCell>
        <mxCell id="ucU8Fq2Tyw5uj5B-TA47-71" style="edgeStyle=orthogonalEdgeStyle;rounded=0;orthogonalLoop=1;jettySize=auto;html=1;exitX=0.5;exitY=1;exitDx=0;exitDy=0;entryX=0;entryY=0.5;entryDx=0;entryDy=0;endArrow=none;startFill=0;fontFamily=Verdana;movable=1;resizable=1;rotatable=1;deletable=1;editable=1;locked=0;connectable=1;strokeWidth=2;" parent="1" source="ucU8Fq2Tyw5uj5B-TA47-66" target="ucU8Fq2Tyw5uj5B-TA47-68" edge="1">
          <mxGeometry relative="1" as="geometry" />
        </mxCell>
        <mxCell id="ucU8Fq2Tyw5uj5B-TA47-72" style="edgeStyle=orthogonalEdgeStyle;rounded=0;orthogonalLoop=1;jettySize=auto;html=1;exitX=0.5;exitY=1;exitDx=0;exitDy=0;entryX=0;entryY=0.5;entryDx=0;entryDy=0;endArrow=none;startFill=0;fontFamily=Verdana;movable=1;resizable=1;rotatable=1;deletable=1;editable=1;locked=0;connectable=1;strokeWidth=2;" parent="1" source="ucU8Fq2Tyw5uj5B-TA47-66" target="ucU8Fq2Tyw5uj5B-TA47-69" edge="1">
          <mxGeometry relative="1" as="geometry" />
        </mxCell>
        <mxCell id="ucU8Fq2Tyw5uj5B-TA47-66" value="PDF&amp;nbsp;&lt;span style=&quot;background-color: transparent; color: light-dark(rgb(0, 0, 0), rgb(255, 255, 255));&quot;&gt;или&lt;/span&gt;&lt;div&gt;&lt;span style=&quot;background-color: transparent; color: light-dark(rgb(0, 0, 0), rgb(255, 255, 255));&quot;&gt;принтер&lt;/span&gt;&lt;/div&gt;" style="rhombus;whiteSpace=wrap;html=1;rounded=0;fontFamily=Times New Roman;movable=1;resizable=1;rotatable=1;deletable=1;editable=1;locked=0;connectable=1;strokeWidth=2;fontSize=18;fontStyle=1" parent="1" vertex="1">
          <mxGeometry x="7410" y="-130" width="160" height="80" as="geometry" />
        </mxCell>
        <mxCell id="QvxtqPu8qyB4Hp5iw3jF-207" style="edgeStyle=orthogonalEdgeStyle;rounded=0;orthogonalLoop=1;jettySize=auto;html=1;fontFamily=Times New Roman;fontSize=18;fontColor=default;fontStyle=1;resizable=1;strokeWidth=2;endArrow=none;startFill=0;" edge="1" parent="1" source="ucU8Fq2Tyw5uj5B-TA47-68">
          <mxGeometry relative="1" as="geometry">
            <mxPoint x="7750" y="31.25" as="targetPoint" />
          </mxGeometry>
        </mxCell>
        <mxCell id="ucU8Fq2Tyw5uj5B-TA47-68" value="Печать в PDF" style="shape=process;whiteSpace=wrap;html=1;backgroundOutline=1;fontFamily=Times New Roman;movable=1;resizable=1;rotatable=1;deletable=1;editable=1;locked=0;connectable=1;strokeWidth=2;fontSize=18;fontStyle=1" parent="1" vertex="1">
          <mxGeometry x="7550" y="-8.75" width="160" height="80" as="geometry" />
        </mxCell>
        <mxCell id="QvxtqPu8qyB4Hp5iw3jF-192" style="edgeStyle=orthogonalEdgeStyle;rounded=0;orthogonalLoop=1;jettySize=auto;html=1;fontFamily=Times New Roman;fontSize=18;fontColor=default;fontStyle=1;resizable=1;strokeWidth=2;endArrow=none;startFill=0;" edge="1" parent="1" source="ucU8Fq2Tyw5uj5B-TA47-69">
          <mxGeometry relative="1" as="geometry">
            <mxPoint x="7750" y="150" as="targetPoint" />
          </mxGeometry>
        </mxCell>
        <mxCell id="ucU8Fq2Tyw5uj5B-TA47-69" value="Печать на принтере" style="shape=process;whiteSpace=wrap;html=1;backgroundOutline=1;fontFamily=Times New Roman;movable=1;resizable=1;rotatable=1;deletable=1;editable=1;locked=0;connectable=1;strokeWidth=2;fontSize=18;fontStyle=1" parent="1" vertex="1">
          <mxGeometry x="7550" y="110" width="160" height="80" as="geometry" />
        </mxCell>
        <mxCell id="b-Mm67qPSfBPajbfZ4p0-2" value="" style="endArrow=none;html=1;rounded=0;strokeWidth=5;fontFamily=Times New Roman;fontStyle=1" parent="1" edge="1">
          <mxGeometry width="50" height="50" relative="1" as="geometry">
            <mxPoint x="1270" y="480" as="sourcePoint" />
            <mxPoint x="1270" y="-577" as="targetPoint" />
          </mxGeometry>
        </mxCell>
        <mxCell id="9EqDKlL5Y5wbzRuT1DFT-1" value="Начало" style="rounded=1;whiteSpace=wrap;html=1;arcSize=50;strokeWidth=2;fontFamily=Times New Roman;fontStyle=1;fontSize=18;movable=0;resizable=0;rotatable=0;deletable=0;editable=0;locked=1;connectable=0;" parent="1" vertex="1">
          <mxGeometry x="-1330" y="-510" width="160" height="40" as="geometry" />
        </mxCell>
        <mxCell id="9EqDKlL5Y5wbzRuT1DFT-2" value="Ввод/вывод" style="shape=parallelogram;perimeter=parallelogramPerimeter;whiteSpace=wrap;html=1;strokeWidth=2;fontFamily=Times New Roman;fontStyle=1;fontSize=18;movable=0;resizable=0;rotatable=0;deletable=0;editable=0;locked=1;connectable=0;" parent="1" vertex="1">
          <mxGeometry x="-1330" y="-430" width="160" height="80" as="geometry" />
        </mxCell>
        <mxCell id="9EqDKlL5Y5wbzRuT1DFT-3" value="Название цикла/&lt;br style=&quot;font-size: 18px;&quot;&gt;Условие,&lt;br&gt;если цикл с пред-условием" style="shape=loopLimit;whiteSpace=wrap;html=1;strokeWidth=2;fontFamily=Times New Roman;fontStyle=1;fontSize=18;movable=0;resizable=0;rotatable=0;deletable=0;editable=0;locked=1;connectable=0;" parent="1" vertex="1">
          <mxGeometry x="-1330" y="-310" width="160" height="80" as="geometry" />
        </mxCell>
        <mxCell id="9EqDKlL5Y5wbzRuT1DFT-4" value="Действие" style="rounded=0;whiteSpace=wrap;html=1;strokeWidth=2;fontFamily=Times New Roman;fontStyle=1;fontSize=18;movable=0;resizable=0;rotatable=0;deletable=0;editable=0;locked=1;connectable=0;" parent="1" vertex="1">
          <mxGeometry x="-1330" y="-190" width="160" height="80" as="geometry" />
        </mxCell>
        <mxCell id="9EqDKlL5Y5wbzRuT1DFT-5" value="Условие" style="rhombus;whiteSpace=wrap;html=1;strokeWidth=2;fontFamily=Times New Roman;fontStyle=1;fontSize=18;movable=0;resizable=0;rotatable=0;deletable=0;editable=0;locked=1;connectable=0;" parent="1" vertex="1">
          <mxGeometry x="-1330" y="-70" width="160" height="80" as="geometry" />
        </mxCell>
        <mxCell id="9EqDKlL5Y5wbzRuT1DFT-6" value="Ввод/вывод" style="shape=parallelogram;perimeter=parallelogramPerimeter;whiteSpace=wrap;html=1;strokeWidth=2;fontFamily=Times New Roman;fontStyle=1;fontSize=18;movable=0;resizable=0;rotatable=0;deletable=0;editable=0;locked=1;connectable=0;" parent="1" vertex="1">
          <mxGeometry x="-1130" y="10" width="160" height="80" as="geometry" />
        </mxCell>
        <mxCell id="9EqDKlL5Y5wbzRuT1DFT-7" value="1" style="ellipse;whiteSpace=wrap;html=1;aspect=fixed;strokeWidth=2;fontFamily=Times New Roman;fontStyle=1;fontSize=18;movable=0;resizable=0;rotatable=0;deletable=0;editable=0;locked=1;connectable=0;" parent="1" vertex="1">
          <mxGeometry x="-1070" y="130" width="40" height="40" as="geometry" />
        </mxCell>
        <mxCell id="9EqDKlL5Y5wbzRuT1DFT-8" value="" style="endArrow=none;html=1;entryX=0.5;entryY=1;entryDx=0;entryDy=0;strokeWidth=2;fontFamily=Times New Roman;fontStyle=1;fontSize=18;movable=0;resizable=0;rotatable=0;deletable=0;editable=0;locked=1;connectable=0;" parent="1" edge="1">
          <mxGeometry width="50" height="50" relative="1" as="geometry">
            <mxPoint x="-1050" y="8.75" as="sourcePoint" />
            <mxPoint x="-1050.276511627907" y="-31.454130675526017" as="targetPoint" />
          </mxGeometry>
        </mxCell>
        <mxCell id="9EqDKlL5Y5wbzRuT1DFT-9" value="" style="endArrow=none;html=1;entryX=0.5;entryY=1;entryDx=0;entryDy=0;strokeWidth=2;fontFamily=Times New Roman;fontStyle=1;fontSize=18;exitX=0.503;exitY=-0.018;exitDx=0;exitDy=0;exitPerimeter=0;movable=0;resizable=0;rotatable=0;deletable=0;editable=0;locked=1;connectable=0;" parent="1" source="9EqDKlL5Y5wbzRuT1DFT-5" edge="1">
          <mxGeometry width="50" height="50" relative="1" as="geometry">
            <mxPoint x="-1250.05" y="-81.20380952380953" as="sourcePoint" />
            <mxPoint x="-1250.096511627907" y="-111.25032115171649" as="targetPoint" />
          </mxGeometry>
        </mxCell>
        <mxCell id="9EqDKlL5Y5wbzRuT1DFT-10" value="" style="endArrow=none;html=1;entryX=0.5;entryY=1;entryDx=0;entryDy=0;strokeWidth=2;fontFamily=Times New Roman;fontStyle=1;fontSize=18;exitX=0.5;exitY=0;exitDx=0;exitDy=0;movable=0;resizable=0;rotatable=0;deletable=0;editable=0;locked=1;connectable=0;" parent="1" source="9EqDKlL5Y5wbzRuT1DFT-2" edge="1">
          <mxGeometry width="50" height="50" relative="1" as="geometry">
            <mxPoint x="-1250.12" y="-441.2" as="sourcePoint" />
            <mxPoint x="-1250.1665116279069" y="-471.24651162790695" as="targetPoint" />
          </mxGeometry>
        </mxCell>
        <mxCell id="9EqDKlL5Y5wbzRuT1DFT-11" value="" style="endArrow=none;html=1;entryX=0.5;entryY=1;entryDx=0;entryDy=0;strokeWidth=2;fontFamily=Times New Roman;fontStyle=1;fontSize=18;exitX=0.5;exitY=0;exitDx=0;exitDy=0;movable=0;resizable=0;rotatable=0;deletable=0;editable=0;locked=1;connectable=0;" parent="1" source="9EqDKlL5Y5wbzRuT1DFT-7" edge="1">
          <mxGeometry width="50" height="50" relative="1" as="geometry">
            <mxPoint x="-1050.23" y="118.75238095238092" as="sourcePoint" />
            <mxPoint x="-1050.276511627907" y="88.70586932447395" as="targetPoint" />
          </mxGeometry>
        </mxCell>
        <mxCell id="9EqDKlL5Y5wbzRuT1DFT-12" value="" style="endArrow=none;html=1;strokeWidth=2;fontFamily=Times New Roman;fontStyle=1;fontSize=18;movable=0;resizable=0;rotatable=0;deletable=0;editable=0;locked=1;connectable=0;" parent="1" edge="1">
          <mxGeometry width="50" height="50" relative="1" as="geometry">
            <mxPoint x="-1170" y="-31.850000000000023" as="sourcePoint" />
            <mxPoint x="-1050" y="-31.850000000000023" as="targetPoint" />
          </mxGeometry>
        </mxCell>
        <mxCell id="9EqDKlL5Y5wbzRuT1DFT-13" value="" style="endArrow=none;html=1;entryX=0.5;entryY=1;entryDx=0;entryDy=0;strokeWidth=2;fontFamily=Times New Roman;fontStyle=1;fontSize=18;movable=0;resizable=0;rotatable=0;deletable=0;editable=0;locked=1;connectable=0;" parent="1" edge="1">
          <mxGeometry width="50" height="50" relative="1" as="geometry">
            <mxPoint x="-1250" y="208.75" as="sourcePoint" />
            <mxPoint x="-1252.5" y="8.75" as="targetPoint" />
          </mxGeometry>
        </mxCell>
        <mxCell id="9EqDKlL5Y5wbzRuT1DFT-14" value="" style="endArrow=none;html=1;strokeWidth=2;fontFamily=Times New Roman;fontStyle=1;fontSize=18;movable=0;resizable=0;rotatable=0;deletable=0;editable=0;locked=1;connectable=0;" parent="1" edge="1">
          <mxGeometry width="50" height="50" relative="1" as="geometry">
            <mxPoint x="-1250" y="208.75" as="sourcePoint" />
            <mxPoint x="-930" y="208.75" as="targetPoint" />
          </mxGeometry>
        </mxCell>
        <mxCell id="9EqDKlL5Y5wbzRuT1DFT-15" value="" style="endArrow=classic;html=1;strokeWidth=2;fontFamily=Times New Roman;fontStyle=1;fontSize=18;movable=0;resizable=0;rotatable=0;deletable=0;editable=0;locked=1;connectable=0;" parent="1" edge="1">
          <mxGeometry width="50" height="50" relative="1" as="geometry">
            <mxPoint x="-930" y="208.75" as="sourcePoint" />
            <mxPoint x="-930" y="-511.25" as="targetPoint" />
          </mxGeometry>
        </mxCell>
        <mxCell id="9EqDKlL5Y5wbzRuT1DFT-16" value="да" style="text;html=1;resizable=1;points=[];autosize=1;align=left;verticalAlign=top;spacingTop=-4;strokeWidth=2;fontFamily=Times New Roman;fontStyle=1;fontSize=18;movable=1;rotatable=1;deletable=1;editable=1;locked=0;connectable=1;" parent="1" vertex="1">
          <mxGeometry x="-1290" y="30" width="30" height="20" as="geometry" />
        </mxCell>
        <mxCell id="9EqDKlL5Y5wbzRuT1DFT-17" value="нет" style="text;html=1;resizable=0;points=[];autosize=1;align=left;verticalAlign=top;spacingTop=-4;strokeWidth=2;fontFamily=Times New Roman;fontStyle=1;fontSize=18;movable=0;rotatable=0;deletable=0;editable=0;locked=1;connectable=0;" parent="1" vertex="1">
          <mxGeometry x="-1130" y="-60" width="30" height="20" as="geometry" />
        </mxCell>
        <mxCell id="9EqDKlL5Y5wbzRuT1DFT-18" value="i=0, i++" style="shape=hexagon;perimeter=hexagonPerimeter2;whiteSpace=wrap;html=1;strokeWidth=2;fontFamily=Times New Roman;fontStyle=1;fontSize=18;movable=0;resizable=0;rotatable=0;deletable=0;editable=0;locked=1;connectable=0;" parent="1" vertex="1">
          <mxGeometry x="-850" y="-470" width="160" height="80" as="geometry" />
        </mxCell>
        <mxCell id="9EqDKlL5Y5wbzRuT1DFT-19" value="" style="endArrow=none;html=1;strokeWidth=2;fontFamily=Times New Roman;fontStyle=1;fontSize=18;movable=0;resizable=0;rotatable=0;deletable=0;editable=0;locked=1;connectable=0;" parent="1" edge="1">
          <mxGeometry width="50" height="50" relative="1" as="geometry">
            <mxPoint x="-770.15" y="-471.25" as="sourcePoint" />
            <mxPoint x="-770" y="-511.25" as="targetPoint" />
          </mxGeometry>
        </mxCell>
        <mxCell id="9EqDKlL5Y5wbzRuT1DFT-20" value="" style="endArrow=none;html=1;strokeWidth=2;fontFamily=Times New Roman;fontStyle=1;fontSize=18;movable=0;resizable=0;rotatable=0;deletable=0;editable=0;locked=1;connectable=0;" parent="1" edge="1">
          <mxGeometry width="50" height="50" relative="1" as="geometry">
            <mxPoint x="-930" y="-511.25" as="sourcePoint" />
            <mxPoint x="-770" y="-511.25" as="targetPoint" />
          </mxGeometry>
        </mxCell>
        <mxCell id="9EqDKlL5Y5wbzRuT1DFT-21" value="Действие" style="rounded=0;whiteSpace=wrap;html=1;strokeWidth=2;fontFamily=Times New Roman;fontStyle=1;fontSize=18;movable=0;resizable=0;rotatable=0;deletable=0;editable=0;locked=1;connectable=0;" parent="1" vertex="1">
          <mxGeometry x="-850" y="-350" width="160" height="80" as="geometry" />
        </mxCell>
        <mxCell id="9EqDKlL5Y5wbzRuT1DFT-22" value="Подпрограмма" style="shape=process;whiteSpace=wrap;html=1;backgroundOutline=1;strokeWidth=2;fontFamily=Times New Roman;fontStyle=1;fontSize=18;movable=0;resizable=0;rotatable=0;deletable=0;editable=0;locked=1;connectable=0;" parent="1" vertex="1">
          <mxGeometry x="-850" y="-230" width="160" height="80" as="geometry" />
        </mxCell>
        <mxCell id="9EqDKlL5Y5wbzRuT1DFT-23" value="" style="endArrow=none;html=1;entryX=0.5;entryY=1;entryDx=0;entryDy=0;strokeWidth=2;fontFamily=Times New Roman;fontStyle=1;fontSize=18;exitX=0.5;exitY=0;exitDx=0;exitDy=0;movable=0;resizable=0;rotatable=0;deletable=0;editable=0;locked=1;connectable=0;" parent="1" source="9EqDKlL5Y5wbzRuT1DFT-22" edge="1">
          <mxGeometry width="50" height="50" relative="1" as="geometry">
            <mxPoint x="-770.19" y="-241.2" as="sourcePoint" />
            <mxPoint x="-770.236511627907" y="-271.24651162790695" as="targetPoint" />
          </mxGeometry>
        </mxCell>
        <mxCell id="9EqDKlL5Y5wbzRuT1DFT-24" value="" style="endArrow=none;html=1;entryX=0.5;entryY=1;entryDx=0;entryDy=0;strokeWidth=2;fontFamily=Times New Roman;fontStyle=1;fontSize=18;exitX=0.5;exitY=0;exitDx=0;exitDy=0;movable=0;resizable=0;rotatable=0;deletable=0;editable=0;locked=1;connectable=0;" parent="1" source="9EqDKlL5Y5wbzRuT1DFT-21" edge="1">
          <mxGeometry width="50" height="50" relative="1" as="geometry">
            <mxPoint x="-770.19" y="-361.2" as="sourcePoint" />
            <mxPoint x="-770.236511627907" y="-391.24651162790695" as="targetPoint" />
          </mxGeometry>
        </mxCell>
        <mxCell id="9EqDKlL5Y5wbzRuT1DFT-25" value="" style="endArrow=none;html=1;strokeWidth=2;fontFamily=Times New Roman;fontStyle=1;fontSize=18;exitX=0;exitY=0.5;exitDx=0;exitDy=0;movable=0;resizable=0;rotatable=0;deletable=0;editable=0;locked=1;connectable=0;" parent="1" source="9EqDKlL5Y5wbzRuT1DFT-18" edge="1">
          <mxGeometry width="50" height="50" relative="1" as="geometry">
            <mxPoint x="-860" y="-431.33" as="sourcePoint" />
            <mxPoint x="-890" y="-431.33" as="targetPoint" />
          </mxGeometry>
        </mxCell>
        <mxCell id="9EqDKlL5Y5wbzRuT1DFT-26" value="" style="endArrow=none;html=1;strokeWidth=2;fontFamily=Times New Roman;fontStyle=1;fontSize=18;movable=0;resizable=0;rotatable=0;deletable=0;editable=0;locked=1;connectable=0;" parent="1" edge="1">
          <mxGeometry width="50" height="50" relative="1" as="geometry">
            <mxPoint x="-690" y="-431.25" as="sourcePoint" />
            <mxPoint x="-650" y="-431.25" as="targetPoint" />
          </mxGeometry>
        </mxCell>
        <mxCell id="9EqDKlL5Y5wbzRuT1DFT-27" value="" style="endArrow=none;html=1;strokeWidth=2;fontFamily=Times New Roman;fontStyle=1;fontSize=18;movable=0;resizable=0;rotatable=0;deletable=0;editable=0;locked=1;connectable=0;" parent="1" edge="1">
          <mxGeometry width="50" height="50" relative="1" as="geometry">
            <mxPoint x="-650" y="-71.25" as="sourcePoint" />
            <mxPoint x="-650" y="-431.25" as="targetPoint" />
          </mxGeometry>
        </mxCell>
        <mxCell id="9EqDKlL5Y5wbzRuT1DFT-28" value="" style="endArrow=classic;html=1;strokeWidth=2;fontFamily=Times New Roman;fontStyle=1;fontSize=18;movable=0;resizable=0;rotatable=0;deletable=0;editable=0;locked=1;connectable=0;" parent="1" edge="1">
          <mxGeometry width="50" height="50" relative="1" as="geometry">
            <mxPoint x="-650" y="-71.73000000000002" as="sourcePoint" />
            <mxPoint x="-770" y="-71.73000000000002" as="targetPoint" />
          </mxGeometry>
        </mxCell>
        <mxCell id="9EqDKlL5Y5wbzRuT1DFT-29" value="" style="endArrow=classic;html=1;strokeWidth=2;fontFamily=Times New Roman;fontStyle=1;fontSize=18;movable=0;resizable=0;rotatable=0;deletable=0;editable=0;locked=1;connectable=0;" parent="1" edge="1">
          <mxGeometry width="50" height="50" relative="1" as="geometry">
            <mxPoint x="-890" y="-111.25" as="sourcePoint" />
            <mxPoint x="-890" y="-431.25" as="targetPoint" />
          </mxGeometry>
        </mxCell>
        <mxCell id="9EqDKlL5Y5wbzRuT1DFT-30" value="" style="endArrow=none;html=1;entryX=0.5;entryY=1;entryDx=0;entryDy=0;strokeWidth=2;fontFamily=Times New Roman;fontStyle=1;fontSize=18;movable=0;resizable=0;rotatable=0;deletable=0;editable=0;locked=1;connectable=0;" parent="1" edge="1">
          <mxGeometry width="50" height="50" relative="1" as="geometry">
            <mxPoint x="-770" y="-111.25" as="sourcePoint" />
            <mxPoint x="-770.236511627907" y="-151.24651162790695" as="targetPoint" />
          </mxGeometry>
        </mxCell>
        <mxCell id="9EqDKlL5Y5wbzRuT1DFT-31" value="" style="endArrow=classic;html=1;strokeWidth=2;fontFamily=Times New Roman;fontStyle=1;fontSize=18;movable=0;resizable=0;rotatable=0;deletable=0;editable=0;locked=1;connectable=0;" parent="1" edge="1">
          <mxGeometry width="50" height="50" relative="1" as="geometry">
            <mxPoint x="-770" y="-111.25" as="sourcePoint" />
            <mxPoint x="-890" y="-111.25" as="targetPoint" />
          </mxGeometry>
        </mxCell>
        <mxCell id="9EqDKlL5Y5wbzRuT1DFT-32" value="" style="shape=loopLimit;whiteSpace=wrap;html=1;rotation=-180;strokeWidth=2;fontFamily=Times New Roman;fontStyle=1;fontSize=18;movable=0;resizable=0;rotatable=0;deletable=0;editable=0;locked=1;connectable=0;" parent="1" vertex="1">
          <mxGeometry x="-850" y="-30" width="160" height="80" as="geometry" />
        </mxCell>
        <mxCell id="9EqDKlL5Y5wbzRuT1DFT-33" value="Название цикла/ Условие, если цикл&lt;br&gt;с пост-условием" style="text;html=1;strokeColor=none;fillColor=none;align=center;verticalAlign=middle;whiteSpace=wrap;rounded=0;strokeWidth=2;fontFamily=Times New Roman;fontStyle=1;fontSize=18;movable=0;resizable=0;rotatable=0;deletable=0;editable=0;locked=1;connectable=0;" parent="1" vertex="1">
          <mxGeometry x="-850" y="-20" width="160" height="60" as="geometry" />
        </mxCell>
        <mxCell id="9EqDKlL5Y5wbzRuT1DFT-34" value="Ввод/вывод" style="shape=parallelogram;perimeter=parallelogramPerimeter;whiteSpace=wrap;html=1;strokeWidth=2;fontFamily=Times New Roman;fontStyle=1;fontSize=18;movable=0;resizable=0;rotatable=0;deletable=0;editable=0;locked=1;connectable=0;" parent="1" vertex="1">
          <mxGeometry x="-850" y="130" width="160" height="80" as="geometry" />
        </mxCell>
        <mxCell id="9EqDKlL5Y5wbzRuT1DFT-35" value="Конец" style="rounded=1;whiteSpace=wrap;html=1;arcSize=50;strokeWidth=2;fontFamily=Times New Roman;fontStyle=1;fontSize=18;movable=0;resizable=0;rotatable=0;deletable=0;editable=0;locked=1;connectable=0;" parent="1" vertex="1">
          <mxGeometry x="-850" y="250" width="160" height="40" as="geometry" />
        </mxCell>
        <mxCell id="9EqDKlL5Y5wbzRuT1DFT-36" value="" style="endArrow=none;html=1;entryX=0.5;entryY=1;entryDx=0;entryDy=0;strokeWidth=2;fontFamily=Times New Roman;fontStyle=1;fontSize=18;exitX=0.5;exitY=0;exitDx=0;exitDy=0;movable=0;resizable=0;rotatable=0;deletable=0;editable=0;locked=1;connectable=0;" parent="1" source="9EqDKlL5Y5wbzRuT1DFT-35" edge="1">
          <mxGeometry width="50" height="50" relative="1" as="geometry">
            <mxPoint x="-770.15" y="238.79619047619053" as="sourcePoint" />
            <mxPoint x="-770.196511627907" y="208.74967884828357" as="targetPoint" />
          </mxGeometry>
        </mxCell>
        <mxCell id="9EqDKlL5Y5wbzRuT1DFT-37" value="" style="endArrow=none;html=1;entryX=0.5;entryY=1;entryDx=0;entryDy=0;strokeWidth=2;fontFamily=Times New Roman;fontStyle=1;fontSize=18;movable=0;resizable=0;rotatable=0;deletable=0;editable=0;locked=1;connectable=0;" parent="1" edge="1">
          <mxGeometry width="50" height="50" relative="1" as="geometry">
            <mxPoint x="-770" y="-31.25" as="sourcePoint" />
            <mxPoint x="-770.236511627907" y="-71.24651162790701" as="targetPoint" />
          </mxGeometry>
        </mxCell>
        <mxCell id="9EqDKlL5Y5wbzRuT1DFT-38" value="1" style="ellipse;whiteSpace=wrap;html=1;aspect=fixed;strokeWidth=2;fontFamily=Times New Roman;fontStyle=1;fontSize=18;movable=0;resizable=0;rotatable=0;deletable=0;editable=0;locked=1;connectable=0;" parent="1" vertex="1">
          <mxGeometry x="-650" y="70" width="40" height="40" as="geometry" />
        </mxCell>
        <mxCell id="9EqDKlL5Y5wbzRuT1DFT-39" value="" style="endArrow=classic;html=1;strokeWidth=2;fontFamily=Times New Roman;fontStyle=1;fontSize=18;movable=0;resizable=0;rotatable=0;deletable=0;editable=0;locked=1;connectable=0;" parent="1" edge="1">
          <mxGeometry width="50" height="50" relative="1" as="geometry">
            <mxPoint x="-650" y="88.75" as="sourcePoint" />
            <mxPoint x="-770" y="88.75" as="targetPoint" />
          </mxGeometry>
        </mxCell>
        <mxCell id="9EqDKlL5Y5wbzRuT1DFT-40" value="" style="strokeWidth=2;html=1;shape=mxgraph.flowchart.annotation_2;align=left;pointerEvents=1;fontFamily=Times New Roman;fontSize=18;movable=0;resizable=0;rotatable=0;deletable=0;editable=0;locked=1;connectable=0;" parent="1" vertex="1">
          <mxGeometry x="-610" y="-20" width="50" height="60" as="geometry" />
        </mxCell>
        <mxCell id="9EqDKlL5Y5wbzRuT1DFT-41" value="" style="endArrow=none;dashed=1;html=1;strokeWidth=2;fontFamily=Times New Roman;fontSize=18;entryX=0;entryY=0.5;entryDx=0;entryDy=0;entryPerimeter=0;movable=0;resizable=0;rotatable=0;deletable=0;editable=0;locked=1;connectable=0;" parent="1" edge="1">
          <mxGeometry width="50" height="50" relative="1" as="geometry">
            <mxPoint x="-690" y="8.490000000000009" as="sourcePoint" />
            <mxPoint x="-614" y="8.489999999999895" as="targetPoint" />
          </mxGeometry>
        </mxCell>
        <mxCell id="9EqDKlL5Y5wbzRuT1DFT-42" value="Комментарий&lt;br&gt;(если что-то не входит в основной блок, то выносим сюда пояснения)&lt;br&gt;" style="text;html=1;strokeColor=none;fillColor=none;align=center;verticalAlign=middle;whiteSpace=wrap;rounded=0;fontFamily=Times New Roman;fontSize=18;fontStyle=1;movable=0;resizable=0;rotatable=0;deletable=0;editable=0;locked=1;connectable=0;" parent="1" vertex="1">
          <mxGeometry x="-590" y="-20" width="300" height="60" as="geometry" />
        </mxCell>
        <mxCell id="9EqDKlL5Y5wbzRuT1DFT-43" value="Ручной ввод" style="html=1;strokeWidth=2;shape=manualInput;whiteSpace=wrap;rounded=0;size=26;arcSize=11;fontFamily=Times New Roman;fontSize=13;fontStyle=1;movable=0;resizable=0;rotatable=0;deletable=0;editable=0;locked=1;connectable=0;" parent="1" vertex="1">
          <mxGeometry x="-1330" y="530" width="160" height="80" as="geometry" />
        </mxCell>
        <mxCell id="9EqDKlL5Y5wbzRuT1DFT-44" value="Входящий документ" style="strokeWidth=2;html=1;shape=mxgraph.flowchart.document2;whiteSpace=wrap;size=0.25;connectable=0;fontFamily=Times New Roman;fontSize=13;fontStyle=1;allowArrows=1;recursiveResize=1;expand=1;movable=0;rotatable=0;cloneable=1;deletable=0;resizable=0;editable=0;locked=1;" parent="1" vertex="1">
          <mxGeometry x="-850" y="370" width="160" height="80" as="geometry" />
        </mxCell>
        <mxCell id="9EqDKlL5Y5wbzRuT1DFT-45" value="Запоминающее устройство с&lt;br&gt;прямым доступом" style="strokeWidth=2;html=1;shape=mxgraph.flowchart.direct_data;whiteSpace=wrap;fontFamily=Times New Roman;fontSize=13;fontStyle=1;movable=0;resizable=0;rotatable=0;deletable=0;editable=0;locked=1;connectable=0;" parent="1" vertex="1">
          <mxGeometry x="-1330" y="690" width="160" height="80" as="geometry" />
        </mxCell>
        <mxCell id="9EqDKlL5Y5wbzRuT1DFT-46" value="Дисплей" style="strokeWidth=2;html=1;shape=mxgraph.flowchart.display;whiteSpace=wrap;fontFamily=Times New Roman;fontSize=13;fontStyle=1;movable=0;resizable=0;rotatable=0;deletable=0;editable=0;locked=1;connectable=0;" parent="1" vertex="1">
          <mxGeometry x="-1090" y="730" width="160" height="80" as="geometry" />
        </mxCell>
        <mxCell id="9EqDKlL5Y5wbzRuT1DFT-47" value="Процесс" style="rounded=0;whiteSpace=wrap;html=1;absoluteArcSize=1;arcSize=14;strokeWidth=2;fontFamily=Times New Roman;fontSize=13;fontStyle=1;movable=0;resizable=0;rotatable=0;deletable=0;editable=0;locked=1;connectable=0;" parent="1" vertex="1">
          <mxGeometry x="-1090" y="530" width="160" height="80" as="geometry" />
        </mxCell>
        <mxCell id="9EqDKlL5Y5wbzRuT1DFT-48" value="Запоминаемые данные" style="strokeWidth=2;html=1;shape=mxgraph.flowchart.stored_data;whiteSpace=wrap;fontFamily=Times New Roman;fontSize=13;fontStyle=1;movable=0;resizable=0;rotatable=0;deletable=0;editable=0;locked=1;connectable=0;" parent="1" vertex="1">
          <mxGeometry x="-1330" y="370" width="160" height="80" as="geometry" />
        </mxCell>
        <mxCell id="9EqDKlL5Y5wbzRuT1DFT-49" value="Ручной ввод" style="html=1;strokeWidth=2;shape=manualInput;whiteSpace=wrap;rounded=0;size=26;arcSize=11;fontFamily=Times New Roman;fontSize=13;fontStyle=1;rotatable=0;movable=0;resizable=0;deletable=0;editable=0;locked=1;connectable=0;" parent="1" vertex="1">
          <mxGeometry x="-1090" y="370" width="160" height="80" as="geometry" />
        </mxCell>
        <mxCell id="9EqDKlL5Y5wbzRuT1DFT-50" value="Исходящий документ" style="strokeWidth=2;html=1;shape=mxgraph.flowchart.document2;whiteSpace=wrap;size=0.25;connectable=0;fontFamily=Times New Roman;fontSize=13;fontStyle=1;movable=0;resizable=0;rotatable=0;deletable=0;editable=0;locked=1;" parent="1" vertex="1">
          <mxGeometry x="-850" y="610" width="160" height="80" as="geometry" />
        </mxCell>
        <mxCell id="9EqDKlL5Y5wbzRuT1DFT-51" value="" style="endArrow=classic;html=1;strokeWidth=2;fontFamily=Times New Roman;fontStyle=1;fontSize=13;exitX=0;exitY=0.5;exitDx=0;exitDy=0;movable=0;resizable=0;rotatable=0;deletable=0;editable=0;locked=1;connectable=0;" parent="1" edge="1">
          <mxGeometry width="50" height="50" relative="1" as="geometry">
            <mxPoint x="-1030" y="448.75" as="sourcePoint" />
            <mxPoint x="-1030" y="528.75" as="targetPoint" />
          </mxGeometry>
        </mxCell>
        <mxCell id="9EqDKlL5Y5wbzRuT1DFT-52" value="" style="endArrow=classic;html=1;strokeWidth=2;fontFamily=Times New Roman;fontStyle=1;fontSize=13;exitX=0;exitY=0.5;exitDx=0;exitDy=0;exitPerimeter=0;movable=0;resizable=0;rotatable=0;deletable=0;editable=0;locked=1;connectable=0;" parent="1" edge="1">
          <mxGeometry width="50" height="50" relative="1" as="geometry">
            <mxPoint x="-770" y="489.03999999999996" as="sourcePoint" />
            <mxPoint x="-990" y="488.75" as="targetPoint" />
            <Array as="points">
              <mxPoint x="-800" y="490" />
            </Array>
          </mxGeometry>
        </mxCell>
        <mxCell id="9EqDKlL5Y5wbzRuT1DFT-53" value="" style="endArrow=none;html=1;entryX=0.5;entryY=1;entryDx=0;entryDy=0;strokeWidth=2;fontFamily=Times New Roman;fontStyle=1;fontSize=13;exitX=0.501;exitY=0.163;exitDx=0;exitDy=0;exitPerimeter=0;movable=0;resizable=0;rotatable=0;deletable=0;editable=0;locked=1;connectable=0;" parent="1" source="9EqDKlL5Y5wbzRuT1DFT-43" edge="1">
          <mxGeometry width="50" height="50" relative="1" as="geometry">
            <mxPoint x="-1250" y="488.75" as="sourcePoint" />
            <mxPoint x="-1250" y="448.75" as="targetPoint" />
          </mxGeometry>
        </mxCell>
        <mxCell id="9EqDKlL5Y5wbzRuT1DFT-54" value="" style="endArrow=none;html=1;entryX=0.5;entryY=1;entryDx=0;entryDy=0;strokeWidth=2;fontFamily=Times New Roman;fontStyle=1;fontSize=13;movable=0;resizable=0;rotatable=0;deletable=0;editable=0;locked=1;connectable=0;" parent="1" edge="1">
          <mxGeometry width="50" height="50" relative="1" as="geometry">
            <mxPoint x="-1250" y="688.75" as="sourcePoint" />
            <mxPoint x="-1250.69" y="608.75" as="targetPoint" />
          </mxGeometry>
        </mxCell>
        <mxCell id="9EqDKlL5Y5wbzRuT1DFT-55" value="" style="endArrow=none;html=1;entryX=0.5;entryY=1;entryDx=0;entryDy=0;strokeWidth=2;fontFamily=Times New Roman;fontStyle=1;fontSize=13;exitX=0.5;exitY=0;exitDx=0;exitDy=0;exitPerimeter=0;movable=0;resizable=0;rotatable=0;deletable=0;editable=0;locked=1;connectable=0;" parent="1" source="9EqDKlL5Y5wbzRuT1DFT-46" edge="1">
          <mxGeometry width="50" height="50" relative="1" as="geometry">
            <mxPoint x="-1010" y="688.75" as="sourcePoint" />
            <mxPoint x="-1010.29" y="608.75" as="targetPoint" />
          </mxGeometry>
        </mxCell>
        <mxCell id="9EqDKlL5Y5wbzRuT1DFT-56" value="" style="endArrow=none;html=1;entryX=0.5;entryY=1;entryDx=0;entryDy=0;strokeWidth=2;fontFamily=Times New Roman;fontStyle=1;fontSize=13;movable=0;resizable=0;rotatable=0;deletable=0;editable=0;locked=1;connectable=0;" parent="1" edge="1">
          <mxGeometry width="50" height="50" relative="1" as="geometry">
            <mxPoint x="-770" y="568.75" as="sourcePoint" />
            <mxPoint x="-930" y="568.51" as="targetPoint" />
          </mxGeometry>
        </mxCell>
        <mxCell id="9EqDKlL5Y5wbzRuT1DFT-57" value="" style="endArrow=none;html=1;strokeWidth=2;fontFamily=Times New Roman;fontStyle=1;fontSize=13;exitX=0.75;exitY=0;exitDx=0;exitDy=0;movable=0;resizable=0;rotatable=0;deletable=0;editable=0;locked=1;connectable=0;" parent="1" edge="1">
          <mxGeometry width="50" height="50" relative="1" as="geometry">
            <mxPoint x="-989.9624999999999" y="528.75" as="sourcePoint" />
            <mxPoint x="-990" y="488.75" as="targetPoint" />
          </mxGeometry>
        </mxCell>
        <mxCell id="9EqDKlL5Y5wbzRuT1DFT-58" value="" style="endArrow=none;html=1;strokeWidth=2;fontFamily=Times New Roman;fontStyle=1;fontSize=13;movable=0;resizable=0;rotatable=0;deletable=0;editable=0;locked=1;connectable=0;" parent="1" edge="1">
          <mxGeometry width="50" height="50" relative="1" as="geometry">
            <mxPoint x="-770" y="608.75" as="sourcePoint" />
            <mxPoint x="-770" y="568.75" as="targetPoint" />
          </mxGeometry>
        </mxCell>
        <mxCell id="9EqDKlL5Y5wbzRuT1DFT-59" value="" style="endArrow=none;html=1;entryX=0.5;entryY=1;entryDx=0;entryDy=0;strokeWidth=2;fontFamily=Times New Roman;fontStyle=1;fontSize=13;movable=0;resizable=0;rotatable=0;deletable=0;editable=0;locked=1;connectable=0;" parent="1" edge="1">
          <mxGeometry width="50" height="50" relative="1" as="geometry">
            <mxPoint x="-1130" y="728.3299999999999" as="sourcePoint" />
            <mxPoint x="-1170" y="728.3299999999999" as="targetPoint" />
          </mxGeometry>
        </mxCell>
        <mxCell id="9EqDKlL5Y5wbzRuT1DFT-60" value="" style="endArrow=none;html=1;entryX=0.5;entryY=1;entryDx=0;entryDy=0;strokeWidth=2;fontFamily=Times New Roman;fontStyle=1;fontSize=13;movable=0;resizable=0;rotatable=0;deletable=0;editable=0;locked=1;connectable=0;" parent="1" edge="1">
          <mxGeometry width="50" height="50" relative="1" as="geometry">
            <mxPoint x="-1090" y="568.5799999999999" as="sourcePoint" />
            <mxPoint x="-1130" y="568.5799999999999" as="targetPoint" />
          </mxGeometry>
        </mxCell>
        <mxCell id="9EqDKlL5Y5wbzRuT1DFT-61" value="" style="endArrow=classic;startArrow=classic;html=1;rounded=0;strokeWidth=2;fontFamily=Times New Roman;fontSize=13;fontStyle=1;movable=0;resizable=0;rotatable=0;deletable=0;editable=0;locked=1;connectable=0;" parent="1" edge="1">
          <mxGeometry width="50" height="50" relative="1" as="geometry">
            <mxPoint x="-1130" y="728.75" as="sourcePoint" />
            <mxPoint x="-1130.24" y="568.75" as="targetPoint" />
          </mxGeometry>
        </mxCell>
        <mxCell id="9EqDKlL5Y5wbzRuT1DFT-62" value="" style="endArrow=none;html=1;strokeWidth=2;fontFamily=Times New Roman;fontStyle=1;fontSize=13;movable=0;resizable=0;rotatable=0;deletable=0;editable=0;locked=1;connectable=0;" parent="1" edge="1">
          <mxGeometry width="50" height="50" relative="1" as="geometry">
            <mxPoint x="-771" y="488.75" as="sourcePoint" />
            <mxPoint x="-770.52" y="438.75" as="targetPoint" />
          </mxGeometry>
        </mxCell>
        <mxCell id="9EqDKlL5Y5wbzRuT1DFT-63" value="" style="endArrow=none;html=1;entryX=0.5;entryY=1;entryDx=0;entryDy=0;strokeWidth=2;fontFamily=Times New Roman;fontStyle=1;fontSize=18;exitX=0.5;exitY=0;exitDx=0;exitDy=0;movable=0;resizable=0;rotatable=0;deletable=0;editable=0;locked=1;connectable=0;" parent="1" edge="1">
          <mxGeometry width="50" height="50" relative="1" as="geometry">
            <mxPoint x="-1250.07" y="-311.25" as="sourcePoint" />
            <mxPoint x="-1250.236511627907" y="-351.24651162790695" as="targetPoint" />
          </mxGeometry>
        </mxCell>
        <mxCell id="9EqDKlL5Y5wbzRuT1DFT-64" value="" style="endArrow=none;html=1;entryX=0.5;entryY=1;entryDx=0;entryDy=0;strokeWidth=2;fontFamily=Times New Roman;fontStyle=1;fontSize=18;exitX=0.5;exitY=0;exitDx=0;exitDy=0;movable=0;resizable=0;rotatable=0;deletable=0;editable=0;locked=1;connectable=0;" parent="1" edge="1">
          <mxGeometry width="50" height="50" relative="1" as="geometry">
            <mxPoint x="-1250.07" y="-191.25" as="sourcePoint" />
            <mxPoint x="-1250.236511627907" y="-231.24651162790695" as="targetPoint" />
          </mxGeometry>
        </mxCell>
        <mxCell id="9EqDKlL5Y5wbzRuT1DFT-65" value="" style="endArrow=none;html=1;entryX=0.5;entryY=1;entryDx=0;entryDy=0;strokeWidth=2;fontFamily=Times New Roman;fontStyle=1;fontSize=18;exitX=0.5;exitY=0;exitDx=0;exitDy=0;movable=0;resizable=0;rotatable=0;deletable=0;editable=0;locked=1;connectable=0;" parent="1" source="9EqDKlL5Y5wbzRuT1DFT-34" edge="1">
          <mxGeometry width="50" height="50" relative="1" as="geometry">
            <mxPoint x="-769.96" y="88.54999999999995" as="sourcePoint" />
            <mxPoint x="-770.1965116279071" y="48.55348837209294" as="targetPoint" />
          </mxGeometry>
        </mxCell>
        <mxCell id="9EqDKlL5Y5wbzRuT1DFT-66" value="ПРИМЕР ПО ГОСТ" style="text;html=1;align=center;verticalAlign=middle;resizable=0;points=[];autosize=1;strokeColor=none;fillColor=none;fontSize=60;movable=0;rotatable=0;deletable=0;editable=0;locked=1;connectable=0;" parent="1" vertex="1">
          <mxGeometry x="-1290" y="-640" width="560" height="90" as="geometry" />
        </mxCell>
        <mxCell id="9EqDKlL5Y5wbzRuT1DFT-70" style="edgeStyle=orthogonalEdgeStyle;rounded=0;orthogonalLoop=1;jettySize=auto;html=1;entryX=0.5;entryY=0;entryDx=0;entryDy=0;endArrow=none;startFill=0;fontFamily=Times New Roman;fontSize=18;fontStyle=1;strokeWidth=2;" parent="1" source="9EqDKlL5Y5wbzRuT1DFT-68" target="pf5fv10O7jcKK1ilcvL3-5" edge="1">
          <mxGeometry relative="1" as="geometry" />
        </mxCell>
        <mxCell id="9EqDKlL5Y5wbzRuT1DFT-68" value="Начало" style="rounded=1;whiteSpace=wrap;html=1;strokeColor=default;strokeWidth=2;align=center;verticalAlign=middle;arcSize=50;fontFamily=Times New Roman;fontSize=18;fontColor=default;fontStyle=1;fillColor=default;" parent="1" vertex="1">
          <mxGeometry x="-110" y="-320" width="160" height="40" as="geometry" />
        </mxCell>
        <mxCell id="9EqDKlL5Y5wbzRuT1DFT-73" style="edgeStyle=orthogonalEdgeStyle;rounded=0;orthogonalLoop=1;jettySize=auto;html=1;entryX=0.5;entryY=1;entryDx=0;entryDy=0;endArrow=none;startFill=0;strokeWidth=2;fontFamily=Times New Roman;fontStyle=1" parent="1" source="9EqDKlL5Y5wbzRuT1DFT-71" target="pf5fv10O7jcKK1ilcvL3-5" edge="1">
          <mxGeometry relative="1" as="geometry" />
        </mxCell>
        <mxCell id="9EqDKlL5Y5wbzRuT1DFT-71" value="Проверка&lt;div&gt;данных&lt;/div&gt;" style="shape=loopLimit;whiteSpace=wrap;html=1;strokeWidth=2;fontFamily=Times New Roman;fontStyle=1;fontSize=18;" parent="1" vertex="1">
          <mxGeometry x="-110" y="-120" width="160" height="80" as="geometry" />
        </mxCell>
        <mxCell id="9EqDKlL5Y5wbzRuT1DFT-74" value="Конец" style="rounded=1;whiteSpace=wrap;html=1;strokeColor=default;strokeWidth=2;align=center;verticalAlign=middle;arcSize=50;fontFamily=Times New Roman;fontSize=18;fontColor=default;fontStyle=1;fillColor=default;" parent="1" vertex="1">
          <mxGeometry x="730" y="360" width="160" height="40" as="geometry" />
        </mxCell>
        <mxCell id="9EqDKlL5Y5wbzRuT1DFT-76" style="edgeStyle=orthogonalEdgeStyle;rounded=0;orthogonalLoop=1;jettySize=auto;html=1;entryX=0.5;entryY=1;entryDx=0;entryDy=0;endArrow=none;startFill=0;fontFamily=Times New Roman;fontStyle=1;strokeWidth=2;" parent="1" source="9EqDKlL5Y5wbzRuT1DFT-75" target="9EqDKlL5Y5wbzRuT1DFT-71" edge="1">
          <mxGeometry relative="1" as="geometry" />
        </mxCell>
        <mxCell id="9EqDKlL5Y5wbzRuT1DFT-75" value="&lt;font&gt;Ввод логина&lt;br&gt;&lt;/font&gt;" style="shape=parallelogram;perimeter=parallelogramPerimeter;whiteSpace=wrap;html=1;fixedSize=1;strokeWidth=2;rounded=0;fontFamily=Times New Roman;fontSize=18;fontStyle=1" parent="1" vertex="1">
          <mxGeometry x="-110" width="160" height="80" as="geometry" />
        </mxCell>
        <mxCell id="9EqDKlL5Y5wbzRuT1DFT-108" style="edgeStyle=orthogonalEdgeStyle;rounded=0;orthogonalLoop=1;jettySize=auto;html=1;entryX=0.5;entryY=0;entryDx=0;entryDy=0;strokeWidth=2;endArrow=none;startFill=0;" parent="1" source="9EqDKlL5Y5wbzRuT1DFT-103" edge="1">
          <mxGeometry relative="1" as="geometry">
            <mxPoint x="370" y="-240" as="targetPoint" />
          </mxGeometry>
        </mxCell>
        <mxCell id="9EqDKlL5Y5wbzRuT1DFT-103" value="1" style="ellipse;whiteSpace=wrap;html=1;aspect=fixed;rounded=0;fontFamily=Times New Roman;fontSize=18;fontStyle=1;strokeWidth=2;" parent="1" vertex="1">
          <mxGeometry x="350" y="-320" width="40" height="40" as="geometry" />
        </mxCell>
        <mxCell id="9EqDKlL5Y5wbzRuT1DFT-121" style="edgeStyle=orthogonalEdgeStyle;rounded=0;orthogonalLoop=1;jettySize=auto;html=1;entryX=0.5;entryY=1;entryDx=0;entryDy=0;strokeWidth=2;endArrow=none;startFill=0;" parent="1" source="9EqDKlL5Y5wbzRuT1DFT-112" edge="1">
          <mxGeometry relative="1" as="geometry">
            <mxPoint x="370" y="320" as="targetPoint" />
          </mxGeometry>
        </mxCell>
        <mxCell id="9EqDKlL5Y5wbzRuT1DFT-112" value="2" style="ellipse;whiteSpace=wrap;html=1;aspect=fixed;rounded=0;fontFamily=Times New Roman;fontSize=18;fontStyle=1;strokeWidth=2;" parent="1" vertex="1">
          <mxGeometry x="350" y="360" width="40" height="40" as="geometry" />
        </mxCell>
        <mxCell id="9EqDKlL5Y5wbzRuT1DFT-113" value="2" style="ellipse;whiteSpace=wrap;html=1;aspect=fixed;rounded=0;fontFamily=Times New Roman;fontSize=18;fontStyle=1;strokeWidth=2;" parent="1" vertex="1">
          <mxGeometry x="790" y="-320" width="40" height="40" as="geometry" />
        </mxCell>
        <mxCell id="9EqDKlL5Y5wbzRuT1DFT-173" style="edgeStyle=orthogonalEdgeStyle;rounded=0;orthogonalLoop=1;jettySize=auto;html=1;entryX=0.5;entryY=1;entryDx=0;entryDy=0;strokeWidth=2;endArrow=none;startFill=0;" parent="1" source="9EqDKlL5Y5wbzRuT1DFT-172" target="pf5fv10O7jcKK1ilcvL3-26" edge="1">
          <mxGeometry relative="1" as="geometry" />
        </mxCell>
        <mxCell id="9EqDKlL5Y5wbzRuT1DFT-176" style="edgeStyle=orthogonalEdgeStyle;rounded=0;orthogonalLoop=1;jettySize=auto;html=1;entryX=0.5;entryY=0;entryDx=0;entryDy=0;strokeWidth=2;endArrow=none;startFill=0;" parent="1" source="9EqDKlL5Y5wbzRuT1DFT-172" target="pf5fv10O7jcKK1ilcvL3-59" edge="1">
          <mxGeometry relative="1" as="geometry" />
        </mxCell>
        <mxCell id="9EqDKlL5Y5wbzRuT1DFT-172" value="Отправка&lt;div&gt;введенных данных&lt;/div&gt;" style="shape=process;whiteSpace=wrap;html=1;backgroundOutline=1;align=center;fontFamily=Times New Roman;rounded=0;fontSize=18;fontStyle=1;strokeWidth=2;" parent="1" vertex="1">
          <mxGeometry x="-110" y="240" width="160" height="80" as="geometry" />
        </mxCell>
        <mxCell id="9EqDKlL5Y5wbzRuT1DFT-174" value="&lt;div style=&quot;&quot;&gt;&lt;span style=&quot;background-color: transparent; color: light-dark(rgb(0, 0, 0), rgb(255, 255, 255));&quot;&gt;Запрос&lt;/span&gt;&lt;/div&gt;&lt;div style=&quot;&quot;&gt;&lt;span style=&quot;background-color: transparent; color: light-dark(rgb(0, 0, 0), rgb(255, 255, 255));&quot;&gt;в БД&lt;/span&gt;&lt;/div&gt;" style="strokeWidth=2;html=1;shape=mxgraph.flowchart.direct_data;whiteSpace=wrap;align=center;fontFamily=Times New Roman;rounded=0;fontSize=18;fontStyle=1" parent="1" vertex="1">
          <mxGeometry x="90" y="240" width="160" height="80" as="geometry" />
        </mxCell>
        <mxCell id="9EqDKlL5Y5wbzRuT1DFT-175" style="edgeStyle=orthogonalEdgeStyle;rounded=0;orthogonalLoop=1;jettySize=auto;html=1;entryX=0;entryY=0.5;entryDx=0;entryDy=0;entryPerimeter=0;strokeWidth=2;endArrow=none;startFill=0;" parent="1" source="9EqDKlL5Y5wbzRuT1DFT-172" target="9EqDKlL5Y5wbzRuT1DFT-174" edge="1">
          <mxGeometry relative="1" as="geometry" />
        </mxCell>
        <mxCell id="9EqDKlL5Y5wbzRuT1DFT-177" value="Открытие страницы&lt;br&gt;заказов" style="rounded=0;whiteSpace=wrap;html=1;align=center;fontFamily=Times New Roman;fontSize=18;fontStyle=1;strokeWidth=2;" parent="1" vertex="1">
          <mxGeometry x="730" y="-240" width="160" height="80" as="geometry" />
        </mxCell>
        <mxCell id="9EqDKlL5Y5wbzRuT1DFT-178" style="edgeStyle=orthogonalEdgeStyle;rounded=0;orthogonalLoop=1;jettySize=auto;html=1;exitX=0;exitY=0.5;exitDx=0;exitDy=0;exitPerimeter=0;fontFamily=Times New Roman;fontSize=18;fontStyle=1;strokeWidth=2;" parent="1" source="9EqDKlL5Y5wbzRuT1DFT-179" target="9EqDKlL5Y5wbzRuT1DFT-177" edge="1">
          <mxGeometry relative="1" as="geometry" />
        </mxCell>
        <mxCell id="9EqDKlL5Y5wbzRuT1DFT-179" value="Отображение&lt;br&gt;всех заказов" style="strokeWidth=2;html=1;shape=mxgraph.flowchart.display;whiteSpace=wrap;fontFamily=Times New Roman;rounded=0;fontSize=18;fontStyle=1" parent="1" vertex="1">
          <mxGeometry x="930" y="-240" width="160" height="80" as="geometry" />
        </mxCell>
        <mxCell id="9EqDKlL5Y5wbzRuT1DFT-181" value="Загрузка &lt;br&gt;главного&lt;br&gt;экрана" style="rounded=0;whiteSpace=wrap;html=1;align=center;fontFamily=Times New Roman;fontSize=18;fontStyle=1;strokeWidth=2;" parent="1" vertex="1">
          <mxGeometry x="290" y="240" width="160" height="80" as="geometry" />
        </mxCell>
        <mxCell id="9EqDKlL5Y5wbzRuT1DFT-182" value="&amp;nbsp; &amp;nbsp; &amp;nbsp;Отображение основных&lt;br&gt;данных" style="strokeWidth=2;html=1;shape=mxgraph.flowchart.display;whiteSpace=wrap;fontFamily=Times New Roman;rounded=0;fontSize=18;fontStyle=1" parent="1" vertex="1">
          <mxGeometry x="490" y="240" width="160" height="80" as="geometry" />
        </mxCell>
        <mxCell id="9EqDKlL5Y5wbzRuT1DFT-183" style="edgeStyle=orthogonalEdgeStyle;rounded=0;orthogonalLoop=1;jettySize=auto;html=1;entryX=0.5;entryY=0;entryDx=0;entryDy=0;endArrow=none;startFill=0;strokeWidth=2;" parent="1" source="9EqDKlL5Y5wbzRuT1DFT-184" target="9EqDKlL5Y5wbzRuT1DFT-189" edge="1">
          <mxGeometry relative="1" as="geometry" />
        </mxCell>
        <mxCell id="9EqDKlL5Y5wbzRuT1DFT-184" value="&lt;font style=&quot;font-size: 18px;&quot;&gt;&lt;span style=&quot;background-color: transparent; color: light-dark(rgb(0, 0, 0), rgb(255, 255, 255));&quot;&gt;Данные&lt;br&gt;&lt;/span&gt;&lt;span style=&quot;background-color: transparent; color: light-dark(rgb(0, 0, 0), rgb(255, 255, 255));&quot;&gt;верны?&lt;/span&gt;&lt;/font&gt;" style="rhombus;whiteSpace=wrap;html=1;strokeWidth=2;rounded=0;fontFamily=Times New Roman;fontSize=16;fontStyle=1;align=center;" parent="1" vertex="1">
          <mxGeometry x="290" y="-120" width="160" height="80" as="geometry" />
        </mxCell>
        <mxCell id="9EqDKlL5Y5wbzRuT1DFT-185" style="edgeStyle=orthogonalEdgeStyle;rounded=0;orthogonalLoop=1;jettySize=auto;html=1;entryX=0.5;entryY=1;entryDx=0;entryDy=0;endArrow=none;startFill=0;fontFamily=Times New Roman;fontStyle=1;strokeWidth=2;" parent="1" source="9EqDKlL5Y5wbzRuT1DFT-186" target="9EqDKlL5Y5wbzRuT1DFT-184" edge="1">
          <mxGeometry relative="1" as="geometry" />
        </mxCell>
        <mxCell id="9EqDKlL5Y5wbzRuT1DFT-186" value="Авторизация сотрудника" style="shape=process;whiteSpace=wrap;html=1;backgroundOutline=1;fontFamily=Times New Roman;rounded=0;fontSize=18;fontStyle=1;strokeWidth=2;" parent="1" vertex="1">
          <mxGeometry x="290" width="160" height="80" as="geometry" />
        </mxCell>
        <mxCell id="9EqDKlL5Y5wbzRuT1DFT-187" value="Да" style="text;html=1;align=center;verticalAlign=middle;resizable=0;points=[];autosize=1;strokeColor=none;fillColor=none;fontFamily=Times New Roman;fontStyle=1;fontSize=18;" parent="1" vertex="1">
          <mxGeometry x="330" y="-42" width="40" height="40" as="geometry" />
        </mxCell>
        <mxCell id="9EqDKlL5Y5wbzRuT1DFT-188" style="edgeStyle=orthogonalEdgeStyle;rounded=0;orthogonalLoop=1;jettySize=auto;html=1;strokeWidth=2;" parent="1" source="9EqDKlL5Y5wbzRuT1DFT-189" edge="1">
          <mxGeometry relative="1" as="geometry">
            <mxPoint x="370" y="100" as="targetPoint" />
            <Array as="points">
              <mxPoint x="580" y="100" />
            </Array>
          </mxGeometry>
        </mxCell>
        <mxCell id="9EqDKlL5Y5wbzRuT1DFT-189" value="Сообщение &quot;Неверные данные&quot;" style="shape=parallelogram;perimeter=parallelogramPerimeter;whiteSpace=wrap;html=1;fixedSize=1;strokeWidth=2;rounded=0;fontFamily=Times New Roman;fontSize=18;fontStyle=1" parent="1" vertex="1">
          <mxGeometry x="500" width="160" height="80" as="geometry" />
        </mxCell>
        <mxCell id="9EqDKlL5Y5wbzRuT1DFT-190" value="Нет" style="text;html=1;align=center;verticalAlign=middle;resizable=0;points=[];autosize=1;strokeColor=none;fillColor=none;fontFamily=Times New Roman;fontStyle=1;fontSize=18;" parent="1" vertex="1">
          <mxGeometry x="450" y="-120" width="50" height="40" as="geometry" />
        </mxCell>
        <mxCell id="9EqDKlL5Y5wbzRuT1DFT-191" style="edgeStyle=orthogonalEdgeStyle;rounded=0;orthogonalLoop=1;jettySize=auto;html=1;entryX=0.5;entryY=1;entryDx=0;entryDy=0;endArrow=none;startFill=0;strokeWidth=2;" parent="1" source="9EqDKlL5Y5wbzRuT1DFT-193" target="9EqDKlL5Y5wbzRuT1DFT-186" edge="1">
          <mxGeometry relative="1" as="geometry" />
        </mxCell>
        <mxCell id="9EqDKlL5Y5wbzRuT1DFT-192" style="edgeStyle=orthogonalEdgeStyle;rounded=0;orthogonalLoop=1;jettySize=auto;html=1;exitX=0.5;exitY=1;exitDx=0;exitDy=0;entryX=0.5;entryY=0;entryDx=0;entryDy=0;endArrow=none;startFill=0;strokeWidth=2;" parent="1" source="9EqDKlL5Y5wbzRuT1DFT-193" target="9EqDKlL5Y5wbzRuT1DFT-181" edge="1">
          <mxGeometry relative="1" as="geometry" />
        </mxCell>
        <mxCell id="9EqDKlL5Y5wbzRuT1DFT-193" value="Проверка&lt;div&gt;&lt;span style=&quot;background-color: transparent; color: light-dark(rgb(0, 0, 0), rgb(255, 255, 255));&quot;&gt;данных, данные верны&lt;/span&gt;&lt;/div&gt;" style="shape=loopLimit;whiteSpace=wrap;html=1;strokeWidth=2;fontFamily=Times New Roman;fontStyle=1;fontSize=18;flipH=1;flipV=1;" parent="1" vertex="1">
          <mxGeometry x="290" y="120" width="160" height="80" as="geometry" />
        </mxCell>
        <mxCell id="9EqDKlL5Y5wbzRuT1DFT-194" style="edgeStyle=orthogonalEdgeStyle;rounded=0;orthogonalLoop=1;jettySize=auto;html=1;endArrow=none;startFill=0;dashed=1;fontFamily=Times New Roman;fontSize=18;fontStyle=1;strokeWidth=2;" parent="1" source="9EqDKlL5Y5wbzRuT1DFT-195" edge="1">
          <mxGeometry relative="1" as="geometry">
            <mxPoint x="450" y="160" as="targetPoint" />
          </mxGeometry>
        </mxCell>
        <mxCell id="9EqDKlL5Y5wbzRuT1DFT-195" value="" style="strokeWidth=2;html=1;shape=mxgraph.flowchart.annotation_2;align=left;labelPosition=right;pointerEvents=1;rounded=0;fontFamily=Times New Roman;fontSize=18;fontStyle=1" parent="1" vertex="1">
          <mxGeometry x="490" y="130" width="50" height="60" as="geometry" />
        </mxCell>
        <mxCell id="9EqDKlL5Y5wbzRuT1DFT-196" value="Проверка введенных&lt;div&gt;логина и пароля&lt;/div&gt;" style="text;html=1;align=left;verticalAlign=middle;resizable=0;points=[];autosize=1;strokeColor=none;fillColor=none;rounded=0;fontFamily=Times New Roman;fontSize=18;fontStyle=1" parent="1" vertex="1">
          <mxGeometry x="530" y="130" width="180" height="60" as="geometry" />
        </mxCell>
        <mxCell id="9EqDKlL5Y5wbzRuT1DFT-197" style="edgeStyle=orthogonalEdgeStyle;rounded=0;orthogonalLoop=1;jettySize=auto;html=1;entryX=1;entryY=0.5;entryDx=0;entryDy=0;strokeWidth=2;" parent="1" source="9EqDKlL5Y5wbzRuT1DFT-182" target="9EqDKlL5Y5wbzRuT1DFT-181" edge="1">
          <mxGeometry relative="1" as="geometry" />
        </mxCell>
        <mxCell id="9EqDKlL5Y5wbzRuT1DFT-201" style="edgeStyle=orthogonalEdgeStyle;rounded=0;orthogonalLoop=1;jettySize=auto;html=1;entryX=0.5;entryY=0;entryDx=0;entryDy=0;endArrow=none;startFill=0;strokeWidth=2;" parent="1" source="9EqDKlL5Y5wbzRuT1DFT-198" target="9EqDKlL5Y5wbzRuT1DFT-184" edge="1">
          <mxGeometry relative="1" as="geometry" />
        </mxCell>
        <mxCell id="9EqDKlL5Y5wbzRuT1DFT-198" value="Получение&lt;div&gt;данных&lt;/div&gt;" style="shape=process;whiteSpace=wrap;html=1;backgroundOutline=1;align=center;fontFamily=Times New Roman;rounded=0;fontSize=18;fontStyle=1;strokeWidth=2;" parent="1" vertex="1">
          <mxGeometry x="290" y="-240" width="160" height="80" as="geometry" />
        </mxCell>
        <mxCell id="9EqDKlL5Y5wbzRuT1DFT-199" value="&lt;div style=&quot;&quot;&gt;Результат&lt;/div&gt;&lt;div style=&quot;&quot;&gt;запроса&lt;/div&gt;" style="strokeWidth=2;html=1;shape=mxgraph.flowchart.direct_data;whiteSpace=wrap;align=center;fontFamily=Times New Roman;rounded=0;fontSize=18;fontStyle=1" parent="1" vertex="1">
          <mxGeometry x="490" y="-240" width="160" height="80" as="geometry" />
        </mxCell>
        <mxCell id="9EqDKlL5Y5wbzRuT1DFT-200" style="edgeStyle=orthogonalEdgeStyle;rounded=0;orthogonalLoop=1;jettySize=auto;html=1;entryX=0;entryY=0.5;entryDx=0;entryDy=0;entryPerimeter=0;strokeWidth=2;endArrow=none;startFill=1;endFill=1;startArrow=classic;" parent="1" source="9EqDKlL5Y5wbzRuT1DFT-198" target="9EqDKlL5Y5wbzRuT1DFT-199" edge="1">
          <mxGeometry relative="1" as="geometry" />
        </mxCell>
        <mxCell id="9EqDKlL5Y5wbzRuT1DFT-202" value="Начало" style="rounded=1;whiteSpace=wrap;html=1;strokeColor=default;strokeWidth=2;align=center;verticalAlign=middle;arcSize=50;fontFamily=Times New Roman;fontSize=18;fontColor=default;fontStyle=1;fillColor=default;" parent="1" vertex="1">
          <mxGeometry x="1320" y="-320" width="160" height="40" as="geometry" />
        </mxCell>
        <mxCell id="_ACzCQE8blFFiLmsyVWc-6" style="edgeStyle=orthogonalEdgeStyle;rounded=0;orthogonalLoop=1;jettySize=auto;html=1;entryX=0.5;entryY=1;entryDx=0;entryDy=0;strokeWidth=2;endArrow=none;startFill=0;" parent="1" source="_ACzCQE8blFFiLmsyVWc-5" target="sZgTdZ2AV089rUdlqtD1-5" edge="1">
          <mxGeometry relative="1" as="geometry" />
        </mxCell>
        <mxCell id="_ACzCQE8blFFiLmsyVWc-5" value="Обработка заказа" style="shape=loopLimit;whiteSpace=wrap;html=1;strokeWidth=2;fontFamily=Times New Roman;fontStyle=1;fontSize=18;" parent="1" vertex="1">
          <mxGeometry x="1320" y="-120" width="160" height="80" as="geometry" />
        </mxCell>
        <mxCell id="_ACzCQE8blFFiLmsyVWc-9" value="" style="group" parent="1" vertex="1" connectable="0">
          <mxGeometry x="1320" y="120" width="160" height="80" as="geometry" />
        </mxCell>
        <mxCell id="_ACzCQE8blFFiLmsyVWc-15" style="edgeStyle=orthogonalEdgeStyle;rounded=0;orthogonalLoop=1;jettySize=auto;html=1;strokeWidth=2;" parent="_ACzCQE8blFFiLmsyVWc-9" source="sZgTdZ2AV089rUdlqtD1-21" edge="1">
          <mxGeometry relative="1" as="geometry">
            <mxPoint x="80" y="220" as="targetPoint" />
            <Array as="points">
              <mxPoint x="200" y="40" />
              <mxPoint x="200" y="220" />
            </Array>
          </mxGeometry>
        </mxCell>
        <mxCell id="sZgTdZ2AV089rUdlqtD1-21" value="" style="rhombus;whiteSpace=wrap;html=1;strokeWidth=2;rounded=0;fontFamily=Times New Roman;movable=1;resizable=1;rotatable=1;deletable=1;editable=1;locked=0;connectable=1;fontSize=18;fontStyle=1" parent="_ACzCQE8blFFiLmsyVWc-9" vertex="1">
          <mxGeometry width="160" height="80" as="geometry" />
        </mxCell>
        <mxCell id="_ACzCQE8blFFiLmsyVWc-8" value="&lt;span style=&quot;color: rgb(0, 0, 0); font-family: &amp;quot;Times New Roman&amp;quot;; font-style: normal; font-variant-ligatures: normal; font-variant-caps: normal; font-weight: 700; letter-spacing: normal; orphans: 2; text-indent: 0px; text-transform: none; widows: 2; word-spacing: 0px; -webkit-text-stroke-width: 0px; white-space: normal; text-decoration-thickness: initial; text-decoration-style: initial; text-decoration-color: initial; float: none; background-color: light-dark(#ffffff, var(--ge-dark-color, #121212)); display: inline !important;&quot;&gt;&lt;font style=&quot;font-size: 17px;&quot;&gt;Заказ&lt;/font&gt;&lt;/span&gt;&lt;div style=&quot;forced-color-adjust: none; color: rgb(0, 0, 0); font-family: &amp;quot;Times New Roman&amp;quot;; font-style: normal; font-variant-ligatures: normal; font-variant-caps: normal; font-weight: 700; letter-spacing: normal; orphans: 2; text-indent: 0px; text-transform: none; widows: 2; word-spacing: 0px; -webkit-text-stroke-width: 0px; white-space: normal; text-decoration-thickness: initial; text-decoration-style: initial; text-decoration-color: initial;&quot;&gt;&lt;span style=&quot;background-color: light-dark(#ffffff, var(--ge-dark-color, #121212));&quot;&gt;&lt;font style=&quot;font-size: 17px;&quot;&gt;просмотрен?&lt;/font&gt;&lt;/span&gt;&lt;/div&gt;" style="text;whiteSpace=wrap;html=1;align=center;" parent="_ACzCQE8blFFiLmsyVWc-9" vertex="1">
          <mxGeometry x="25" y="9" width="110" height="50" as="geometry" />
        </mxCell>
        <mxCell id="_ACzCQE8blFFiLmsyVWc-10" style="edgeStyle=orthogonalEdgeStyle;rounded=0;orthogonalLoop=1;jettySize=auto;html=1;entryX=0.5;entryY=1;entryDx=0;entryDy=0;strokeWidth=2;endArrow=none;startFill=0;" parent="1" source="sZgTdZ2AV089rUdlqtD1-21" target="sZgTdZ2AV089rUdlqtD1-8" edge="1">
          <mxGeometry relative="1" as="geometry" />
        </mxCell>
        <mxCell id="_ACzCQE8blFFiLmsyVWc-12" value="Да" style="text;html=1;align=center;verticalAlign=middle;resizable=0;points=[];autosize=1;strokeColor=none;fillColor=none;fontFamily=Times New Roman;fontStyle=1;fontSize=18;" parent="1" vertex="1">
          <mxGeometry x="1360" y="200" width="40" height="40" as="geometry" />
        </mxCell>
        <mxCell id="_ACzCQE8blFFiLmsyVWc-16" value="Нет" style="text;html=1;align=center;verticalAlign=middle;resizable=0;points=[];autosize=1;strokeColor=none;fillColor=none;fontFamily=Times New Roman;fontStyle=1;fontSize=18;" parent="1" vertex="1">
          <mxGeometry x="1470" y="120" width="50" height="40" as="geometry" />
        </mxCell>
        <mxCell id="_ACzCQE8blFFiLmsyVWc-20" style="edgeStyle=orthogonalEdgeStyle;rounded=0;orthogonalLoop=1;jettySize=auto;html=1;entryX=0.5;entryY=0;entryDx=0;entryDy=0;endArrow=none;startFill=0;strokeWidth=2;" parent="1" source="_ACzCQE8blFFiLmsyVWc-17" target="sZgTdZ2AV089rUdlqtD1-28" edge="1">
          <mxGeometry relative="1" as="geometry" />
        </mxCell>
        <mxCell id="_ACzCQE8blFFiLmsyVWc-17" value="Обработка заказа, статус = &#39;Уточнение&#39;" style="shape=loopLimit;whiteSpace=wrap;html=1;strokeWidth=2;fontFamily=Times New Roman;fontStyle=1;fontSize=18;flipV=1;" parent="1" vertex="1">
          <mxGeometry x="1570" y="-240" width="160" height="80" as="geometry" />
        </mxCell>
        <mxCell id="_ACzCQE8blFFiLmsyVWc-19" style="edgeStyle=orthogonalEdgeStyle;rounded=0;orthogonalLoop=1;jettySize=auto;html=1;entryX=0.5;entryY=0;entryDx=0;entryDy=0;strokeWidth=2;endArrow=none;startFill=0;" parent="1" source="_ACzCQE8blFFiLmsyVWc-18" target="_ACzCQE8blFFiLmsyVWc-17" edge="1">
          <mxGeometry relative="1" as="geometry" />
        </mxCell>
        <mxCell id="_ACzCQE8blFFiLmsyVWc-18" value="1" style="ellipse;whiteSpace=wrap;html=1;aspect=fixed;rounded=0;fontFamily=Times New Roman;movable=1;resizable=1;rotatable=1;deletable=1;editable=1;locked=0;connectable=1;strokeWidth=2;fontSize=18;fontStyle=1" parent="1" vertex="1">
          <mxGeometry x="1630" y="-320" width="40" height="40" as="geometry" />
        </mxCell>
        <mxCell id="_ACzCQE8blFFiLmsyVWc-22" style="edgeStyle=orthogonalEdgeStyle;rounded=0;orthogonalLoop=1;jettySize=auto;html=1;entryX=1;entryY=0.5;entryDx=0;entryDy=0;endArrow=none;startFill=0;strokeWidth=2;dashed=1;" parent="1" source="sZgTdZ2AV089rUdlqtD1-29" target="sZgTdZ2AV089rUdlqtD1-28" edge="1">
          <mxGeometry relative="1" as="geometry" />
        </mxCell>
        <mxCell id="_ACzCQE8blFFiLmsyVWc-25" value="&lt;b&gt;&lt;font style=&quot;font-size: 18px;&quot; face=&quot;Times New Roman&quot;&gt;2&lt;/font&gt;&lt;/b&gt;" style="ellipse;whiteSpace=wrap;html=1;aspect=fixed;rounded=0;fontFamily=Verdana;movable=1;resizable=1;rotatable=1;deletable=1;editable=1;locked=0;connectable=1;strokeWidth=2;" parent="1" vertex="1">
          <mxGeometry x="1780" y="20" width="40" height="40" as="geometry" />
        </mxCell>
        <mxCell id="_ACzCQE8blFFiLmsyVWc-26" value="Нет" style="text;html=1;align=center;verticalAlign=middle;resizable=0;points=[];autosize=1;strokeColor=none;fillColor=none;fontSize=18;fontFamily=Times New Roman;fontStyle=1" parent="1" vertex="1">
          <mxGeometry x="1730" width="50" height="40" as="geometry" />
        </mxCell>
        <mxCell id="_ACzCQE8blFFiLmsyVWc-30" style="edgeStyle=orthogonalEdgeStyle;rounded=0;orthogonalLoop=1;jettySize=auto;html=1;entryX=0.5;entryY=1;entryDx=0;entryDy=0;endArrow=none;startFill=0;strokeWidth=2;" parent="1" source="_ACzCQE8blFFiLmsyVWc-29" target="sZgTdZ2AV089rUdlqtD1-41" edge="1">
          <mxGeometry relative="1" as="geometry" />
        </mxCell>
        <mxCell id="_ACzCQE8blFFiLmsyVWc-29" value="Статус = &#39;Ожидание&#39;" style="rounded=0;whiteSpace=wrap;html=1;align=center;fontFamily=Times New Roman;movable=1;resizable=1;rotatable=1;deletable=1;editable=1;locked=0;connectable=1;fontSize=18;fontStyle=1;strokeWidth=2;" parent="1" vertex="1">
          <mxGeometry x="1570" y="120" width="160" height="80" as="geometry" />
        </mxCell>
        <mxCell id="_ACzCQE8blFFiLmsyVWc-31" value="&lt;font style=&quot;font-size: 18px;&quot;&gt;Да&lt;/font&gt;" style="text;html=1;align=center;verticalAlign=middle;resizable=0;points=[];autosize=1;strokeColor=none;fillColor=none;fontFamily=Times New Roman;fontStyle=1" parent="1" vertex="1">
          <mxGeometry x="1610" y="80" width="40" height="40" as="geometry" />
        </mxCell>
        <mxCell id="_ACzCQE8blFFiLmsyVWc-34" style="edgeStyle=orthogonalEdgeStyle;rounded=0;orthogonalLoop=1;jettySize=auto;html=1;entryX=0.5;entryY=1;entryDx=0;entryDy=0;strokeWidth=2;endArrow=none;startFill=0;" parent="1" source="_ACzCQE8blFFiLmsyVWc-33" target="sZgTdZ2AV089rUdlqtD1-120" edge="1">
          <mxGeometry relative="1" as="geometry" />
        </mxCell>
        <mxCell id="_ACzCQE8blFFiLmsyVWc-33" value="3" style="ellipse;whiteSpace=wrap;html=1;aspect=fixed;rounded=0;fontFamily=Times New Roman;movable=1;resizable=1;rotatable=1;deletable=1;editable=1;locked=0;connectable=1;strokeWidth=2;fontSize=18;fontStyle=1" parent="1" vertex="1">
          <mxGeometry x="1630" y="360" width="40" height="40" as="geometry" />
        </mxCell>
        <mxCell id="_ACzCQE8blFFiLmsyVWc-35" value="3" style="ellipse;whiteSpace=wrap;html=1;aspect=fixed;rounded=0;fontFamily=Times New Roman;movable=1;resizable=1;rotatable=1;deletable=1;editable=1;locked=0;connectable=1;strokeWidth=2;fontSize=18;fontStyle=1" parent="1" vertex="1">
          <mxGeometry x="2060" y="-320" width="40" height="40" as="geometry" />
        </mxCell>
        <mxCell id="_ACzCQE8blFFiLmsyVWc-36" style="edgeStyle=orthogonalEdgeStyle;rounded=1;orthogonalLoop=1;jettySize=auto;html=1;endArrow=none;startFill=0;fontFamily=Verdana;movable=1;resizable=1;rotatable=1;deletable=1;editable=1;locked=0;connectable=1;strokeWidth=2;entryX=0.5;entryY=0;entryDx=0;entryDy=0;exitX=0.5;exitY=1;exitDx=0;exitDy=0;" parent="1" source="_ACzCQE8blFFiLmsyVWc-35" target="_ACzCQE8blFFiLmsyVWc-37" edge="1">
          <mxGeometry relative="1" as="geometry">
            <mxPoint x="2090" y="-270" as="sourcePoint" />
            <mxPoint x="2080" y="-240" as="targetPoint" />
          </mxGeometry>
        </mxCell>
        <mxCell id="_ACzCQE8blFFiLmsyVWc-37" value="Оповещение клиента" style="shape=process;whiteSpace=wrap;html=1;backgroundOutline=1;align=center;fontFamily=Times New Roman;rounded=0;movable=1;resizable=1;rotatable=1;deletable=1;editable=1;locked=0;connectable=1;fontSize=18;fontStyle=1;strokeWidth=2;" parent="1" vertex="1">
          <mxGeometry x="2000" y="-240" width="160" height="80" as="geometry" />
        </mxCell>
        <mxCell id="_ACzCQE8blFFiLmsyVWc-41" style="edgeStyle=orthogonalEdgeStyle;rounded=0;orthogonalLoop=1;jettySize=auto;html=1;entryX=0.5;entryY=1;entryDx=0;entryDy=0;strokeWidth=2;endArrow=none;startFill=0;" parent="1" source="_ACzCQE8blFFiLmsyVWc-40" target="_ACzCQE8blFFiLmsyVWc-37" edge="1">
          <mxGeometry relative="1" as="geometry" />
        </mxCell>
        <mxCell id="_ACzCQE8blFFiLmsyVWc-40" value="Выполнение заказа" style="shape=loopLimit;whiteSpace=wrap;html=1;strokeWidth=2;fontFamily=Times New Roman;fontStyle=1;fontSize=18;" parent="1" vertex="1">
          <mxGeometry x="2000" y="-120" width="160" height="80" as="geometry" />
        </mxCell>
        <mxCell id="_ACzCQE8blFFiLmsyVWc-43" style="edgeStyle=orthogonalEdgeStyle;rounded=0;orthogonalLoop=1;jettySize=auto;html=1;entryX=0.5;entryY=1;entryDx=0;entryDy=0;strokeWidth=2;endArrow=none;startFill=0;" parent="1" source="_ACzCQE8blFFiLmsyVWc-42" target="_ACzCQE8blFFiLmsyVWc-40" edge="1">
          <mxGeometry relative="1" as="geometry" />
        </mxCell>
        <mxCell id="_ACzCQE8blFFiLmsyVWc-42" value="Изменение&lt;div&gt;статуса&lt;/div&gt;" style="rounded=0;whiteSpace=wrap;html=1;align=center;fontFamily=Times New Roman;movable=1;resizable=1;rotatable=1;deletable=1;editable=1;locked=0;connectable=1;fontSize=18;fontStyle=1;strokeWidth=2;" parent="1" vertex="1">
          <mxGeometry x="2000" width="160" height="80" as="geometry" />
        </mxCell>
        <mxCell id="_ACzCQE8blFFiLmsyVWc-46" value="" style="group" parent="1" vertex="1" connectable="0">
          <mxGeometry x="2000" y="120" width="160" height="80" as="geometry" />
        </mxCell>
        <mxCell id="_ACzCQE8blFFiLmsyVWc-44" value="" style="rhombus;whiteSpace=wrap;html=1;strokeWidth=2;rounded=0;fontFamily=Times New Roman;movable=1;resizable=1;rotatable=1;deletable=1;editable=1;locked=0;connectable=1;fontSize=18;fontStyle=1" parent="_ACzCQE8blFFiLmsyVWc-46" vertex="1">
          <mxGeometry width="160" height="80" as="geometry" />
        </mxCell>
        <mxCell id="_ACzCQE8blFFiLmsyVWc-45" value="&lt;font face=&quot;Times New Roman&quot; style=&quot;font-size: 18px;&quot;&gt;&lt;span style=&quot;color: rgb(0, 0, 0); font-style: normal; font-variant-ligatures: normal; font-variant-caps: normal; font-weight: 700; letter-spacing: normal; orphans: 2; text-indent: 0px; text-transform: none; widows: 2; word-spacing: 0px; -webkit-text-stroke-width: 0px; white-space: normal; text-decoration-thickness: initial; text-decoration-style: initial; text-decoration-color: initial; float: none; display: inline !important;&quot;&gt;Статус =&amp;nbsp;&lt;/span&gt;&lt;span style=&quot;font-weight: 700; float: none; color: rgb(0, 0, 0); display: inline !important;&quot;&gt;&lt;font style=&quot;&quot;&gt;&#39;Готов&lt;/font&gt;&lt;/span&gt;&lt;span style=&quot;color: light-dark(rgb(0, 0, 0), rgb(255, 255, 255)); font-weight: 700;&quot;&gt;&#39;&lt;/span&gt;&lt;/font&gt;" style="text;whiteSpace=wrap;html=1;align=center;" parent="_ACzCQE8blFFiLmsyVWc-46" vertex="1">
          <mxGeometry x="10" y="23" width="140" height="30" as="geometry" />
        </mxCell>
        <mxCell id="_ACzCQE8blFFiLmsyVWc-47" style="edgeStyle=orthogonalEdgeStyle;rounded=0;orthogonalLoop=1;jettySize=auto;html=1;entryX=0.5;entryY=1;entryDx=0;entryDy=0;strokeWidth=2;endArrow=none;startFill=0;" parent="1" source="_ACzCQE8blFFiLmsyVWc-44" target="_ACzCQE8blFFiLmsyVWc-42" edge="1">
          <mxGeometry relative="1" as="geometry" />
        </mxCell>
        <mxCell id="_ACzCQE8blFFiLmsyVWc-49" value="" style="group" parent="1" vertex="1" connectable="0">
          <mxGeometry x="2190" y="180" width="160" height="80" as="geometry" />
        </mxCell>
        <mxCell id="sZgTdZ2AV089rUdlqtD1-103" value="" style="rhombus;whiteSpace=wrap;html=1;strokeWidth=2;rounded=0;fontFamily=Times New Roman;movable=1;resizable=1;rotatable=1;deletable=1;editable=1;locked=0;connectable=1;fontSize=18;fontStyle=1" parent="_ACzCQE8blFFiLmsyVWc-49" vertex="1">
          <mxGeometry width="160" height="80" as="geometry" />
        </mxCell>
        <mxCell id="_ACzCQE8blFFiLmsyVWc-55" style="edgeStyle=orthogonalEdgeStyle;rounded=0;orthogonalLoop=1;jettySize=auto;html=1;strokeWidth=2;" parent="_ACzCQE8blFFiLmsyVWc-49" edge="1">
          <mxGeometry relative="1" as="geometry">
            <mxPoint x="-110" y="100" as="targetPoint" />
            <mxPoint x="80" y="80" as="sourcePoint" />
            <Array as="points">
              <mxPoint x="80" y="100" />
              <mxPoint x="-110" y="100" />
            </Array>
          </mxGeometry>
        </mxCell>
        <mxCell id="_ACzCQE8blFFiLmsyVWc-48" value="&lt;span style=&quot;color: rgb(0, 0, 0); font-family: &amp;quot;Times New Roman&amp;quot;; font-size: 18px; font-style: normal; font-variant-ligatures: normal; font-variant-caps: normal; font-weight: 700; letter-spacing: normal; orphans: 2; text-indent: 0px; text-transform: none; widows: 2; word-spacing: 0px; -webkit-text-stroke-width: 0px; white-space: normal; text-decoration-thickness: initial; text-decoration-style: initial; text-decoration-color: initial; float: none; background-color: light-dark(#ffffff, var(--ge-dark-color, #121212)); display: inline !important;&quot;&gt;Заказ&lt;/span&gt;&lt;div style=&quot;forced-color-adjust: none; color: rgb(0, 0, 0); font-family: &amp;quot;Times New Roman&amp;quot;; font-size: 18px; font-style: normal; font-variant-ligatures: normal; font-variant-caps: normal; font-weight: 700; letter-spacing: normal; orphans: 2; text-indent: 0px; text-transform: none; widows: 2; word-spacing: 0px; -webkit-text-stroke-width: 0px; white-space: normal; text-decoration-thickness: initial; text-decoration-style: initial; text-decoration-color: initial;&quot;&gt;&lt;span style=&quot;background-color: light-dark(#ffffff, var(--ge-dark-color, #121212));&quot;&gt;выполним?&lt;/span&gt;&lt;/div&gt;" style="text;whiteSpace=wrap;html=1;align=center;" parent="_ACzCQE8blFFiLmsyVWc-49" vertex="1">
          <mxGeometry x="15" y="5" width="130" height="70" as="geometry" />
        </mxCell>
        <mxCell id="_ACzCQE8blFFiLmsyVWc-50" value="Нет" style="text;html=1;align=center;verticalAlign=middle;resizable=0;points=[];autosize=1;strokeColor=none;fillColor=none;fontSize=18;fontFamily=Times New Roman;fontStyle=1" parent="1" vertex="1">
          <mxGeometry x="2160" y="120" width="50" height="40" as="geometry" />
        </mxCell>
        <mxCell id="_ACzCQE8blFFiLmsyVWc-54" style="edgeStyle=orthogonalEdgeStyle;rounded=0;orthogonalLoop=1;jettySize=auto;html=1;entryX=0.5;entryY=1;entryDx=0;entryDy=0;strokeWidth=2;endArrow=none;startFill=0;" parent="1" source="_ACzCQE8blFFiLmsyVWc-52" target="_ACzCQE8blFFiLmsyVWc-44" edge="1">
          <mxGeometry relative="1" as="geometry" />
        </mxCell>
        <mxCell id="_ACzCQE8blFFiLmsyVWc-52" value="Оповещение клиента" style="shape=process;whiteSpace=wrap;html=1;backgroundOutline=1;align=center;fontFamily=Times New Roman;rounded=0;movable=1;resizable=1;rotatable=1;deletable=1;editable=1;locked=0;connectable=1;fontSize=18;fontStyle=1;strokeWidth=2;" parent="1" vertex="1">
          <mxGeometry x="2000" y="301" width="160" height="80" as="geometry" />
        </mxCell>
        <mxCell id="_ACzCQE8blFFiLmsyVWc-62" style="edgeStyle=orthogonalEdgeStyle;rounded=0;orthogonalLoop=1;jettySize=auto;html=1;entryX=0.5;entryY=1;entryDx=0;entryDy=0;strokeWidth=2;endArrow=none;startFill=0;" parent="1" source="_ACzCQE8blFFiLmsyVWc-53" target="_ACzCQE8blFFiLmsyVWc-60" edge="1">
          <mxGeometry relative="1" as="geometry" />
        </mxCell>
        <mxCell id="_ACzCQE8blFFiLmsyVWc-53" value="Выдача готового заказа" style="rounded=0;whiteSpace=wrap;html=1;align=center;fontFamily=Times New Roman;movable=1;resizable=1;rotatable=1;deletable=1;editable=1;locked=0;connectable=1;fontSize=18;fontStyle=1;strokeWidth=2;" parent="1" vertex="1">
          <mxGeometry x="2270" y="-120" width="160" height="80" as="geometry" />
        </mxCell>
        <mxCell id="_ACzCQE8blFFiLmsyVWc-57" style="edgeStyle=orthogonalEdgeStyle;rounded=0;orthogonalLoop=1;jettySize=auto;html=1;entryX=0.5;entryY=1;entryDx=0;entryDy=0;strokeWidth=2;endArrow=none;startFill=0;" parent="1" source="_ACzCQE8blFFiLmsyVWc-56" target="_ACzCQE8blFFiLmsyVWc-52" edge="1">
          <mxGeometry relative="1" as="geometry" />
        </mxCell>
        <mxCell id="_ACzCQE8blFFiLmsyVWc-56" value="4" style="ellipse;whiteSpace=wrap;html=1;aspect=fixed;rounded=0;fontFamily=Times New Roman;movable=1;resizable=1;rotatable=1;deletable=1;editable=1;locked=0;connectable=1;strokeWidth=2;fontSize=18;fontStyle=1" parent="1" vertex="1">
          <mxGeometry x="2060" y="400" width="40" height="40" as="geometry" />
        </mxCell>
        <mxCell id="_ACzCQE8blFFiLmsyVWc-59" value="4" style="ellipse;whiteSpace=wrap;html=1;aspect=fixed;rounded=0;fontFamily=Times New Roman;movable=1;resizable=1;rotatable=1;deletable=1;editable=1;locked=0;connectable=1;strokeWidth=2;fontSize=18;fontStyle=1" parent="1" vertex="1">
          <mxGeometry x="2330" y="-320" width="40" height="40" as="geometry" />
        </mxCell>
        <mxCell id="_ACzCQE8blFFiLmsyVWc-61" style="edgeStyle=orthogonalEdgeStyle;rounded=0;orthogonalLoop=1;jettySize=auto;html=1;entryX=0.5;entryY=1;entryDx=0;entryDy=0;strokeWidth=2;endArrow=none;startFill=0;" parent="1" source="_ACzCQE8blFFiLmsyVWc-60" target="_ACzCQE8blFFiLmsyVWc-59" edge="1">
          <mxGeometry relative="1" as="geometry" />
        </mxCell>
        <mxCell id="_ACzCQE8blFFiLmsyVWc-60" value="Выполнение заказа, статус = &#39;Готов к выдаче&#39;" style="shape=loopLimit;whiteSpace=wrap;html=1;strokeWidth=2;fontFamily=Times New Roman;fontStyle=1;fontSize=18;flipV=1;" parent="1" vertex="1">
          <mxGeometry x="2270" y="-240" width="160" height="80" as="geometry" />
        </mxCell>
        <mxCell id="_ACzCQE8blFFiLmsyVWc-64" style="edgeStyle=orthogonalEdgeStyle;rounded=0;orthogonalLoop=1;jettySize=auto;html=1;entryX=0.5;entryY=1;entryDx=0;entryDy=0;strokeWidth=2;endArrow=none;startFill=0;" parent="1" source="_ACzCQE8blFFiLmsyVWc-63" target="_ACzCQE8blFFiLmsyVWc-53" edge="1">
          <mxGeometry relative="1" as="geometry" />
        </mxCell>
        <mxCell id="_ACzCQE8blFFiLmsyVWc-63" value="Конец" style="rounded=1;whiteSpace=wrap;html=1;strokeColor=default;strokeWidth=2;align=center;verticalAlign=middle;arcSize=50;fontFamily=Times New Roman;fontSize=18;fontColor=default;fontStyle=1;fillColor=default;" parent="1" vertex="1">
          <mxGeometry x="2270" width="160" height="40" as="geometry" />
        </mxCell>
        <mxCell id="_ACzCQE8blFFiLmsyVWc-65" value="&lt;font style=&quot;font-size: 18px;&quot; face=&quot;Times New Roman&quot;&gt;&lt;b&gt;Да&lt;/b&gt;&lt;/font&gt;" style="text;html=1;align=center;verticalAlign=middle;resizable=0;points=[];autosize=1;strokeColor=none;fillColor=none;" parent="1" vertex="1">
          <mxGeometry x="2270" y="250" width="40" height="40" as="geometry" />
        </mxCell>
        <mxCell id="_ACzCQE8blFFiLmsyVWc-71" style="edgeStyle=orthogonalEdgeStyle;rounded=0;orthogonalLoop=1;jettySize=auto;html=1;entryX=0.5;entryY=1;entryDx=0;entryDy=0;strokeWidth=2;endArrow=none;startFill=0;" parent="1" source="_ACzCQE8blFFiLmsyVWc-66" target="sZgTdZ2AV089rUdlqtD1-101" edge="1">
          <mxGeometry relative="1" as="geometry" />
        </mxCell>
        <mxCell id="_ACzCQE8blFFiLmsyVWc-66" value="5" style="ellipse;whiteSpace=wrap;html=1;aspect=fixed;rounded=0;fontFamily=Times New Roman;movable=1;resizable=1;rotatable=1;deletable=1;editable=1;locked=0;connectable=1;strokeWidth=2;fontSize=18;fontStyle=1" parent="1" vertex="1">
          <mxGeometry x="2430" y="360" width="40" height="40" as="geometry" />
        </mxCell>
        <mxCell id="_ACzCQE8blFFiLmsyVWc-67" style="edgeStyle=orthogonalEdgeStyle;rounded=0;orthogonalLoop=1;jettySize=auto;html=1;entryX=0.5;entryY=0;entryDx=0;entryDy=0;strokeWidth=2;endArrow=none;startFill=0;" parent="1" source="sZgTdZ2AV089rUdlqtD1-103" target="sZgTdZ2AV089rUdlqtD1-101" edge="1">
          <mxGeometry relative="1" as="geometry" />
        </mxCell>
        <mxCell id="_ACzCQE8blFFiLmsyVWc-68" value="Нет" style="text;html=1;align=center;verticalAlign=middle;resizable=0;points=[];autosize=1;strokeColor=none;fillColor=none;fontSize=18;fontFamily=Times New Roman;fontStyle=1" parent="1" vertex="1">
          <mxGeometry x="2340" y="170" width="50" height="40" as="geometry" />
        </mxCell>
        <mxCell id="_ACzCQE8blFFiLmsyVWc-72" style="edgeStyle=orthogonalEdgeStyle;rounded=0;orthogonalLoop=1;jettySize=auto;html=1;entryX=0.5;entryY=0;entryDx=0;entryDy=0;strokeWidth=2;endArrow=none;startFill=0;" parent="1" source="_ACzCQE8blFFiLmsyVWc-69" target="sZgTdZ2AV089rUdlqtD1-101" edge="1">
          <mxGeometry relative="1" as="geometry" />
        </mxCell>
        <mxCell id="_ACzCQE8blFFiLmsyVWc-69" value="2" style="ellipse;whiteSpace=wrap;html=1;aspect=fixed;rounded=0;fontFamily=Times New Roman;movable=1;resizable=1;rotatable=1;deletable=1;editable=1;locked=0;connectable=1;strokeWidth=2;fontSize=18;fontStyle=1" parent="1" vertex="1">
          <mxGeometry x="2430" y="130" width="40" height="40" as="geometry" />
        </mxCell>
        <mxCell id="_ACzCQE8blFFiLmsyVWc-73" value="5" style="ellipse;whiteSpace=wrap;html=1;aspect=fixed;rounded=0;fontFamily=Times New Roman;movable=1;resizable=1;rotatable=1;deletable=1;editable=1;locked=0;connectable=1;strokeWidth=2;fontSize=18;fontStyle=1" parent="1" vertex="1">
          <mxGeometry x="2550" y="-200" width="40" height="40" as="geometry" />
        </mxCell>
        <mxCell id="_ACzCQE8blFFiLmsyVWc-75" value="&lt;font style=&quot;font-size: 18px;&quot; face=&quot;Times New Roman&quot;&gt;&lt;b&gt;Да&lt;/b&gt;&lt;/font&gt;" style="text;html=1;align=center;verticalAlign=middle;resizable=0;points=[];autosize=1;strokeColor=none;fillColor=none;" parent="1" vertex="1">
          <mxGeometry x="2040" y="201.25" width="40" height="40" as="geometry" />
        </mxCell>
        <mxCell id="_ACzCQE8blFFiLmsyVWc-77" value="" style="edgeStyle=orthogonalEdgeStyle;rounded=0;orthogonalLoop=1;jettySize=auto;html=1;strokeWidth=2;" parent="1" source="_ACzCQE8blFFiLmsyVWc-73" edge="1">
          <mxGeometry relative="1" as="geometry">
            <mxPoint x="2350" y="-20" as="targetPoint" />
            <mxPoint x="2570" y="-180" as="sourcePoint" />
            <Array as="points">
              <mxPoint x="2570" y="-20" />
            </Array>
          </mxGeometry>
        </mxCell>
        <mxCell id="_ACzCQE8blFFiLmsyVWc-76" value="Оповещение клиента" style="shape=process;whiteSpace=wrap;html=1;backgroundOutline=1;align=center;fontFamily=Times New Roman;rounded=0;movable=1;resizable=1;rotatable=1;deletable=1;editable=1;locked=0;connectable=1;fontSize=18;fontStyle=1;strokeWidth=2;" parent="1" vertex="1">
          <mxGeometry x="2480" y="-120" width="160" height="80" as="geometry" />
        </mxCell>
        <mxCell id="_ACzCQE8blFFiLmsyVWc-78" value="" style="endArrow=none;html=1;rounded=0;strokeWidth=5;fontFamily=Times New Roman;fontStyle=1" parent="1" edge="1">
          <mxGeometry width="50" height="50" relative="1" as="geometry">
            <mxPoint x="2681" y="480" as="sourcePoint" />
            <mxPoint x="2681" y="-560" as="targetPoint" />
          </mxGeometry>
        </mxCell>
        <mxCell id="_ACzCQE8blFFiLmsyVWc-79" value="Начало" style="rounded=1;whiteSpace=wrap;html=1;strokeColor=default;strokeWidth=2;align=center;verticalAlign=middle;arcSize=50;fontFamily=Times New Roman;fontSize=18;fontColor=default;fontStyle=1;fillColor=default;" parent="1" vertex="1">
          <mxGeometry x="2887" y="-320" width="160" height="40" as="geometry" />
        </mxCell>
        <mxCell id="_ACzCQE8blFFiLmsyVWc-80" value="Конец" style="rounded=1;whiteSpace=wrap;html=1;strokeColor=default;strokeWidth=2;align=center;verticalAlign=middle;arcSize=50;fontFamily=Times New Roman;fontSize=18;fontColor=default;fontStyle=1;fillColor=default;" parent="1" vertex="1">
          <mxGeometry x="3710" width="160" height="40" as="geometry" />
        </mxCell>
        <mxCell id="_ACzCQE8blFFiLmsyVWc-81" value="" style="strokeWidth=2;html=1;shape=mxgraph.flowchart.annotation_2;align=left;labelPosition=right;pointerEvents=1;rounded=0;fontFamily=Verdana;movable=1;resizable=1;rotatable=1;deletable=1;editable=1;locked=0;connectable=1;" parent="1" vertex="1">
          <mxGeometry x="3090" y="-110" width="50" height="60" as="geometry" />
        </mxCell>
        <mxCell id="_ACzCQE8blFFiLmsyVWc-82" style="edgeStyle=orthogonalEdgeStyle;rounded=0;orthogonalLoop=1;jettySize=auto;html=1;entryX=1;entryY=0.5;entryDx=0;entryDy=0;endArrow=none;startFill=0;strokeWidth=2;dashed=1;" parent="1" source="_ACzCQE8blFFiLmsyVWc-81" target="sZgTdZ2AV089rUdlqtD1-123" edge="1">
          <mxGeometry relative="1" as="geometry">
            <mxPoint x="3047" y="39.99999999999977" as="targetPoint" />
          </mxGeometry>
        </mxCell>
        <mxCell id="_ACzCQE8blFFiLmsyVWc-85" style="edgeStyle=orthogonalEdgeStyle;rounded=0;orthogonalLoop=1;jettySize=auto;html=1;entryX=0.5;entryY=1;entryDx=0;entryDy=0;endArrow=none;startFill=0;strokeWidth=2;exitX=0.5;exitY=0;exitDx=0;exitDy=0;" parent="1" source="_ACzCQE8blFFiLmsyVWc-89" target="sZgTdZ2AV089rUdlqtD1-133" edge="1">
          <mxGeometry relative="1" as="geometry">
            <mxPoint x="2967" y="121.25" as="sourcePoint" />
          </mxGeometry>
        </mxCell>
        <mxCell id="_ACzCQE8blFFiLmsyVWc-86" value="" style="group" parent="1" vertex="1" connectable="0">
          <mxGeometry x="3410" y="-120" width="160" height="80" as="geometry" />
        </mxCell>
        <mxCell id="_ACzCQE8blFFiLmsyVWc-87" value="" style="verticalLabelPosition=bottom;verticalAlign=top;html=1;shape=hexagon;perimeter=hexagonPerimeter2;arcSize=6;size=0.27;rounded=0;fontFamily=Verdana;movable=1;resizable=1;rotatable=1;deletable=1;editable=1;locked=0;connectable=1;strokeWidth=2;" parent="_ACzCQE8blFFiLmsyVWc-86" vertex="1">
          <mxGeometry width="160" height="80" as="geometry" />
        </mxCell>
        <mxCell id="_ACzCQE8blFFiLmsyVWc-88" value="i=0; i&amp;lt;n; i++" style="text;html=1;align=center;verticalAlign=middle;resizable=1;points=[];autosize=1;strokeColor=none;fillColor=none;fontFamily=Times New Roman;movable=1;rotatable=1;deletable=1;editable=1;locked=0;connectable=1;fontSize=18;fontStyle=1" parent="_ACzCQE8blFFiLmsyVWc-86" vertex="1">
          <mxGeometry x="20" y="20" width="120" height="40" as="geometry" />
        </mxCell>
        <mxCell id="_ACzCQE8blFFiLmsyVWc-89" value="1" style="ellipse;whiteSpace=wrap;html=1;aspect=fixed;rounded=0;fontFamily=Times New Roman;movable=1;resizable=1;rotatable=1;deletable=1;editable=1;locked=0;connectable=1;fontSize=18;fontStyle=1;strokeWidth=2;" parent="1" vertex="1">
          <mxGeometry x="2947" y="120" width="40" height="40" as="geometry" />
        </mxCell>
        <mxCell id="_ACzCQE8blFFiLmsyVWc-91" value="" style="group" parent="1" vertex="1" connectable="0">
          <mxGeometry x="3410" width="160" height="80" as="geometry" />
        </mxCell>
        <mxCell id="sZgTdZ2AV089rUdlqtD1-137" value="&lt;div style=&quot;line-height: 100%;&quot;&gt;&lt;br&gt;&lt;/div&gt;" style="rhombus;whiteSpace=wrap;html=1;rounded=0;fontStyle=1;fontFamily=Times New Roman;movable=1;resizable=1;rotatable=1;deletable=1;editable=1;locked=0;connectable=1;fontSize=18;strokeWidth=2;" parent="_ACzCQE8blFFiLmsyVWc-91" vertex="1">
          <mxGeometry width="160" height="80" as="geometry" />
        </mxCell>
        <mxCell id="_ACzCQE8blFFiLmsyVWc-90" value="&lt;span&gt;&lt;font style=&quot;font-size: 16px;&quot;&gt;&lt;font style=&quot;forced-color-adjust: none; color: rgb(0, 0, 0); font-family: &amp;quot;Times New Roman&amp;quot;; font-style: normal; font-variant-ligatures: normal; font-variant-caps: normal; font-weight: 700; letter-spacing: normal; orphans: 2; text-indent: 0px; text-transform: none; widows: 2; word-spacing: 0px; -webkit-text-stroke-width: 0px; white-space: normal; text-decoration-thickness: initial; text-decoration-style: initial; text-decoration-color: initial; line-height: 16px;&quot;&gt;Число&amp;nbsp;&lt;/font&gt;&lt;span style=&quot;forced-color-adjust: none; color: light-dark(rgb(0, 0, 0), rgb(255, 255, 255)); font-family: &amp;quot;Times New Roman&amp;quot;; font-style: normal; font-variant-ligatures: normal; font-variant-caps: normal; font-weight: 700; letter-spacing: normal; orphans: 2; text-indent: 0px; text-transform: none; widows: 2; word-spacing: 0px; -webkit-text-stroke-width: 0px; white-space: normal; text-decoration-thickness: initial; text-decoration-style: initial; text-decoration-color: initial; line-height: 16px;&quot;&gt;заказов&lt;/span&gt;&lt;/font&gt;&lt;/span&gt;&lt;div&gt;&lt;span&gt;&lt;span style=&quot;forced-color-adjust: none; color: light-dark(rgb(0, 0, 0), rgb(255, 255, 255)); font-family: &amp;quot;Times New Roman&amp;quot;; font-style: normal; font-variant-ligatures: normal; font-variant-caps: normal; font-weight: 700; letter-spacing: normal; orphans: 2; text-indent: 0px; text-transform: none; widows: 2; word-spacing: 0px; -webkit-text-stroke-width: 0px; white-space: normal; text-decoration-thickness: initial; text-decoration-style: initial; text-decoration-color: initial; line-height: 16px;&quot;&gt;&lt;font style=&quot;font-size: 16px;&quot;&gt;минимально&lt;/font&gt;&lt;/span&gt;&lt;/span&gt;&lt;/div&gt;" style="text;whiteSpace=wrap;html=1;align=center;" parent="_ACzCQE8blFFiLmsyVWc-91" vertex="1">
          <mxGeometry x="26.77" y="16" width="106.46" height="40" as="geometry" />
        </mxCell>
        <mxCell id="_ACzCQE8blFFiLmsyVWc-92" style="edgeStyle=orthogonalEdgeStyle;rounded=0;orthogonalLoop=1;jettySize=auto;html=1;entryX=0.5;entryY=1;entryDx=0;entryDy=0;endArrow=none;startFill=0;strokeWidth=2;" parent="1" source="sZgTdZ2AV089rUdlqtD1-137" target="_ACzCQE8blFFiLmsyVWc-87" edge="1">
          <mxGeometry relative="1" as="geometry" />
        </mxCell>
        <mxCell id="_ACzCQE8blFFiLmsyVWc-93" style="edgeStyle=orthogonalEdgeStyle;rounded=0;orthogonalLoop=1;jettySize=auto;html=1;strokeWidth=2;endArrow=none;startFill=0;entryX=0.5;entryY=0;entryDx=0;entryDy=0;" parent="1" source="sZgTdZ2AV089rUdlqtD1-137" edge="1">
          <mxGeometry relative="1" as="geometry">
            <mxPoint x="3490" y="120" as="targetPoint" />
          </mxGeometry>
        </mxCell>
        <mxCell id="_ACzCQE8blFFiLmsyVWc-94" value="&lt;font style=&quot;font-size: 18px;&quot; face=&quot;Times New Roman&quot;&gt;&lt;b&gt;Да&lt;/b&gt;&lt;/font&gt;" style="text;html=1;align=center;verticalAlign=middle;resizable=0;points=[];autosize=1;strokeColor=none;fillColor=none;" parent="1" vertex="1">
          <mxGeometry x="3450" y="80" width="40" height="40" as="geometry" />
        </mxCell>
        <mxCell id="CLZdvBLHJ7PR2_3X5Nru-5" value="Нет" style="text;html=1;align=center;verticalAlign=middle;resizable=0;points=[];autosize=1;strokeColor=none;fillColor=none;fontSize=18;fontFamily=Times New Roman;fontStyle=1" parent="1" vertex="1">
          <mxGeometry x="3570" width="50" height="40" as="geometry" />
        </mxCell>
        <mxCell id="CLZdvBLHJ7PR2_3X5Nru-11" style="edgeStyle=orthogonalEdgeStyle;rounded=0;orthogonalLoop=1;jettySize=auto;html=1;entryX=0;entryY=0.5;entryDx=0;entryDy=0;endArrow=none;startFill=0;startArrow=none;strokeWidth=2;" parent="1" target="_ACzCQE8blFFiLmsyVWc-87" edge="1">
          <mxGeometry relative="1" as="geometry">
            <mxPoint x="3380" y="-40" as="sourcePoint" />
            <Array as="points">
              <mxPoint x="3380" y="-80" />
            </Array>
          </mxGeometry>
        </mxCell>
        <mxCell id="CLZdvBLHJ7PR2_3X5Nru-13" value="2" style="ellipse;whiteSpace=wrap;html=1;aspect=fixed;rounded=0;fontFamily=Times New Roman;movable=1;resizable=1;rotatable=1;deletable=1;editable=1;locked=0;connectable=1;strokeWidth=2;fontStyle=1;fontSize=18;" parent="1" vertex="1">
          <mxGeometry x="3610" y="-100" width="40" height="40" as="geometry" />
        </mxCell>
        <mxCell id="CLZdvBLHJ7PR2_3X5Nru-14" style="edgeStyle=orthogonalEdgeStyle;rounded=0;orthogonalLoop=1;jettySize=auto;html=1;entryX=0;entryY=0.5;entryDx=0;entryDy=0;endArrow=none;startFill=0;strokeWidth=2;" parent="1" source="_ACzCQE8blFFiLmsyVWc-87" target="CLZdvBLHJ7PR2_3X5Nru-13" edge="1">
          <mxGeometry relative="1" as="geometry" />
        </mxCell>
        <mxCell id="CLZdvBLHJ7PR2_3X5Nru-16" style="edgeStyle=orthogonalEdgeStyle;rounded=0;orthogonalLoop=1;jettySize=auto;html=1;entryX=0.5;entryY=0;entryDx=0;entryDy=0;strokeWidth=2;endArrow=none;startFill=0;" parent="1" source="CLZdvBLHJ7PR2_3X5Nru-15" target="sZgTdZ2AV089rUdlqtD1-166" edge="1">
          <mxGeometry relative="1" as="geometry" />
        </mxCell>
        <mxCell id="CLZdvBLHJ7PR2_3X5Nru-15" value="2" style="ellipse;whiteSpace=wrap;html=1;aspect=fixed;rounded=0;fontFamily=Times New Roman;movable=1;resizable=1;rotatable=1;deletable=1;editable=1;locked=0;connectable=1;strokeWidth=2;fontStyle=1;fontSize=18;" parent="1" vertex="1">
          <mxGeometry x="3770" y="-320" width="40" height="40" as="geometry" />
        </mxCell>
        <mxCell id="CLZdvBLHJ7PR2_3X5Nru-19" style="edgeStyle=orthogonalEdgeStyle;rounded=0;orthogonalLoop=1;jettySize=auto;html=1;strokeWidth=2;endArrow=none;startFill=1;endFill=1;startArrow=classic;" parent="1" edge="1">
          <mxGeometry relative="1" as="geometry">
            <mxPoint x="3381" y="240.00000000000003" as="sourcePoint" />
            <mxPoint x="3451" y="240.03" as="targetPoint" />
            <Array as="points">
              <mxPoint x="3441" y="240.03" />
              <mxPoint x="3441" y="240.03" />
            </Array>
          </mxGeometry>
        </mxCell>
        <mxCell id="CLZdvBLHJ7PR2_3X5Nru-20" value="" style="endArrow=none;html=1;rounded=0;strokeWidth=5;fontFamily=Times New Roman;fontStyle=1" parent="1" edge="1">
          <mxGeometry width="50" height="50" relative="1" as="geometry">
            <mxPoint x="4226" y="480" as="sourcePoint" />
            <mxPoint x="4226" y="-555" as="targetPoint" />
          </mxGeometry>
        </mxCell>
        <mxCell id="CLZdvBLHJ7PR2_3X5Nru-21" value="" style="endArrow=none;html=1;rounded=0;strokeWidth=5;fontFamily=Times New Roman;fontStyle=1" parent="1" edge="1">
          <mxGeometry width="50" height="50" relative="1" as="geometry">
            <mxPoint x="5951" y="480" as="sourcePoint" />
            <mxPoint x="5951" y="-560" as="targetPoint" />
          </mxGeometry>
        </mxCell>
        <mxCell id="CLZdvBLHJ7PR2_3X5Nru-27" style="edgeStyle=orthogonalEdgeStyle;rounded=0;orthogonalLoop=1;jettySize=auto;html=1;strokeWidth=2;endArrow=none;startFill=0;entryX=0.5;entryY=0;entryDx=0;entryDy=0;" parent="1" source="CLZdvBLHJ7PR2_3X5Nru-22" target="QvxtqPu8qyB4Hp5iw3jF-63" edge="1">
          <mxGeometry relative="1" as="geometry">
            <mxPoint x="4590" y="-240" as="targetPoint" />
          </mxGeometry>
        </mxCell>
        <mxCell id="CLZdvBLHJ7PR2_3X5Nru-22" value="Начало" style="rounded=1;whiteSpace=wrap;html=1;strokeColor=#000000;strokeWidth=2;align=center;verticalAlign=middle;arcSize=50;fontFamily=Times New Roman;fontSize=18;fontColor=#000000;fontStyle=1;fillColor=default;" parent="1" vertex="1">
          <mxGeometry x="4510" y="-320" width="160" height="40" as="geometry" />
        </mxCell>
        <mxCell id="QvxtqPu8qyB4Hp5iw3jF-10" style="edgeStyle=orthogonalEdgeStyle;rounded=1;orthogonalLoop=1;jettySize=auto;html=1;endArrow=none;startFill=0;dashed=1;fontFamily=Verdana;movable=1;resizable=1;rotatable=1;deletable=1;editable=1;locked=0;connectable=1;strokeColor=#000000;fontColor=#FF0000;entryX=1;entryY=0.5;entryDx=0;entryDy=0;strokeWidth=2;" edge="1" parent="1" source="QvxtqPu8qyB4Hp5iw3jF-11" target="QvxtqPu8qyB4Hp5iw3jF-81">
          <mxGeometry relative="1" as="geometry">
            <mxPoint x="4670" y="282" as="targetPoint" />
          </mxGeometry>
        </mxCell>
        <mxCell id="QvxtqPu8qyB4Hp5iw3jF-11" value="" style="strokeWidth=2;html=1;shape=mxgraph.flowchart.annotation_2;align=left;labelPosition=right;pointerEvents=1;rounded=1;fontFamily=Verdana;movable=1;resizable=1;rotatable=1;deletable=1;editable=1;locked=0;connectable=1;strokeColor=#000000;fontColor=#FF0000;" vertex="1" parent="1">
          <mxGeometry x="4710" y="240" width="50" height="80" as="geometry" />
        </mxCell>
        <mxCell id="QvxtqPu8qyB4Hp5iw3jF-100" style="edgeStyle=orthogonalEdgeStyle;rounded=0;orthogonalLoop=1;jettySize=auto;html=1;entryX=0.5;entryY=0;entryDx=0;entryDy=0;fontFamily=Times New Roman;fontSize=18;fontColor=default;fontStyle=1;resizable=1;strokeWidth=2;endArrow=none;startFill=0;" edge="1" parent="1" source="QvxtqPu8qyB4Hp5iw3jF-14" target="QvxtqPu8qyB4Hp5iw3jF-99">
          <mxGeometry relative="1" as="geometry" />
        </mxCell>
        <mxCell id="QvxtqPu8qyB4Hp5iw3jF-14" value="Заявка&lt;br&gt;одобрена" style="rounded=0;whiteSpace=wrap;html=1;strokeColor=default;strokeWidth=2;align=center;verticalAlign=middle;fontFamily=Times New Roman;fontSize=18;fontColor=default;fontStyle=1;resizable=1;fillColor=default;" vertex="1" parent="1">
          <mxGeometry x="5035" y="-240" width="160" height="80" as="geometry" />
        </mxCell>
        <mxCell id="QvxtqPu8qyB4Hp5iw3jF-125" style="edgeStyle=orthogonalEdgeStyle;rounded=0;orthogonalLoop=1;jettySize=auto;html=1;fontFamily=Times New Roman;fontSize=18;fontColor=default;fontStyle=1;resizable=1;strokeWidth=2;" edge="1" parent="1" source="QvxtqPu8qyB4Hp5iw3jF-32">
          <mxGeometry relative="1" as="geometry">
            <mxPoint x="5530" y="101.25" as="targetPoint" />
            <Array as="points">
              <mxPoint x="5690" y="-199.75" />
              <mxPoint x="5690" y="101.25" />
              <mxPoint x="5530" y="101.25" />
            </Array>
          </mxGeometry>
        </mxCell>
        <mxCell id="QvxtqPu8qyB4Hp5iw3jF-32" value="Заказ&lt;div&gt;отменен&lt;br&gt;&lt;/div&gt;" style="rhombus;whiteSpace=wrap;html=1;rounded=0;fontFamily=Times New Roman;movable=1;resizable=1;rotatable=1;deletable=1;editable=1;locked=0;connectable=1;strokeColor=default;fontColor=default;strokeWidth=2;fontSize=18;fontStyle=1;verticalAlign=middle;" vertex="1" parent="1">
          <mxGeometry x="5450" y="-240" width="160" height="80" as="geometry" />
        </mxCell>
        <mxCell id="QvxtqPu8qyB4Hp5iw3jF-35" style="edgeStyle=orthogonalEdgeStyle;rounded=1;orthogonalLoop=1;jettySize=auto;html=1;entryX=0.5;entryY=1;entryDx=0;entryDy=0;endArrow=none;startFill=0;fontFamily=Verdana;movable=1;resizable=1;rotatable=1;deletable=1;editable=1;locked=0;connectable=1;strokeColor=default;fontColor=default;strokeWidth=2;" edge="1" parent="1" source="QvxtqPu8qyB4Hp5iw3jF-37" target="QvxtqPu8qyB4Hp5iw3jF-32">
          <mxGeometry relative="1" as="geometry" />
        </mxCell>
        <mxCell id="QvxtqPu8qyB4Hp5iw3jF-124" style="edgeStyle=orthogonalEdgeStyle;rounded=0;orthogonalLoop=1;jettySize=auto;html=1;fontFamily=Times New Roman;fontSize=18;fontColor=default;fontStyle=1;resizable=1;endArrow=none;startFill=0;strokeWidth=2;" edge="1" parent="1" source="QvxtqPu8qyB4Hp5iw3jF-37" target="QvxtqPu8qyB4Hp5iw3jF-123">
          <mxGeometry relative="1" as="geometry" />
        </mxCell>
        <mxCell id="QvxtqPu8qyB4Hp5iw3jF-37" value="Возврат на склад" style="rounded=0;whiteSpace=wrap;html=1;fontFamily=Times New Roman;movable=1;resizable=1;rotatable=1;deletable=1;editable=1;locked=0;connectable=1;strokeColor=default;fontColor=default;strokeWidth=2;fontStyle=1;fontSize=18;" vertex="1" parent="1">
          <mxGeometry x="5450" y="-120" width="160" height="80" as="geometry" />
        </mxCell>
        <mxCell id="QvxtqPu8qyB4Hp5iw3jF-83" style="edgeStyle=orthogonalEdgeStyle;rounded=0;orthogonalLoop=1;jettySize=auto;html=1;entryX=0.5;entryY=0;entryDx=0;entryDy=0;fontFamily=Times New Roman;fontSize=18;fontColor=default;fontStyle=1;resizable=1;endArrow=none;startFill=0;strokeWidth=2;" edge="1" parent="1" source="QvxtqPu8qyB4Hp5iw3jF-55" target="QvxtqPu8qyB4Hp5iw3jF-81">
          <mxGeometry relative="1" as="geometry" />
        </mxCell>
        <mxCell id="QvxtqPu8qyB4Hp5iw3jF-55" value="&lt;div&gt;Контроль&lt;/div&gt;&lt;div&gt;запасов,&lt;/div&gt;&lt;div&gt;Запасы &amp;gt; N&lt;/div&gt;" style="shape=loopLimit;whiteSpace=wrap;html=1;strokeWidth=2;fontFamily=Times New Roman;fontStyle=1;fontSize=18;strokeColor=#000000;fontColor=default;" vertex="1" parent="1">
          <mxGeometry x="4510" y="120" width="160" height="80" as="geometry" />
        </mxCell>
        <mxCell id="QvxtqPu8qyB4Hp5iw3jF-56" style="edgeStyle=orthogonalEdgeStyle;rounded=0;orthogonalLoop=1;jettySize=auto;html=1;entryX=0.5;entryY=0;entryDx=0;entryDy=0;endArrow=none;startFill=0;strokeWidth=2;" edge="1" parent="1" source="QvxtqPu8qyB4Hp5iw3jF-58" target="QvxtqPu8qyB4Hp5iw3jF-55">
          <mxGeometry relative="1" as="geometry" />
        </mxCell>
        <mxCell id="QvxtqPu8qyB4Hp5iw3jF-57" style="edgeStyle=orthogonalEdgeStyle;rounded=0;orthogonalLoop=1;jettySize=auto;html=1;entryX=0;entryY=0.5;entryDx=0;entryDy=0;endArrow=none;startFill=0;strokeWidth=2;" edge="1" parent="1" source="QvxtqPu8qyB4Hp5iw3jF-58" target="QvxtqPu8qyB4Hp5iw3jF-84">
          <mxGeometry relative="1" as="geometry" />
        </mxCell>
        <mxCell id="QvxtqPu8qyB4Hp5iw3jF-58" value="Запасы &amp;gt; N" style="rhombus;whiteSpace=wrap;html=1;rounded=0;fontStyle=1;fontFamily=Times New Roman;movable=1;resizable=1;rotatable=1;deletable=1;editable=1;locked=0;connectable=1;fontSize=18;strokeWidth=2;" vertex="1" parent="1">
          <mxGeometry x="4510" width="160" height="80" as="geometry" />
        </mxCell>
        <mxCell id="QvxtqPu8qyB4Hp5iw3jF-77" style="edgeStyle=orthogonalEdgeStyle;rounded=0;orthogonalLoop=1;jettySize=auto;html=1;entryX=0.5;entryY=0;entryDx=0;entryDy=0;fontFamily=Times New Roman;fontSize=18;fontColor=default;fontStyle=1;resizable=1;strokeWidth=2;endArrow=none;startFill=0;" edge="1" parent="1" source="QvxtqPu8qyB4Hp5iw3jF-61" target="QvxtqPu8qyB4Hp5iw3jF-73">
          <mxGeometry relative="1" as="geometry" />
        </mxCell>
        <mxCell id="QvxtqPu8qyB4Hp5iw3jF-61" value="Оформление заявки на закупку" style="shape=process;whiteSpace=wrap;html=1;backgroundOutline=1;align=center;fontFamily=Times New Roman;rounded=0;movable=1;resizable=1;rotatable=1;deletable=1;editable=1;locked=0;connectable=1;strokeColor=#000000;fontColor=#000000;fontSize=18;fontStyle=1;strokeWidth=2;" vertex="1" parent="1">
          <mxGeometry x="5240" y="-240" width="160" height="80" as="geometry" />
        </mxCell>
        <mxCell id="QvxtqPu8qyB4Hp5iw3jF-65" style="edgeStyle=orthogonalEdgeStyle;rounded=0;orthogonalLoop=1;jettySize=auto;html=1;entryX=0.5;entryY=0;entryDx=0;entryDy=0;endArrow=none;startFill=0;strokeWidth=2;" edge="1" parent="1" source="QvxtqPu8qyB4Hp5iw3jF-63" target="QvxtqPu8qyB4Hp5iw3jF-64">
          <mxGeometry relative="1" as="geometry" />
        </mxCell>
        <mxCell id="QvxtqPu8qyB4Hp5iw3jF-63" value="&lt;font style=&quot;font-size: 18px;&quot; face=&quot;Times New Roman&quot;&gt;&lt;b&gt;Получение запасов на&amp;nbsp; складе&lt;/b&gt;&lt;/font&gt;" style="shape=process;whiteSpace=wrap;html=1;backgroundOutline=1;align=center;fontFamily=Verdana;rounded=0;movable=1;resizable=1;rotatable=1;deletable=1;editable=1;locked=0;connectable=1;strokeWidth=2;" vertex="1" parent="1">
          <mxGeometry x="4510" y="-240" width="160" height="80" as="geometry" />
        </mxCell>
        <mxCell id="QvxtqPu8qyB4Hp5iw3jF-72" style="edgeStyle=orthogonalEdgeStyle;rounded=0;orthogonalLoop=1;jettySize=auto;html=1;entryX=0.5;entryY=0;entryDx=0;entryDy=0;strokeWidth=2;endArrow=none;startFill=0;" edge="1" parent="1" source="QvxtqPu8qyB4Hp5iw3jF-64" target="QvxtqPu8qyB4Hp5iw3jF-58">
          <mxGeometry relative="1" as="geometry" />
        </mxCell>
        <mxCell id="QvxtqPu8qyB4Hp5iw3jF-64" value="N&amp;nbsp;&lt;span style=&quot;background-color: transparent; color: light-dark(rgb(0, 0, 0), rgb(255, 255, 255));&quot;&gt;=&amp;nbsp;&lt;/span&gt;&lt;div&gt;&lt;div&gt;Max Запасы * 0,1&lt;/div&gt;&lt;/div&gt;" style="rounded=0;whiteSpace=wrap;html=1;fontFamily=Times New Roman;movable=1;resizable=1;rotatable=1;deletable=1;editable=1;locked=0;connectable=1;fontSize=18;fontStyle=1;strokeWidth=2;" vertex="1" parent="1">
          <mxGeometry x="4510" y="-120" width="160" height="80" as="geometry" />
        </mxCell>
        <mxCell id="QvxtqPu8qyB4Hp5iw3jF-66" value="" style="strokeWidth=2;html=1;shape=mxgraph.flowchart.annotation_2;align=left;labelPosition=right;pointerEvents=1;rounded=1;fontFamily=Verdana;movable=1;resizable=1;rotatable=1;deletable=1;editable=1;locked=0;connectable=1;" vertex="1" parent="1">
          <mxGeometry x="4713" y="-230" width="50" height="60" as="geometry" />
        </mxCell>
        <mxCell id="QvxtqPu8qyB4Hp5iw3jF-67" value="&lt;font face=&quot;Times New Roman&quot; style=&quot;font-size: 18px;&quot;&gt;&lt;b&gt;Получаем данные о запасе&lt;/b&gt;&lt;/font&gt;&lt;div&gt;&lt;font face=&quot;Times New Roman&quot; style=&quot;font-size: 18px;&quot;&gt;&lt;b&gt;на&amp;nbsp;&lt;/b&gt;&lt;/font&gt;&lt;b style=&quot;font-size: 18px; font-family: &amp;quot;Times New Roman&amp;quot;; background-color: transparent; color: light-dark(rgb(0, 0, 0), rgb(255, 255, 255));&quot;&gt;складах филиалов из БД&lt;/b&gt;&lt;/div&gt;" style="text;html=1;align=left;verticalAlign=middle;resizable=1;points=[];autosize=1;strokeColor=none;fillColor=none;fontFamily=Verdana;movable=1;rotatable=1;deletable=1;editable=1;locked=0;connectable=1;" vertex="1" parent="1">
          <mxGeometry x="4755" y="-230" width="250" height="60" as="geometry" />
        </mxCell>
        <mxCell id="QvxtqPu8qyB4Hp5iw3jF-68" style="edgeStyle=orthogonalEdgeStyle;rounded=1;orthogonalLoop=1;jettySize=auto;html=1;exitX=0;exitY=0.5;exitDx=0;exitDy=0;exitPerimeter=0;entryX=1;entryY=0.5;entryDx=0;entryDy=0;endArrow=none;startFill=0;dashed=1;fontFamily=Verdana;movable=1;resizable=1;rotatable=1;deletable=1;editable=1;locked=0;connectable=1;strokeWidth=2;" edge="1" source="QvxtqPu8qyB4Hp5iw3jF-66" parent="1">
          <mxGeometry relative="1" as="geometry">
            <mxPoint x="4670" y="-200" as="targetPoint" />
          </mxGeometry>
        </mxCell>
        <mxCell id="QvxtqPu8qyB4Hp5iw3jF-69" style="edgeStyle=orthogonalEdgeStyle;rounded=1;orthogonalLoop=1;jettySize=auto;html=1;exitX=0;exitY=0.5;exitDx=0;exitDy=0;exitPerimeter=0;entryX=1;entryY=0.5;entryDx=0;entryDy=0;endArrow=none;startFill=0;dashed=1;fontFamily=Verdana;movable=1;resizable=1;rotatable=1;deletable=1;editable=1;locked=0;connectable=1;strokeWidth=2;" edge="1" source="QvxtqPu8qyB4Hp5iw3jF-70" parent="1">
          <mxGeometry relative="1" as="geometry">
            <mxPoint x="4670" y="-80" as="targetPoint" />
          </mxGeometry>
        </mxCell>
        <mxCell id="QvxtqPu8qyB4Hp5iw3jF-70" value="" style="strokeWidth=2;html=1;shape=mxgraph.flowchart.annotation_2;align=left;labelPosition=right;pointerEvents=1;rounded=1;fontFamily=Verdana;movable=1;resizable=1;rotatable=1;deletable=1;editable=1;locked=0;connectable=1;" vertex="1" parent="1">
          <mxGeometry x="4713" y="-120" width="50" height="80" as="geometry" />
        </mxCell>
        <mxCell id="QvxtqPu8qyB4Hp5iw3jF-71" value="&lt;font face=&quot;Times New Roman&quot;&gt;&lt;span style=&quot;font-size: 18px;&quot;&gt;&lt;b&gt;Рассчитываем минимально&lt;/b&gt;&lt;/span&gt;&lt;/font&gt;&lt;div&gt;&lt;font face=&quot;Times New Roman&quot; style=&quot;background-color: transparent; color: light-dark(rgb(0, 0, 0), rgb(255, 255, 255));&quot;&gt;&lt;span style=&quot;font-size: 18px;&quot;&gt;&lt;b&gt;допустимый&amp;nbsp;&lt;/b&gt;&lt;/span&gt;&lt;/font&gt;&lt;b style=&quot;background-color: transparent; color: light-dark(rgb(0, 0, 0), rgb(255, 255, 255)); font-size: 18px; font-family: &amp;quot;Times New Roman&amp;quot;;&quot;&gt;остаток N&lt;/b&gt;&lt;/div&gt;&lt;div style=&quot;&quot;&gt;&lt;b style=&quot;background-color: transparent; color: light-dark(rgb(0, 0, 0), rgb(255, 255, 255)); font-size: 18px; font-family: &amp;quot;Times New Roman&amp;quot;;&quot;&gt;для каждого товара&lt;/b&gt;&lt;/div&gt;" style="text;html=1;align=left;verticalAlign=middle;resizable=1;points=[];autosize=1;strokeColor=none;fillColor=none;fontFamily=Verdana;movable=1;rotatable=1;deletable=1;editable=1;locked=0;connectable=1;" vertex="1" parent="1">
          <mxGeometry x="4755" y="-120" width="250" height="80" as="geometry" />
        </mxCell>
        <mxCell id="QvxtqPu8qyB4Hp5iw3jF-78" style="edgeStyle=orthogonalEdgeStyle;rounded=0;orthogonalLoop=1;jettySize=auto;html=1;entryX=0.5;entryY=0;entryDx=0;entryDy=0;fontFamily=Times New Roman;fontSize=18;fontColor=default;fontStyle=1;resizable=1;strokeWidth=2;endArrow=none;startFill=0;" edge="1" parent="1" source="QvxtqPu8qyB4Hp5iw3jF-73" target="QvxtqPu8qyB4Hp5iw3jF-122">
          <mxGeometry relative="1" as="geometry">
            <mxPoint x="5320" y="1.25" as="targetPoint" />
          </mxGeometry>
        </mxCell>
        <mxCell id="QvxtqPu8qyB4Hp5iw3jF-73" value="Получение&lt;div&gt;запасов от поставщика&lt;/div&gt;" style="rounded=0;whiteSpace=wrap;html=1;strokeColor=default;strokeWidth=2;align=center;verticalAlign=middle;fontFamily=Times New Roman;fontSize=18;fontColor=default;fontStyle=1;resizable=1;fillColor=default;" vertex="1" parent="1">
          <mxGeometry x="5240" y="-120" width="160" height="80" as="geometry" />
        </mxCell>
        <mxCell id="QvxtqPu8qyB4Hp5iw3jF-117" style="edgeStyle=orthogonalEdgeStyle;rounded=0;orthogonalLoop=1;jettySize=auto;html=1;fontFamily=Times New Roman;fontSize=18;fontColor=default;fontStyle=1;resizable=1;strokeWidth=2;endArrow=none;startFill=0;exitX=0.5;exitY=1;exitDx=0;exitDy=0;" edge="1" parent="1" source="QvxtqPu8qyB4Hp5iw3jF-122">
          <mxGeometry relative="1" as="geometry">
            <mxPoint x="5214" y="241" as="targetPoint" />
            <mxPoint x="5320" y="81.25" as="sourcePoint" />
            <Array as="points">
              <mxPoint x="5320" y="240" />
              <mxPoint x="5213" y="240" />
            </Array>
          </mxGeometry>
        </mxCell>
        <mxCell id="QvxtqPu8qyB4Hp5iw3jF-85" style="edgeStyle=orthogonalEdgeStyle;rounded=0;orthogonalLoop=1;jettySize=auto;html=1;entryX=0.5;entryY=0;entryDx=0;entryDy=0;fontFamily=Times New Roman;fontSize=18;fontColor=default;fontStyle=1;resizable=1;endArrow=none;startFill=0;strokeWidth=2;" edge="1" parent="1" source="QvxtqPu8qyB4Hp5iw3jF-76" target="QvxtqPu8qyB4Hp5iw3jF-61">
          <mxGeometry relative="1" as="geometry" />
        </mxCell>
        <mxCell id="QvxtqPu8qyB4Hp5iw3jF-76" value="1" style="ellipse;whiteSpace=wrap;html=1;aspect=fixed;rounded=0;fontFamily=Times New Roman;movable=1;resizable=1;rotatable=1;deletable=1;editable=1;locked=0;connectable=1;strokeWidth=2;fontStyle=1;fontSize=18;" vertex="1" parent="1">
          <mxGeometry x="5300" y="-320" width="40" height="40" as="geometry" />
        </mxCell>
        <mxCell id="QvxtqPu8qyB4Hp5iw3jF-81" value="Заявка сотрудником&lt;div&gt;на списание&lt;/div&gt;" style="rounded=0;whiteSpace=wrap;html=1;strokeColor=default;strokeWidth=2;align=center;verticalAlign=middle;fontFamily=Times New Roman;fontSize=18;fontColor=default;fontStyle=1;resizable=1;fillColor=default;" vertex="1" parent="1">
          <mxGeometry x="4510" y="240" width="160" height="80" as="geometry" />
        </mxCell>
        <mxCell id="QvxtqPu8qyB4Hp5iw3jF-82" value="&lt;div&gt;Сотрудник отправляет заявку&lt;/div&gt;&lt;div&gt;на списание со склада филиала&lt;/div&gt;&lt;div&gt;для ремонта или продажи&lt;/div&gt;" style="text;html=1;align=left;verticalAlign=middle;resizable=1;points=[];autosize=1;strokeColor=none;fillColor=none;fontFamily=Times New Roman;movable=1;rotatable=1;deletable=1;editable=1;locked=0;connectable=1;fontSize=18;fontStyle=1" vertex="1" parent="1">
          <mxGeometry x="4755" y="241.25" width="260" height="80" as="geometry" />
        </mxCell>
        <mxCell id="QvxtqPu8qyB4Hp5iw3jF-84" value="1" style="ellipse;whiteSpace=wrap;html=1;aspect=fixed;rounded=0;fontFamily=Times New Roman;movable=1;resizable=1;rotatable=1;deletable=1;editable=1;locked=0;connectable=1;strokeWidth=2;fontStyle=1;fontSize=18;" vertex="1" parent="1">
          <mxGeometry x="4730" y="20" width="40" height="40" as="geometry" />
        </mxCell>
        <mxCell id="QvxtqPu8qyB4Hp5iw3jF-88" value="Конец" style="rounded=1;whiteSpace=wrap;html=1;strokeColor=default;strokeWidth=2;align=center;verticalAlign=middle;arcSize=50;fontFamily=Times New Roman;fontSize=18;fontColor=default;fontStyle=1;fillColor=default;" vertex="1" parent="1">
          <mxGeometry x="5450" y="121.25" width="160" height="40" as="geometry" />
        </mxCell>
        <mxCell id="QvxtqPu8qyB4Hp5iw3jF-95" style="edgeStyle=orthogonalEdgeStyle;rounded=0;orthogonalLoop=1;jettySize=auto;html=1;fontFamily=Times New Roman;fontSize=18;fontColor=default;fontStyle=1;resizable=1;strokeWidth=2;endArrow=none;startFill=0;" edge="1" parent="1" source="QvxtqPu8qyB4Hp5iw3jF-92" target="QvxtqPu8qyB4Hp5iw3jF-81">
          <mxGeometry relative="1" as="geometry" />
        </mxCell>
        <mxCell id="QvxtqPu8qyB4Hp5iw3jF-92" value="2" style="ellipse;whiteSpace=wrap;html=1;aspect=fixed;rounded=0;fontFamily=Times New Roman;movable=1;resizable=1;rotatable=1;deletable=1;editable=1;locked=0;connectable=1;strokeWidth=2;fontStyle=1;fontSize=18;" vertex="1" parent="1">
          <mxGeometry x="4570" y="360" width="40" height="40" as="geometry" />
        </mxCell>
        <mxCell id="QvxtqPu8qyB4Hp5iw3jF-97" style="edgeStyle=orthogonalEdgeStyle;rounded=0;orthogonalLoop=1;jettySize=auto;html=1;entryX=0.5;entryY=0;entryDx=0;entryDy=0;fontFamily=Times New Roman;fontSize=18;fontColor=default;fontStyle=1;resizable=1;endArrow=none;startFill=0;strokeWidth=2;" edge="1" source="QvxtqPu8qyB4Hp5iw3jF-98" parent="1">
          <mxGeometry relative="1" as="geometry">
            <mxPoint x="5115" y="-239.75" as="targetPoint" />
          </mxGeometry>
        </mxCell>
        <mxCell id="QvxtqPu8qyB4Hp5iw3jF-98" value="2" style="ellipse;whiteSpace=wrap;html=1;aspect=fixed;rounded=0;fontFamily=Times New Roman;movable=1;resizable=1;rotatable=1;deletable=1;editable=1;locked=0;connectable=1;strokeWidth=2;fontStyle=1;fontSize=18;" vertex="1" parent="1">
          <mxGeometry x="5095" y="-320" width="40" height="40" as="geometry" />
        </mxCell>
        <mxCell id="QvxtqPu8qyB4Hp5iw3jF-99" value="Товар резервируется" style="rounded=0;whiteSpace=wrap;html=1;strokeColor=default;strokeWidth=2;align=center;verticalAlign=middle;fontFamily=Times New Roman;fontSize=18;fontColor=default;fontStyle=1;resizable=1;fillColor=default;" vertex="1" parent="1">
          <mxGeometry x="5035" y="-120" width="160" height="80" as="geometry" />
        </mxCell>
        <mxCell id="QvxtqPu8qyB4Hp5iw3jF-105" style="edgeStyle=orthogonalEdgeStyle;rounded=0;orthogonalLoop=1;jettySize=auto;html=1;entryX=0.5;entryY=1;entryDx=0;entryDy=0;fontFamily=Times New Roman;fontSize=18;fontColor=default;fontStyle=1;resizable=1;strokeWidth=2;endArrow=none;startFill=0;" edge="1" parent="1" source="QvxtqPu8qyB4Hp5iw3jF-101" target="QvxtqPu8qyB4Hp5iw3jF-99">
          <mxGeometry relative="1" as="geometry" />
        </mxCell>
        <mxCell id="QvxtqPu8qyB4Hp5iw3jF-101" value="&lt;div&gt;&lt;font face=&quot;Times New Roman&quot;&gt;&lt;span style=&quot;font-size: 18px;&quot;&gt;&lt;b&gt;Обновление запасов&amp;nbsp;&lt;/b&gt;&lt;/span&gt;&lt;/font&gt;&lt;/div&gt;&lt;div&gt;&lt;font face=&quot;Times New Roman&quot;&gt;&lt;span style=&quot;font-size: 18px;&quot;&gt;&lt;b&gt;на складе&lt;/b&gt;&lt;/span&gt;&lt;/font&gt;&lt;/div&gt;" style="shape=process;whiteSpace=wrap;html=1;backgroundOutline=1;align=center;fontFamily=Verdana;rounded=0;movable=1;resizable=1;rotatable=1;deletable=1;editable=1;locked=0;connectable=1;strokeWidth=2;" vertex="1" parent="1">
          <mxGeometry x="5035" width="160" height="80" as="geometry" />
        </mxCell>
        <mxCell id="QvxtqPu8qyB4Hp5iw3jF-113" style="edgeStyle=orthogonalEdgeStyle;rounded=0;orthogonalLoop=1;jettySize=auto;html=1;entryX=0.5;entryY=1;entryDx=0;entryDy=0;fontFamily=Times New Roman;fontSize=18;fontColor=default;fontStyle=1;resizable=1;strokeWidth=2;endArrow=none;startFill=0;" edge="1" parent="1" source="QvxtqPu8qyB4Hp5iw3jF-106" target="QvxtqPu8qyB4Hp5iw3jF-101">
          <mxGeometry relative="1" as="geometry" />
        </mxCell>
        <mxCell id="QvxtqPu8qyB4Hp5iw3jF-114" style="edgeStyle=orthogonalEdgeStyle;rounded=0;orthogonalLoop=1;jettySize=auto;html=1;fontFamily=Times New Roman;fontSize=18;fontColor=default;fontStyle=1;resizable=1;strokeWidth=2;endArrow=none;startFill=0;entryX=0.5;entryY=0;entryDx=0;entryDy=0;exitX=0.5;exitY=1;exitDx=0;exitDy=0;" edge="1" parent="1" source="QvxtqPu8qyB4Hp5iw3jF-106" target="QvxtqPu8qyB4Hp5iw3jF-115">
          <mxGeometry relative="1" as="geometry">
            <mxPoint x="5240" y="290" as="targetPoint" />
            <mxPoint x="5115" y="202.5" as="sourcePoint" />
            <Array as="points">
              <mxPoint x="5115" y="240" />
              <mxPoint x="5214" y="240" />
              <mxPoint x="5214" y="257" />
            </Array>
          </mxGeometry>
        </mxCell>
        <mxCell id="QvxtqPu8qyB4Hp5iw3jF-106" value="&lt;div&gt;Контроль&lt;/div&gt;&lt;div&gt;запасов&lt;br&gt;&lt;/div&gt;" style="shape=loopLimit;whiteSpace=wrap;html=1;strokeWidth=2;fontFamily=Times New Roman;fontStyle=1;fontSize=18;strokeColor=#000000;fontColor=default;flipV=1;" vertex="1" parent="1">
          <mxGeometry x="5035" y="120" width="160" height="80" as="geometry" />
        </mxCell>
        <mxCell id="QvxtqPu8qyB4Hp5iw3jF-109" value="&lt;font style=&quot;font-size: 18px;&quot; face=&quot;Times New Roman&quot;&gt;&lt;b&gt;Да&lt;/b&gt;&lt;/font&gt;" style="text;html=1;align=center;verticalAlign=middle;resizable=0;points=[];autosize=1;strokeColor=none;fillColor=none;" vertex="1" parent="1">
          <mxGeometry x="3750" y="-160" width="40" height="40" as="geometry" />
        </mxCell>
        <mxCell id="QvxtqPu8qyB4Hp5iw3jF-110" value="Нет" style="text;html=1;align=center;verticalAlign=middle;resizable=0;points=[];autosize=1;strokeColor=none;fillColor=none;fontSize=18;fontFamily=Times New Roman;fontStyle=1" vertex="1" parent="1">
          <mxGeometry x="3870" y="-241.25" width="50" height="40" as="geometry" />
        </mxCell>
        <mxCell id="QvxtqPu8qyB4Hp5iw3jF-111" value="Нет" style="text;html=1;align=center;verticalAlign=middle;resizable=0;points=[];autosize=1;strokeColor=none;fillColor=none;fontSize=18;fontFamily=Times New Roman;fontStyle=1" vertex="1" parent="1">
          <mxGeometry x="4670" y="-2" width="50" height="40" as="geometry" />
        </mxCell>
        <mxCell id="QvxtqPu8qyB4Hp5iw3jF-112" value="&lt;font style=&quot;font-size: 18px;&quot; face=&quot;Times New Roman&quot;&gt;&lt;b&gt;Да&lt;/b&gt;&lt;/font&gt;" style="text;html=1;align=center;verticalAlign=middle;resizable=0;points=[];autosize=1;strokeColor=none;fillColor=none;" vertex="1" parent="1">
          <mxGeometry x="4550" y="80" width="40" height="40" as="geometry" />
        </mxCell>
        <mxCell id="QvxtqPu8qyB4Hp5iw3jF-115" value="3" style="ellipse;whiteSpace=wrap;html=1;aspect=fixed;rounded=0;fontFamily=Times New Roman;movable=1;resizable=1;rotatable=1;deletable=1;editable=1;locked=0;connectable=1;strokeWidth=2;fontStyle=1;fontSize=18;" vertex="1" parent="1">
          <mxGeometry x="5194" y="260" width="40" height="40" as="geometry" />
        </mxCell>
        <mxCell id="QvxtqPu8qyB4Hp5iw3jF-119" style="edgeStyle=orthogonalEdgeStyle;rounded=0;orthogonalLoop=1;jettySize=auto;html=1;entryX=0.5;entryY=0;entryDx=0;entryDy=0;fontFamily=Times New Roman;fontSize=18;fontColor=default;fontStyle=1;resizable=1;strokeWidth=2;endArrow=none;startFill=0;" edge="1" parent="1" source="QvxtqPu8qyB4Hp5iw3jF-116" target="QvxtqPu8qyB4Hp5iw3jF-32">
          <mxGeometry relative="1" as="geometry" />
        </mxCell>
        <mxCell id="QvxtqPu8qyB4Hp5iw3jF-116" value="3" style="ellipse;whiteSpace=wrap;html=1;aspect=fixed;rounded=0;fontFamily=Times New Roman;movable=1;resizable=1;rotatable=1;deletable=1;editable=1;locked=0;connectable=1;strokeWidth=2;fontStyle=1;fontSize=18;" vertex="1" parent="1">
          <mxGeometry x="5510" y="-320" width="40" height="40" as="geometry" />
        </mxCell>
        <mxCell id="QvxtqPu8qyB4Hp5iw3jF-118" value="" style="endArrow=classic;html=1;rounded=0;fontFamily=Times New Roman;fontSize=18;fontColor=default;fontStyle=1;resizable=1;strokeWidth=2;" edge="1" parent="1">
          <mxGeometry width="50" height="50" relative="1" as="geometry">
            <mxPoint x="5229" y="240" as="sourcePoint" />
            <mxPoint x="5215" y="240" as="targetPoint" />
          </mxGeometry>
        </mxCell>
        <mxCell id="QvxtqPu8qyB4Hp5iw3jF-120" value="Нет" style="text;html=1;align=center;verticalAlign=middle;resizable=0;points=[];autosize=1;strokeColor=none;fillColor=none;fontSize=18;fontFamily=Times New Roman;fontStyle=1" vertex="1" parent="1">
          <mxGeometry x="5610" y="-240" width="50" height="40" as="geometry" />
        </mxCell>
        <mxCell id="QvxtqPu8qyB4Hp5iw3jF-121" value="&lt;font style=&quot;font-size: 18px;&quot; face=&quot;Times New Roman&quot;&gt;&lt;b&gt;Да&lt;/b&gt;&lt;/font&gt;" style="text;html=1;align=center;verticalAlign=middle;resizable=0;points=[];autosize=1;strokeColor=none;fillColor=none;" vertex="1" parent="1">
          <mxGeometry x="5490" y="-160" width="40" height="40" as="geometry" />
        </mxCell>
        <mxCell id="QvxtqPu8qyB4Hp5iw3jF-122" value="&lt;div&gt;&lt;font face=&quot;Times New Roman&quot;&gt;&lt;span style=&quot;font-size: 18px;&quot;&gt;&lt;b&gt;Обновление запасов&amp;nbsp;&lt;/b&gt;&lt;/span&gt;&lt;/font&gt;&lt;/div&gt;&lt;div&gt;&lt;font face=&quot;Times New Roman&quot;&gt;&lt;span style=&quot;font-size: 18px;&quot;&gt;&lt;b&gt;на складе&lt;/b&gt;&lt;/span&gt;&lt;/font&gt;&lt;/div&gt;" style="shape=process;whiteSpace=wrap;html=1;backgroundOutline=1;align=center;fontFamily=Verdana;rounded=0;movable=1;resizable=1;rotatable=1;deletable=1;editable=1;locked=0;connectable=1;strokeWidth=2;" vertex="1" parent="1">
          <mxGeometry x="5240" width="160" height="80" as="geometry" />
        </mxCell>
        <mxCell id="QvxtqPu8qyB4Hp5iw3jF-126" style="edgeStyle=orthogonalEdgeStyle;rounded=0;orthogonalLoop=1;jettySize=auto;html=1;entryX=0.5;entryY=0;entryDx=0;entryDy=0;fontFamily=Times New Roman;fontSize=18;fontColor=default;fontStyle=1;resizable=1;strokeWidth=2;endArrow=none;startFill=0;" edge="1" parent="1" source="QvxtqPu8qyB4Hp5iw3jF-123" target="QvxtqPu8qyB4Hp5iw3jF-88">
          <mxGeometry relative="1" as="geometry" />
        </mxCell>
        <mxCell id="QvxtqPu8qyB4Hp5iw3jF-123" value="&lt;div&gt;&lt;font face=&quot;Times New Roman&quot;&gt;&lt;span style=&quot;font-size: 18px;&quot;&gt;&lt;b&gt;Обновление запасов&amp;nbsp;&lt;/b&gt;&lt;/span&gt;&lt;/font&gt;&lt;/div&gt;&lt;div&gt;&lt;font face=&quot;Times New Roman&quot;&gt;&lt;span style=&quot;font-size: 18px;&quot;&gt;&lt;b&gt;на складе&lt;/b&gt;&lt;/span&gt;&lt;/font&gt;&lt;/div&gt;" style="shape=process;whiteSpace=wrap;html=1;backgroundOutline=1;align=center;fontFamily=Verdana;rounded=0;movable=1;resizable=1;rotatable=1;deletable=1;editable=1;locked=0;connectable=1;strokeWidth=2;" vertex="1" parent="1">
          <mxGeometry x="5450" width="160" height="80" as="geometry" />
        </mxCell>
        <mxCell id="QvxtqPu8qyB4Hp5iw3jF-127" value="Начало" style="rounded=1;whiteSpace=wrap;html=1;strokeColor=default;strokeWidth=2;align=center;verticalAlign=middle;arcSize=50;fontFamily=Times New Roman;fontSize=18;fontColor=default;fontStyle=1;fillColor=default;" vertex="1" parent="1">
          <mxGeometry x="6307" y="-320" width="160" height="40" as="geometry" />
        </mxCell>
        <mxCell id="QvxtqPu8qyB4Hp5iw3jF-132" value="&lt;span&gt;&lt;font&gt;&lt;span style=&quot;color: rgb(0, 0, 0); font-style: normal; font-variant-ligatures: normal; font-variant-caps: normal; letter-spacing: normal; orphans: 2; text-align: center; text-indent: 0px; text-transform: none; widows: 2; word-spacing: 0px; -webkit-text-stroke-width: 0px; white-space: normal; text-decoration-thickness: initial; text-decoration-style: initial; text-decoration-color: initial; float: none; display: inline !important;&quot;&gt;Дата конца выборки&lt;/span&gt;&lt;br style=&quot;forced-color-adjust: none; color: rgb(0, 0, 0); font-style: normal; font-variant-ligatures: normal; font-variant-caps: normal; letter-spacing: normal; orphans: 2; text-align: center; text-indent: 0px; text-transform: none; widows: 2; word-spacing: 0px; -webkit-text-stroke-width: 0px; white-space: normal; text-decoration-thickness: initial; text-decoration-style: initial; text-decoration-color: initial;&quot;&gt;&lt;div style=&quot;text-align: center;&quot;&gt;&lt;span style=&quot;background-color: transparent;&quot;&gt;&amp;gt;&lt;/span&gt;&lt;/div&gt;&lt;div style=&quot;text-align: center;&quot;&gt;&lt;span style=&quot;background-color: transparent;&quot;&gt;Дата начала выборки&lt;/span&gt;&lt;/div&gt;&lt;/font&gt;&lt;/span&gt;" style="text;whiteSpace=wrap;html=1;fontFamily=Times New Roman;fontSize=18;fontColor=default;fontStyle=1;resizable=1;" vertex="1" parent="1">
          <mxGeometry x="6040" y="1.25" width="180" height="70" as="geometry" />
        </mxCell>
        <mxCell id="QvxtqPu8qyB4Hp5iw3jF-134" value="" style="group" vertex="1" connectable="0" parent="1">
          <mxGeometry x="6307" width="160" height="80" as="geometry" />
        </mxCell>
        <mxCell id="sZgTdZ2AV089rUdlqtD1-244" value="" style="rhombus;whiteSpace=wrap;html=1;rounded=0;fontFamily=Times New Roman;movable=1;resizable=1;rotatable=1;deletable=1;editable=1;locked=0;connectable=1;strokeWidth=2;fontSize=18;fontStyle=1;verticalAlign=top;" parent="QvxtqPu8qyB4Hp5iw3jF-134" vertex="1">
          <mxGeometry width="160" height="80" as="geometry" />
        </mxCell>
        <mxCell id="QvxtqPu8qyB4Hp5iw3jF-133" value="&lt;div style=&quot;forced-color-adjust: none; font-family: &amp;quot;Times New Roman&amp;quot;; font-size: 18px; font-style: normal; font-variant-ligatures: normal; font-variant-caps: normal; font-weight: 700; letter-spacing: normal; orphans: 2; text-align: center; text-indent: 0px; text-transform: none; widows: 2; word-spacing: 0px; -webkit-text-stroke-width: 0px; white-space: normal; text-decoration-thickness: initial; text-decoration-style: initial; text-decoration-color: initial;&quot;&gt;&lt;span style=&quot;forced-color-adjust: none;&quot;&gt;Даты&lt;/span&gt;&lt;/div&gt;&lt;div style=&quot;forced-color-adjust: none; font-family: &amp;quot;Times New Roman&amp;quot;; font-size: 18px; font-style: normal; font-variant-ligatures: normal; font-variant-caps: normal; font-weight: 700; letter-spacing: normal; orphans: 2; text-align: center; text-indent: 0px; text-transform: none; widows: 2; word-spacing: 0px; -webkit-text-stroke-width: 0px; white-space: normal; text-decoration-thickness: initial; text-decoration-style: initial; text-decoration-color: initial;&quot;&gt;&lt;span style=&quot;&quot;&gt;корректны&lt;/span&gt;&lt;/div&gt;" style="text;whiteSpace=wrap;html=1;fontFamily=Times New Roman;fontSize=18;fontColor=default;fontStyle=1;resizable=1;fillColor=none;labelBackgroundColor=none;" vertex="1" parent="QvxtqPu8qyB4Hp5iw3jF-134">
          <mxGeometry x="30" y="5" width="120" height="70" as="geometry" />
        </mxCell>
        <mxCell id="QvxtqPu8qyB4Hp5iw3jF-136" value="&lt;font style=&quot;font-size: 18px;&quot; face=&quot;Times New Roman&quot;&gt;&lt;b&gt;Да&lt;/b&gt;&lt;/font&gt;" style="text;html=1;align=center;verticalAlign=middle;resizable=0;points=[];autosize=1;strokeColor=none;fillColor=none;" vertex="1" parent="1">
          <mxGeometry x="6347" y="80" width="40" height="40" as="geometry" />
        </mxCell>
        <mxCell id="QvxtqPu8qyB4Hp5iw3jF-137" style="edgeStyle=orthogonalEdgeStyle;rounded=0;orthogonalLoop=1;jettySize=auto;html=1;entryX=0.5;entryY=0;entryDx=0;entryDy=0;fontFamily=Times New Roman;fontSize=18;fontColor=default;fontStyle=1;resizable=1;endArrow=none;startFill=0;strokeWidth=2;exitX=1;exitY=0.5;exitDx=0;exitDy=0;" edge="1" parent="1" source="sZgTdZ2AV089rUdlqtD1-244" target="QvxtqPu8qyB4Hp5iw3jF-196">
          <mxGeometry relative="1" as="geometry">
            <mxPoint x="6487" y="30" as="sourcePoint" />
            <mxPoint x="6527" y="40" as="targetPoint" />
          </mxGeometry>
        </mxCell>
        <mxCell id="QvxtqPu8qyB4Hp5iw3jF-138" value="Нет" style="text;html=1;align=center;verticalAlign=middle;resizable=0;points=[];autosize=1;strokeColor=none;fillColor=none;fontSize=18;fontFamily=Times New Roman;fontStyle=1" vertex="1" parent="1">
          <mxGeometry x="6467" width="50" height="40" as="geometry" />
        </mxCell>
        <mxCell id="QvxtqPu8qyB4Hp5iw3jF-139" style="edgeStyle=orthogonalEdgeStyle;rounded=1;orthogonalLoop=1;jettySize=auto;html=1;exitX=0;exitY=0.5;exitDx=0;exitDy=0;exitPerimeter=0;entryX=0;entryY=0.5;entryDx=0;entryDy=0;endArrow=none;startFill=0;dashed=1;fontFamily=Verdana;movable=1;resizable=1;rotatable=1;deletable=1;editable=1;locked=0;connectable=1;strokeWidth=2;" edge="1" parent="1" source="QvxtqPu8qyB4Hp5iw3jF-140" target="sZgTdZ2AV089rUdlqtD1-244">
          <mxGeometry relative="1" as="geometry">
            <mxPoint x="6500" y="70" as="targetPoint" />
            <Array as="points" />
          </mxGeometry>
        </mxCell>
        <mxCell id="QvxtqPu8qyB4Hp5iw3jF-140" value="" style="strokeWidth=2;html=1;shape=mxgraph.flowchart.annotation_2;align=left;labelPosition=right;pointerEvents=1;rounded=1;fontFamily=Verdana;movable=1;resizable=1;rotatable=1;deletable=1;editable=1;locked=0;connectable=1;flipH=1;" vertex="1" parent="1">
          <mxGeometry x="6210" width="50" height="80" as="geometry" />
        </mxCell>
        <mxCell id="QvxtqPu8qyB4Hp5iw3jF-143" style="edgeStyle=orthogonalEdgeStyle;rounded=1;orthogonalLoop=1;jettySize=auto;html=1;exitX=0;exitY=0.5;exitDx=0;exitDy=0;exitPerimeter=0;entryX=0;entryY=0.5;entryDx=0;entryDy=0;endArrow=none;startFill=0;dashed=1;fontFamily=Verdana;movable=1;resizable=1;rotatable=1;deletable=1;editable=1;locked=0;connectable=1;strokeWidth=2;" edge="1" source="QvxtqPu8qyB4Hp5iw3jF-144" parent="1" target="ucU8Fq2Tyw5uj5B-TA47-2">
          <mxGeometry relative="1" as="geometry">
            <mxPoint x="6467" y="161.25" as="targetPoint" />
          </mxGeometry>
        </mxCell>
        <mxCell id="QvxtqPu8qyB4Hp5iw3jF-144" value="" style="strokeWidth=2;html=1;shape=mxgraph.flowchart.annotation_2;align=left;labelPosition=right;pointerEvents=1;rounded=1;fontFamily=Verdana;movable=1;resizable=1;rotatable=1;deletable=1;editable=1;locked=0;connectable=1;flipH=1;" vertex="1" parent="1">
          <mxGeometry x="6210" y="121.25" width="50" height="80" as="geometry" />
        </mxCell>
        <mxCell id="QvxtqPu8qyB4Hp5iw3jF-151" value="Нет" style="text;html=1;align=center;verticalAlign=middle;resizable=0;points=[];autosize=1;strokeColor=none;fillColor=none;fontSize=18;fontFamily=Times New Roman;fontStyle=1" vertex="1" parent="1">
          <mxGeometry x="6890.05" y="-141.25" width="50" height="40" as="geometry" />
        </mxCell>
        <mxCell id="QvxtqPu8qyB4Hp5iw3jF-152" value="&lt;font style=&quot;font-size: 18px;&quot; face=&quot;Times New Roman&quot;&gt;&lt;b&gt;Да&lt;/b&gt;&lt;/font&gt;" style="text;html=1;align=center;verticalAlign=middle;resizable=0;points=[];autosize=1;strokeColor=none;fillColor=none;" vertex="1" parent="1">
          <mxGeometry x="6770.05" y="-61.25" width="40" height="40" as="geometry" />
        </mxCell>
        <mxCell id="QvxtqPu8qyB4Hp5iw3jF-157" value="" style="endArrow=classic;html=1;rounded=0;fontFamily=Times New Roman;fontSize=18;fontColor=default;fontStyle=1;resizable=1;strokeWidth=2;" edge="1" parent="1">
          <mxGeometry width="50" height="50" relative="1" as="geometry">
            <mxPoint x="6700.05" y="198.75" as="sourcePoint" />
            <mxPoint x="6700" y="138.75" as="targetPoint" />
          </mxGeometry>
        </mxCell>
        <mxCell id="QvxtqPu8qyB4Hp5iw3jF-158" value="" style="endArrow=classic;html=1;rounded=0;fontFamily=Times New Roman;fontSize=18;fontColor=default;fontStyle=1;resizable=1;strokeWidth=2;" edge="1" parent="1">
          <mxGeometry width="50" height="50" relative="1" as="geometry">
            <mxPoint x="6730.05" y="338.75" as="sourcePoint" />
            <mxPoint x="6700.05" y="338.75" as="targetPoint" />
          </mxGeometry>
        </mxCell>
        <mxCell id="QvxtqPu8qyB4Hp5iw3jF-159" value="3" style="ellipse;whiteSpace=wrap;html=1;aspect=fixed;rounded=0;fontFamily=Times New Roman;movable=1;resizable=1;rotatable=1;deletable=1;editable=1;locked=0;connectable=1;strokeWidth=2;fontSize=18;fontStyle=1" vertex="1" parent="1">
          <mxGeometry x="6920.05" y="118.75" width="40" height="40" as="geometry" />
        </mxCell>
        <mxCell id="QvxtqPu8qyB4Hp5iw3jF-162" value="3" style="ellipse;whiteSpace=wrap;html=1;aspect=fixed;rounded=0;fontFamily=Times New Roman;movable=1;resizable=1;rotatable=1;deletable=1;editable=1;locked=0;connectable=1;strokeWidth=2;fontSize=18;fontStyle=1" vertex="1" parent="1">
          <mxGeometry x="7110" y="-320" width="40" height="40" as="geometry" />
        </mxCell>
        <mxCell id="QvxtqPu8qyB4Hp5iw3jF-177" style="edgeStyle=orthogonalEdgeStyle;rounded=0;orthogonalLoop=1;jettySize=auto;html=1;fontFamily=Times New Roman;fontSize=18;fontColor=default;fontStyle=1;resizable=1;endArrow=none;startFill=0;strokeWidth=2;" edge="1" parent="1" source="QvxtqPu8qyB4Hp5iw3jF-167">
          <mxGeometry relative="1" as="geometry">
            <mxPoint x="7370" y="280.25" as="targetPoint" />
          </mxGeometry>
        </mxCell>
        <mxCell id="QvxtqPu8qyB4Hp5iw3jF-167" value="По умолчанию" style="shape=process;whiteSpace=wrap;html=1;backgroundOutline=1;fontFamily=Times New Roman;movable=1;resizable=1;rotatable=1;deletable=1;editable=1;locked=0;connectable=1;strokeWidth=2;fontStyle=1;fontSize=18;" vertex="1" parent="1">
          <mxGeometry x="7170" y="240.25" width="160" height="80" as="geometry" />
        </mxCell>
        <mxCell id="QvxtqPu8qyB4Hp5iw3jF-173" style="edgeStyle=orthogonalEdgeStyle;rounded=0;orthogonalLoop=1;jettySize=auto;html=1;fontFamily=Times New Roman;fontSize=18;fontColor=default;fontStyle=1;resizable=1;strokeWidth=2;endArrow=none;startFill=0;" edge="1" parent="1" source="QvxtqPu8qyB4Hp5iw3jF-169">
          <mxGeometry relative="1" as="geometry">
            <mxPoint x="7370" y="-80" as="targetPoint" />
            <Array as="points">
              <mxPoint x="7130" y="340" />
              <mxPoint x="7370" y="340" />
            </Array>
          </mxGeometry>
        </mxCell>
        <mxCell id="QvxtqPu8qyB4Hp5iw3jF-169" value="4" style="ellipse;whiteSpace=wrap;html=1;aspect=fixed;rounded=0;fontFamily=Times New Roman;movable=1;resizable=1;rotatable=1;deletable=1;editable=1;locked=0;connectable=1;strokeWidth=2;fontStyle=1;fontSize=18;" vertex="1" parent="1">
          <mxGeometry x="7110" y="360" width="40" height="40" as="geometry" />
        </mxCell>
        <mxCell id="QvxtqPu8qyB4Hp5iw3jF-175" value="" style="endArrow=classic;html=1;rounded=0;fontFamily=Times New Roman;fontSize=18;fontColor=default;fontStyle=1;resizable=1;strokeWidth=2;" edge="1" parent="1">
          <mxGeometry width="50" height="50" relative="1" as="geometry">
            <mxPoint x="7150" y="340" as="sourcePoint" />
            <mxPoint x="7130" y="340" as="targetPoint" />
          </mxGeometry>
        </mxCell>
        <mxCell id="QvxtqPu8qyB4Hp5iw3jF-181" value="2" style="ellipse;whiteSpace=wrap;html=1;aspect=fixed;rounded=0;fontFamily=Times New Roman;movable=1;resizable=1;rotatable=1;deletable=1;editable=1;locked=0;connectable=1;strokeWidth=2;fontSize=18;fontStyle=1" vertex="1" parent="1">
          <mxGeometry x="6990.05" y="78.75" width="40" height="40" as="geometry" />
        </mxCell>
        <mxCell id="QvxtqPu8qyB4Hp5iw3jF-183" value="" style="group" vertex="1" connectable="0" parent="1">
          <mxGeometry x="6730.05" y="98.75" width="160" height="80" as="geometry" />
        </mxCell>
        <mxCell id="ucU8Fq2Tyw5uj5B-TA47-31" value="" style="verticalLabelPosition=bottom;verticalAlign=top;html=1;shape=hexagon;perimeter=hexagonPerimeter2;arcSize=6;size=0.27;rounded=0;fontFamily=Verdana;movable=1;resizable=1;rotatable=1;deletable=1;editable=1;locked=0;connectable=1;strokeWidth=2;" parent="QvxtqPu8qyB4Hp5iw3jF-183" vertex="1">
          <mxGeometry width="160" height="80" as="geometry" />
        </mxCell>
        <mxCell id="ucU8Fq2Tyw5uj5B-TA47-32" value="&lt;font&gt;&lt;b&gt;i=0; i&amp;lt;n; i++&lt;/b&gt;&lt;/font&gt;" style="text;html=1;align=center;verticalAlign=middle;resizable=1;points=[];autosize=1;strokeColor=none;fillColor=none;fontFamily=Times New Roman;movable=1;rotatable=1;deletable=1;editable=1;locked=0;connectable=1;fontSize=18;" parent="QvxtqPu8qyB4Hp5iw3jF-183" vertex="1">
          <mxGeometry x="20" y="20" width="120" height="40" as="geometry" />
        </mxCell>
        <mxCell id="QvxtqPu8qyB4Hp5iw3jF-187" value="Нет" style="text;html=1;align=center;verticalAlign=middle;resizable=0;points=[];autosize=1;strokeColor=none;fillColor=none;fontSize=18;fontFamily=Times New Roman;fontStyle=1" vertex="1" parent="1">
          <mxGeometry x="7570" y="-250" width="50" height="40" as="geometry" />
        </mxCell>
        <mxCell id="QvxtqPu8qyB4Hp5iw3jF-188" value="&lt;font style=&quot;font-size: 18px;&quot; face=&quot;Times New Roman&quot;&gt;&lt;b&gt;Да&lt;/b&gt;&lt;/font&gt;" style="text;html=1;align=center;verticalAlign=middle;resizable=0;points=[];autosize=1;strokeColor=none;fillColor=none;" vertex="1" parent="1">
          <mxGeometry x="7450" y="-170" width="40" height="40" as="geometry" />
        </mxCell>
        <mxCell id="QvxtqPu8qyB4Hp5iw3jF-190" value="Конец" style="rounded=1;whiteSpace=wrap;html=1;strokeColor=default;strokeWidth=2;align=center;verticalAlign=middle;arcSize=50;fontFamily=Times New Roman;fontSize=18;fontColor=default;fontStyle=1;fillColor=default;" vertex="1" parent="1">
          <mxGeometry x="7410" y="281.25" width="160" height="40" as="geometry" />
        </mxCell>
        <mxCell id="QvxtqPu8qyB4Hp5iw3jF-194" value="" style="endArrow=classic;html=1;rounded=0;fontFamily=Times New Roman;fontSize=18;fontColor=default;fontStyle=1;resizable=1;strokeWidth=2;" edge="1" parent="1">
          <mxGeometry width="50" height="50" relative="1" as="geometry">
            <mxPoint x="7510" y="230" as="sourcePoint" />
            <mxPoint x="7490" y="230" as="targetPoint" />
          </mxGeometry>
        </mxCell>
        <mxCell id="QvxtqPu8qyB4Hp5iw3jF-204" style="edgeStyle=orthogonalEdgeStyle;rounded=0;orthogonalLoop=1;jettySize=auto;html=1;fontFamily=Times New Roman;fontSize=18;fontColor=default;fontStyle=1;resizable=1;strokeWidth=2;" edge="1" parent="1">
          <mxGeometry relative="1" as="geometry">
            <mxPoint x="6387" y="340" as="targetPoint" />
            <mxPoint x="6587" y="261" as="sourcePoint" />
            <Array as="points">
              <mxPoint x="6587" y="340" />
            </Array>
          </mxGeometry>
        </mxCell>
        <mxCell id="QvxtqPu8qyB4Hp5iw3jF-196" value="Сообщение пользователю &quot;Ошибка&quot;" style="shape=parallelogram;perimeter=parallelogramPerimeter;whiteSpace=wrap;html=1;fixedSize=1;rounded=0;fontFamily=Times New Roman;movable=1;resizable=1;rotatable=1;deletable=1;editable=1;locked=0;connectable=1;fontSize=18;fontStyle=1;strokeWidth=2;" vertex="1" parent="1">
          <mxGeometry x="6510" y="181" width="160" height="80" as="geometry" />
        </mxCell>
        <mxCell id="QvxtqPu8qyB4Hp5iw3jF-203" style="edgeStyle=orthogonalEdgeStyle;rounded=0;orthogonalLoop=1;jettySize=auto;html=1;entryX=0.5;entryY=0;entryDx=0;entryDy=0;fontFamily=Times New Roman;fontSize=18;fontColor=default;fontStyle=1;resizable=1;strokeWidth=2;endArrow=none;startFill=0;" edge="1" parent="1" source="QvxtqPu8qyB4Hp5iw3jF-197" target="QvxtqPu8qyB4Hp5iw3jF-202">
          <mxGeometry relative="1" as="geometry" />
        </mxCell>
        <mxCell id="QvxtqPu8qyB4Hp5iw3jF-197" value="Получение результата запроса к БД" style="shape=process;whiteSpace=wrap;html=1;backgroundOutline=1;fontFamily=Times New Roman;movable=1;resizable=1;rotatable=1;deletable=1;editable=1;locked=0;connectable=1;fontSize=18;fontStyle=1;strokeWidth=2;" vertex="1" parent="1">
          <mxGeometry x="6307" y="240" width="160" height="80" as="geometry" />
        </mxCell>
        <mxCell id="QvxtqPu8qyB4Hp5iw3jF-202" value="1" style="ellipse;whiteSpace=wrap;html=1;aspect=fixed;rounded=0;fontFamily=Times New Roman;movable=1;resizable=1;rotatable=1;deletable=1;editable=1;locked=0;connectable=1;strokeWidth=2;fontSize=18;fontStyle=1" vertex="1" parent="1">
          <mxGeometry x="6367" y="360" width="40" height="40" as="geometry" />
        </mxCell>
        <mxCell id="QvxtqPu8qyB4Hp5iw3jF-206" style="edgeStyle=orthogonalEdgeStyle;rounded=0;orthogonalLoop=1;jettySize=auto;html=1;entryX=0.5;entryY=0;entryDx=0;entryDy=0;fontFamily=Times New Roman;fontSize=18;fontColor=default;fontStyle=1;resizable=1;strokeWidth=2;endArrow=none;startFill=0;" edge="1" parent="1" source="QvxtqPu8qyB4Hp5iw3jF-205" target="ucU8Fq2Tyw5uj5B-TA47-18">
          <mxGeometry relative="1" as="geometry" />
        </mxCell>
        <mxCell id="QvxtqPu8qyB4Hp5iw3jF-205" value="1" style="ellipse;whiteSpace=wrap;html=1;aspect=fixed;rounded=0;fontFamily=Times New Roman;movable=1;resizable=1;rotatable=1;deletable=1;editable=1;locked=0;connectable=1;strokeWidth=2;fontSize=18;fontStyle=1" vertex="1" parent="1">
          <mxGeometry x="6790" y="-220" width="40" height="40" as="geometry" />
        </mxCell>
      </root>
    </mxGraphModel>
  </diagram>
</mxfile>
